<svg width="50" height="50" viewBox="0 0 50 50" fill="none" xmlns="http://www.w3.org/2000/svg">
<g clip-path="url(#clip0_15:2838)">
<path d="M22.3975 44.7881C17.5166 44.7881 13.5439 40.8154 13.5439 35.9345V6.28918L3.48043 8.59307C0.993073 9.24724 -0.498349 11.8116 0.159632 14.3219L8.78814 46.5378C9.36106 48.6212 11.2755 50.0001 13.3295 50.0001C13.7148 50.0001 14.1065 49.952 14.4941 49.8502L35.4922 44.7881H22.3975Z" fill="#B0BEC5"/>
<path d="M49.9995 5.72882V35.9345C49.9995 39.1008 47.437 41.6633 44.2707 41.6633H22.3975C20.2519 41.6633 18.3772 40.4759 17.398 38.7259C16.9395 37.9134 16.6687 36.9552 16.6687 35.9345V5.72882C16.6687 2.56212 19.2312 0 22.3975 0H44.2707C47.437 0 49.9995 2.56212 49.9995 5.72882Z" fill="#ECEFF1"/>
<path d="M31.2511 14.582C31.2511 16.8832 29.3859 18.7484 27.0847 18.7484C24.7838 18.7484 22.9182 16.8832 22.9182 14.582C22.9182 12.2811 24.7838 10.4159 27.0847 10.4159C29.3859 10.4159 31.2511 12.2811 31.2511 14.582Z" fill="#FFC107"/>
<path d="M49.9994 24.8729V35.9346C49.9994 39.1009 47.4369 41.6634 44.2706 41.6634H22.3975C20.2519 41.6634 18.3771 40.476 17.3979 38.7259L38.0421 18.0817C39.4584 16.6655 41.7917 16.6655 43.2083 18.0817L49.9994 24.8729Z" fill="#388E3C"/>
<path d="M43.8748 41.6634H22.3975C20.2519 41.6634 18.3772 40.476 17.398 38.7259C16.9395 37.9135 16.6687 36.9553 16.6687 35.9346V31.1223L22.4185 25.3729C23.8348 23.9563 26.168 23.9563 27.5847 25.3729L43.8748 41.6634Z" fill="#4CAF50"/>
</g>
<defs>
<clipPath id="clip0_15:2838">
<rect width="50" height="50" fill="white"/>
</clipPath>
</defs>
</svg>
