<svg width="375" height="298" viewBox="0 0 375 298" fill="none" xmlns="http://www.w3.org/2000/svg">
<path fill-rule="evenodd" clip-rule="evenodd" d="M376.5 270C381.747 270 386 265.747 386 260.5C386 255.253 381.747 251 376.5 251C371.253 251 367 255.253 367 260.5C367 265.747 371.253 270 376.5 270Z" fill="url(#paint0_linear)"/>
<path fill-rule="evenodd" clip-rule="evenodd" d="M-1.5 143C3.74671 143 8 138.747 8 133.5C8 128.253 3.74671 124 -1.5 124C-6.74671 124 -11 128.253 -11 133.5C-11 138.747 -6.74671 143 -1.5 143Z" fill="url(#paint1_linear)"/>
<path fill-rule="evenodd" clip-rule="evenodd" d="M314.5 251C316.985 251 319 248.985 319 246.5C319 244.015 316.985 242 314.5 242C312.015 242 310 244.015 310 246.5C310 248.985 312.015 251 314.5 251Z" fill="url(#paint2_linear)"/>
<path fill-rule="evenodd" clip-rule="evenodd" d="M327.5 222C329.433 222 331 220.433 331 218.5C331 216.567 329.433 215 327.5 215C325.567 215 324 216.567 324 218.5C324 220.433 325.567 222 327.5 222Z" fill="url(#paint3_linear)"/>
<path fill-rule="evenodd" clip-rule="evenodd" d="M320.5 179C322.433 179 324 177.433 324 175.5C324 173.567 322.433 172 320.5 172C318.567 172 317 173.567 317 175.5C317 177.433 318.567 179 320.5 179Z" fill="url(#paint4_linear)"/>
<path fill-rule="evenodd" clip-rule="evenodd" d="M290 239C291.657 239 293 237.657 293 236C293 234.343 291.657 233 290 233C288.343 233 287 234.343 287 236C287 237.657 288.343 239 290 239Z" fill="url(#paint5_linear)"/>
<path fill-rule="evenodd" clip-rule="evenodd" d="M271 282C272.105 282 273 281.105 273 280C273 278.895 272.105 278 271 278C269.895 278 269 278.895 269 280C269 281.105 269.895 282 271 282Z" fill="url(#paint6_linear)"/>
<path fill-rule="evenodd" clip-rule="evenodd" d="M282 108C283.105 108 284 107.105 284 106C284 104.895 283.105 104 282 104C280.895 104 280 104.895 280 106C280 107.105 280.895 108 282 108Z" fill="url(#paint7_linear)"/>
<path fill-rule="evenodd" clip-rule="evenodd" d="M362 141C363.105 141 364 140.105 364 139C364 137.895 363.105 137 362 137C360.895 137 360 137.895 360 139C360 140.105 360.895 141 362 141Z" fill="url(#paint8_linear)"/>
<path fill-rule="evenodd" clip-rule="evenodd" d="M219 77C220.105 77 221 76.1046 221 75C221 73.8954 220.105 73 219 73C217.895 73 217 73.8954 217 75C217 76.1046 217.895 77 219 77Z" fill="url(#paint9_linear)"/>
<path fill-rule="evenodd" clip-rule="evenodd" d="M141.5 79C143.433 79 145 77.433 145 75.5C145 73.567 143.433 72 141.5 72C139.567 72 138 73.567 138 75.5C138 77.433 139.567 79 141.5 79Z" fill="url(#paint10_linear)"/>
<path fill-rule="evenodd" clip-rule="evenodd" d="M65 81C67.7614 81 70 78.7614 70 76C70 73.2386 67.7614 71 65 71C62.2386 71 60 73.2386 60 76C60 78.7614 62.2386 81 65 81Z" fill="url(#paint11_linear)"/>
<path fill-rule="evenodd" clip-rule="evenodd" d="M103.5 62C105.433 62 107 60.433 107 58.5C107 56.567 105.433 55 103.5 55C101.567 55 100 56.567 100 58.5C100 60.433 101.567 62 103.5 62Z" fill="url(#paint12_linear)"/>
<path fill-rule="evenodd" clip-rule="evenodd" d="M32 26C33.6569 26 35 24.6569 35 23C35 21.3431 33.6569 20 32 20C30.3431 20 29 21.3431 29 23C29 24.6569 30.3431 26 32 26Z" fill="url(#paint13_linear)"/>
<path fill-rule="evenodd" clip-rule="evenodd" d="M45 175C46.6569 175 48 173.657 48 172C48 170.343 46.6569 169 45 169C43.3431 169 42 170.343 42 172C42 173.657 43.3431 175 45 175Z" fill="url(#paint14_linear)"/>
<path fill-rule="evenodd" clip-rule="evenodd" d="M88 245C89.6569 245 91 243.657 91 242C91 240.343 89.6569 239 88 239C86.3431 239 85 240.343 85 242C85 243.657 86.3431 245 88 245Z" fill="url(#paint15_linear)"/>
<path fill-rule="evenodd" clip-rule="evenodd" d="M42 298C44.7614 298 47 295.761 47 293C47 290.239 44.7614 288 42 288C39.2386 288 37 290.239 37 293C37 295.761 39.2386 298 42 298Z" fill="url(#paint16_linear)"/>
<path fill-rule="evenodd" clip-rule="evenodd" d="M140 298C141.657 298 143 296.657 143 295C143 293.343 141.657 292 140 292C138.343 292 137 293.343 137 295C137 296.657 138.343 298 140 298Z" fill="url(#paint17_linear)"/>
<path fill-rule="evenodd" clip-rule="evenodd" d="M52 225C53.1046 225 54 224.105 54 223C54 221.895 53.1046 221 52 221C50.8954 221 50 221.895 50 223C50 224.105 50.8954 225 52 225Z" fill="url(#paint18_linear)"/>
<path fill-rule="evenodd" clip-rule="evenodd" d="M198 57C200.761 57 203 54.7614 203 52C203 49.2386 200.761 47 198 47C195.239 47 193 49.2386 193 52C193 54.7614 195.239 57 198 57Z" fill="url(#paint19_linear)"/>
<path fill-rule="evenodd" clip-rule="evenodd" d="M188 10C190.761 10 193 7.76142 193 5C193 2.23858 190.761 0 188 0C185.239 0 183 2.23858 183 5C183 7.76142 185.239 10 188 10Z" fill="url(#paint20_linear)"/>
<path fill-rule="evenodd" clip-rule="evenodd" d="M220.5 26C222.433 26 224 24.433 224 22.5C224 20.567 222.433 19 220.5 19C218.567 19 217 20.567 217 22.5C217 24.433 218.567 26 220.5 26Z" fill="url(#paint21_linear)"/>
<path fill-rule="evenodd" clip-rule="evenodd" d="M311.5 51C313.433 51 315 49.433 315 47.5C315 45.567 313.433 44 311.5 44C309.567 44 308 45.567 308 47.5C308 49.433 309.567 51 311.5 51Z" fill="url(#paint22_linear)"/>
<path fill-rule="evenodd" clip-rule="evenodd" d="M300 83C301.657 83 303 81.6569 303 80C303 78.3431 301.657 77 300 77C298.343 77 297 78.3431 297 80C297 81.6569 298.343 83 300 83Z" fill="url(#paint23_linear)"/>
<path fill-rule="evenodd" clip-rule="evenodd" d="M359 124C360.657 124 362 122.657 362 121C362 119.343 360.657 118 359 118C357.343 118 356 119.343 356 121C356 122.657 357.343 124 359 124Z" fill="url(#paint24_linear)"/>
<g filter="url(#filter0_d)">
<path fill-rule="evenodd" clip-rule="evenodd" d="M187.5 250C233.616 250 271 212.616 271 166.5C271 120.384 233.616 83 187.5 83C141.384 83 104 120.384 104 166.5C104 212.616 141.384 250 187.5 250Z" fill="#FFFAF7"/>
</g>
<path d="M259 166.5C259 205.988 226.988 238 187.5 238C148.012 238 116 205.988 116 166.5C116 127.012 148.012 95 187.5 95C226.988 95 259 127.012 259 166.5Z" fill="url(#paint25_linear)" stroke="white" stroke-width="8" stroke-linejoin="round"/>
<path d="M163 165.443L180.279 183L213 151" stroke="white" stroke-width="9.19206" stroke-linecap="round" stroke-linejoin="round"/>
<defs>
<filter id="filter0_d" x="84" y="83" width="207" height="207" filterUnits="userSpaceOnUse" color-interpolation-filters="sRGB">
<feFlood flood-opacity="0" result="BackgroundImageFix"/>
<feColorMatrix in="SourceAlpha" type="matrix" values="0 0 0 0 0 0 0 0 0 0 0 0 0 0 0 0 0 0 127 0" result="hardAlpha"/>
<feOffset dy="20"/>
<feGaussianBlur stdDeviation="10"/>
<feColorMatrix type="matrix" values="0 0 0 0 0.843137 0 0 0 0 0.843137 0 0 0 0 0.843137 0 0 0 0.236533 0"/>
<feBlend mode="normal" in2="BackgroundImageFix" result="effect1_dropShadow"/>
<feBlend mode="normal" in="SourceGraphic" in2="effect1_dropShadow" result="shape"/>
</filter>
<linearGradient id="paint0_linear" x1="357.5" y1="260.5" x2="376.5" y2="279.5" gradientUnits="userSpaceOnUse">
<stop stop-color="#FFA53E"/>
<stop offset="1" stop-color="#FF7643"/>
</linearGradient>
<linearGradient id="paint1_linear" x1="-20.5" y1="133.5" x2="-1.5" y2="152.5" gradientUnits="userSpaceOnUse">
<stop stop-color="#FFA53E"/>
<stop offset="1" stop-color="#FF7643"/>
</linearGradient>
<linearGradient id="paint2_linear" x1="305.5" y1="246.5" x2="314.5" y2="255.5" gradientUnits="userSpaceOnUse">
<stop stop-color="#FFA53E"/>
<stop offset="1" stop-color="#FF7643"/>
</linearGradient>
<linearGradient id="paint3_linear" x1="320.5" y1="218.5" x2="327.5" y2="225.5" gradientUnits="userSpaceOnUse">
<stop stop-color="#FFA53E"/>
<stop offset="1" stop-color="#FF7643"/>
</linearGradient>
<linearGradient id="paint4_linear" x1="313.5" y1="175.5" x2="320.5" y2="182.5" gradientUnits="userSpaceOnUse">
<stop stop-color="#FFA53E"/>
<stop offset="1" stop-color="#FF7643"/>
</linearGradient>
<linearGradient id="paint5_linear" x1="284" y1="236" x2="290" y2="242" gradientUnits="userSpaceOnUse">
<stop stop-color="#FFA53E"/>
<stop offset="1" stop-color="#FF7643"/>
</linearGradient>
<linearGradient id="paint6_linear" x1="267" y1="280" x2="271" y2="284" gradientUnits="userSpaceOnUse">
<stop stop-color="#FFA53E"/>
<stop offset="1" stop-color="#FF7643"/>
</linearGradient>
<linearGradient id="paint7_linear" x1="278" y1="106" x2="282" y2="110" gradientUnits="userSpaceOnUse">
<stop stop-color="#FFA53E"/>
<stop offset="1" stop-color="#FF7643"/>
</linearGradient>
<linearGradient id="paint8_linear" x1="358" y1="139" x2="362" y2="143" gradientUnits="userSpaceOnUse">
<stop stop-color="#FFA53E"/>
<stop offset="1" stop-color="#FF7643"/>
</linearGradient>
<linearGradient id="paint9_linear" x1="215" y1="75" x2="219" y2="79" gradientUnits="userSpaceOnUse">
<stop stop-color="#FFA53E"/>
<stop offset="1" stop-color="#FF7643"/>
</linearGradient>
<linearGradient id="paint10_linear" x1="134.5" y1="75.5" x2="141.5" y2="82.5" gradientUnits="userSpaceOnUse">
<stop stop-color="#FFA53E"/>
<stop offset="1" stop-color="#FF7643"/>
</linearGradient>
<linearGradient id="paint11_linear" x1="55" y1="76" x2="65" y2="86" gradientUnits="userSpaceOnUse">
<stop stop-color="#FFA53E"/>
<stop offset="1" stop-color="#FF7643"/>
</linearGradient>
<linearGradient id="paint12_linear" x1="96.5" y1="58.5" x2="103.5" y2="65.5" gradientUnits="userSpaceOnUse">
<stop stop-color="#FFA53E"/>
<stop offset="1" stop-color="#FF7643"/>
</linearGradient>
<linearGradient id="paint13_linear" x1="26" y1="23" x2="32" y2="29" gradientUnits="userSpaceOnUse">
<stop stop-color="#FFA53E"/>
<stop offset="1" stop-color="#FF7643"/>
</linearGradient>
<linearGradient id="paint14_linear" x1="39" y1="172" x2="45" y2="178" gradientUnits="userSpaceOnUse">
<stop stop-color="#FFA53E"/>
<stop offset="1" stop-color="#FF7643"/>
</linearGradient>
<linearGradient id="paint15_linear" x1="82" y1="242" x2="88" y2="248" gradientUnits="userSpaceOnUse">
<stop stop-color="#FFA53E"/>
<stop offset="1" stop-color="#FF7643"/>
</linearGradient>
<linearGradient id="paint16_linear" x1="32" y1="293" x2="42" y2="303" gradientUnits="userSpaceOnUse">
<stop stop-color="#FFA53E"/>
<stop offset="1" stop-color="#FF7643"/>
</linearGradient>
<linearGradient id="paint17_linear" x1="134" y1="295" x2="140" y2="301" gradientUnits="userSpaceOnUse">
<stop stop-color="#FFA53E"/>
<stop offset="1" stop-color="#FF7643"/>
</linearGradient>
<linearGradient id="paint18_linear" x1="48" y1="223" x2="52" y2="227" gradientUnits="userSpaceOnUse">
<stop stop-color="#FFA53E"/>
<stop offset="1" stop-color="#FF7643"/>
</linearGradient>
<linearGradient id="paint19_linear" x1="188" y1="52" x2="198" y2="62" gradientUnits="userSpaceOnUse">
<stop stop-color="#FFA53E"/>
<stop offset="1" stop-color="#FF7643"/>
</linearGradient>
<linearGradient id="paint20_linear" x1="178" y1="5" x2="188" y2="15" gradientUnits="userSpaceOnUse">
<stop stop-color="#FFA53E"/>
<stop offset="1" stop-color="#FF7643"/>
</linearGradient>
<linearGradient id="paint21_linear" x1="213.5" y1="22.5" x2="220.5" y2="29.5" gradientUnits="userSpaceOnUse">
<stop stop-color="#FFA53E"/>
<stop offset="1" stop-color="#FF7643"/>
</linearGradient>
<linearGradient id="paint22_linear" x1="304.5" y1="47.5" x2="311.5" y2="54.5" gradientUnits="userSpaceOnUse">
<stop stop-color="#FFA53E"/>
<stop offset="1" stop-color="#FF7643"/>
</linearGradient>
<linearGradient id="paint23_linear" x1="294" y1="80" x2="300" y2="86" gradientUnits="userSpaceOnUse">
<stop stop-color="#FFA53E"/>
<stop offset="1" stop-color="#FF7643"/>
</linearGradient>
<linearGradient id="paint24_linear" x1="353" y1="121" x2="359" y2="127" gradientUnits="userSpaceOnUse">
<stop stop-color="#FFA53E"/>
<stop offset="1" stop-color="#FF7643"/>
</linearGradient>
<linearGradient id="paint25_linear" x1="108.225" y1="106.1" x2="262.145" y2="244.628" gradientUnits="userSpaceOnUse">
<stop stop-color="#FF7643" stop-opacity="0.44"/>
<stop offset="1" stop-color="#FF7643"/>
</linearGradient>
</defs>
</svg>
