<svg width="375" height="416" viewBox="0 0 375 416" fill="none" xmlns="http://www.w3.org/2000/svg">
<g clip-path="url(#clip0)">
<rect y="-58" width="375" height="812" rx="20" fill="white"/>
<path d="M282.247 366.114C281.595 357.88 288.516 349.764 296.631 349.122C304.746 348.479 311.073 351.397 311.725 359.632C312.376 367.866 307.83 371.538 299.715 372.18C291.6 372.822 282.899 374.349 282.247 366.114Z" fill="#F89945"/>
<path d="M110.247 56.1145C109.595 47.8802 116.516 39.7641 124.631 39.1218C132.746 38.4795 139.073 41.3972 139.725 49.6315C140.376 57.8658 135.83 61.5377 127.715 62.1801C119.6 62.8224 110.899 64.3487 110.247 56.1145Z" fill="#F89945"/>
<path d="M310.649 66.0647C298.81 55.8315 297.886 35.0449 308.562 22.6942C319.238 10.3435 332.092 5.34621 343.93 15.5795C355.768 25.8127 354.176 37.2192 343.5 49.5699C332.824 61.9206 322.487 76.298 310.649 66.0647Z" fill="#FBDF6A" fill-opacity="0.21"/>
<path d="M357.908 292.366C351.936 297.782 341.568 297.311 336.264 291.462C330.959 285.612 329.464 279.012 335.436 273.596C341.408 268.18 346.937 269.48 352.242 275.33C357.546 281.179 363.88 286.951 357.908 292.366Z" fill="#FBD246"/>
<path d="M128.105 351.296C123.798 355.202 117.628 356.305 115.215 353.644C112.802 350.982 112.777 347.384 117.084 343.478C121.391 339.573 124.543 339.588 126.956 342.249C129.369 344.91 132.412 347.39 128.105 351.296Z" fill="#FF3333"/>
<path d="M114.818 340.94C53.7471 277.457 48.1608 171.184 102.354 119.05C156.547 66.9156 222.196 54.1914 283.267 117.674C344.338 181.157 336.648 237.415 282.455 289.549C228.262 341.684 175.889 404.423 114.818 340.94Z" fill="#FBDF6A" fill-opacity="0.21"/>
<path d="M126.649 279.243C124.252 279.773 125.044 283.065 126.485 283.065H138.52V277.842L126.649 279.243Z" fill="#15152D"/>
<path d="M146.221 233.612C146.221 233.612 145.344 232.945 142.156 233.505C139.433 233.985 133.948 238.855 133.006 241.875C132.255 244.281 132.91 245.851 132.91 245.851L146.221 233.612Z" fill="#FBC821"/>
<path d="M140.628 236.085C139.876 236.696 139.068 236.942 138.823 236.634C138.578 236.326 138.989 235.582 139.742 234.97C140.494 234.359 141.302 234.113 141.547 234.421C141.792 234.729 141.38 235.474 140.628 236.085Z" fill="white"/>
<path d="M144.412 233.281C144.253 233.281 144.081 233.285 143.896 233.296V233.296C144.082 233.287 144.255 233.282 144.415 233.282C145.739 233.282 146.189 233.591 146.218 233.612L146.22 233.61C146.221 233.61 145.782 233.281 144.412 233.281Z" fill="#DFAC7E"/>
<path d="M133.74 240.364C133.405 240.895 133.15 241.405 133.005 241.872C132.729 242.756 132.643 243.527 132.644 244.149C132.643 243.527 132.729 242.758 133.005 241.875C133.15 241.408 133.405 240.896 133.741 240.364H133.74Z" fill="#DBA97C"/>
<path d="M144.416 233.281C144.256 233.281 144.084 233.285 143.897 233.296C143.23 234.685 141.805 236.325 139.895 237.749C137.654 239.421 135.328 240.364 133.761 240.364C133.755 240.364 133.748 240.364 133.742 240.364C133.406 240.897 133.151 241.409 133.006 241.876C132.73 242.758 132.644 243.528 132.645 244.149C132.648 245.221 132.91 245.849 132.91 245.849L146.219 233.612C146.19 233.59 145.739 233.281 144.416 233.281Z" fill="#F6A515"/>
<path d="M159.294 307C171.186 307 180.827 297.553 180.827 285.9C180.827 274.248 171.186 264.801 159.294 264.801C147.402 264.801 137.762 274.248 137.762 285.9C137.762 297.553 147.402 307 159.294 307Z" fill="#0E0B2D"/>
<path d="M159.294 299.605C167.221 299.605 173.648 293.307 173.648 285.54C173.648 277.772 167.221 271.475 159.294 271.475C151.367 271.475 144.94 277.772 144.94 285.54C144.94 293.307 151.367 299.605 159.294 299.605Z" fill="#F0F1F2"/>
<path d="M159.007 296.715C165.103 296.715 170.044 291.873 170.044 285.9C170.044 279.928 165.103 275.086 159.007 275.086C152.912 275.086 147.97 279.928 147.97 285.9C147.97 291.873 152.912 296.715 159.007 296.715Z" fill="#827EBA"/>
<path d="M164.042 285.54C164.042 288.264 161.788 290.473 159.007 290.473C156.226 290.473 153.972 288.265 153.972 285.54C153.972 282.815 156.226 280.607 159.007 280.607C161.788 280.607 164.042 282.815 164.042 285.54Z" fill="#F0F1F2"/>
<path d="M286.436 307C298.328 307 307.969 297.553 307.969 285.9C307.969 274.248 298.328 264.801 286.436 264.801C274.544 264.801 264.904 274.248 264.904 285.9C264.904 297.553 274.544 307 286.436 307Z" fill="#0E0B2D"/>
<path d="M300.79 285.54C300.79 293.307 294.364 299.605 286.436 299.605C278.509 299.605 272.083 293.307 272.083 285.54C272.083 277.772 278.509 271.475 286.436 271.475C294.364 271.475 300.79 277.772 300.79 285.54Z" fill="#F0F1F2"/>
<path d="M286.15 296.715C292.245 296.715 297.186 291.873 297.186 285.9C297.186 279.928 292.245 275.086 286.15 275.086C280.054 275.086 275.113 279.928 275.113 285.9C275.113 291.873 280.054 296.715 286.15 296.715Z" fill="#827EBA"/>
<path d="M291.184 285.54C291.184 288.264 288.93 290.473 286.149 290.473C283.368 290.473 281.115 288.265 281.115 285.54C281.115 282.815 283.368 280.607 286.149 280.607C288.93 280.607 291.184 282.815 291.184 285.54Z" fill="#F0F1F2"/>
<path d="M149.594 234.538C149.594 234.538 147.508 233.029 146.1 233.66L132.909 245.85C132.623 248.317 133.998 250 133.998 250C133.998 250 149.522 247.307 149.594 234.538Z" fill="#0E0B2D"/>
<path d="M281.452 236.729C266.476 215.114 256.083 207.862 256.083 207.862C256.083 207.862 255.58 208.805 253.138 209.458C250.696 210.112 249.476 209.894 249.476 209.894C249.476 209.894 255.924 226.661 257.172 241.897C258.154 253.879 255.077 266.047 252.205 270.545C249.332 275.043 245.372 276.412 240.201 277.137C235.03 277.863 210.062 279.769 205.69 266.969C200.722 252.424 204.893 244.218 210.249 240.714C214.991 237.613 214.991 234.414 214.991 234.414C214.991 234.414 150.662 230.206 149.513 234.414C148.364 238.622 142.476 245.006 135.15 249.069C127.825 253.131 122.224 266.858 124.522 271.995C127.047 277.64 132.126 277.165 132.126 277.165L189.585 269.818C189.585 269.818 189.369 278.56 192.062 281.281C194.754 284.001 217.268 284.872 226.317 284.872C235.365 284.872 252.23 283.738 255.785 282.106C255.785 282.106 258.603 273.104 261.541 266.807C262.229 265.331 264.099 261.847 265.974 258.414C266.19 258.017 266.392 257.614 266.584 257.208L266.603 257.774L288.721 250.518C288.721 250.52 287.781 245.862 281.452 236.729Z" fill="#231B54"/>
<path d="M249.557 210.016C249.557 210.016 244.171 202.544 244.602 195.216C245.033 187.889 259.18 188.614 261.693 190.863C264.206 193.112 264.351 201.89 259.181 203.342C254.009 204.792 256.164 207.985 256.164 207.985C256.164 207.985 253.865 211.395 249.557 210.016Z" fill="#0E0B2D"/>
<path d="M250.727 194.736C249.652 194.526 247.378 195.246 244.942 196.043C244.938 196.096 244.931 196.149 244.928 196.203C244.796 198.454 245.308 201.598 246.264 203.853C248.981 203.129 250.982 201.834 252.049 200.784C254.601 198.273 254.097 195.394 250.727 194.736Z" fill="#060519"/>
<path d="M276.63 274.684C276.63 274.684 284.131 286.911 286.075 285.833C287.837 284.857 282.592 272.359 282.592 272.359C282.592 272.359 278.93 270.605 276.63 274.684Z" fill="#0E0B2D"/>
<path d="M169.793 277.842C169.793 277.842 156.605 283.266 157.331 285.383C157.989 287.301 171.064 284.169 171.064 284.169C171.064 284.169 173.388 280.816 169.793 277.842Z" fill="#0E0B2D"/>
<path d="M265.902 286.684C264.742 288.121 260.001 289.166 257.37 286.322C254.737 283.477 254.017 276.856 258.318 268.943C264.637 257.319 271.469 249.765 283.592 249.768C299.284 249.772 308.288 265.392 304.643 270.541C303.749 271.802 301.665 271.667 298.412 271.533C296.153 271.44 293.33 271.346 289.951 271.72C282.127 272.585 275.402 274.908 265.902 286.684Z" fill="#231B54"/>
<path d="M262.579 287.196C259.947 284.352 259.226 277.73 263.528 269.818C269.847 258.194 276.679 250.64 288.802 250.643C289.196 250.643 289.584 250.656 289.97 250.675C287.996 250.098 285.865 249.769 283.592 249.768C271.47 249.766 264.637 257.32 258.318 268.944C254.016 276.856 254.738 283.478 257.369 286.322C259.028 288.115 261.524 288.361 263.434 287.94C263.132 287.728 262.844 287.483 262.579 287.196Z" fill="#0E0B2D"/>
<path d="M214.404 275.087H247.699C247.699 275.087 246.169 278.288 231.655 278.314C214.701 278.344 214.404 275.087 214.404 275.087Z" fill="#0E0B2D"/>
<path d="M255.243 280.677C252.158 282.518 233.043 284.918 215.071 283.118C197.099 281.318 196.9 269.72 196.9 269.72C193.82 269.782 191.278 272.729 189.897 274.741C190.181 277.263 190.801 280.119 192.144 281.476C194.837 284.197 217.35 285.067 226.399 285.067C235.447 285.067 252.312 283.933 255.866 282.301C255.866 282.301 256.05 281.716 256.37 280.744C256.108 280.438 255.743 280.378 255.243 280.677Z" fill="#0E0B2D"/>
<path d="M134.454 282.976C132.471 282.835 130.842 281.329 130.543 279.344C130.22 277.202 130.16 273.919 131.065 269.127C134.026 253.457 158.18 241.792 174.266 242.664C190.352 243.535 193.973 252.989 195.984 263.525C197.995 274.061 197.511 279.506 191.08 282.767C185.929 285.38 145.565 283.772 134.454 282.976Z" fill="#231B54"/>
<path d="M136.053 273.644C139.014 257.973 163.168 246.309 179.254 247.179C184.304 247.453 188.125 248.572 191.055 250.306C187.923 246.066 182.884 243.135 174.266 242.668C158.18 241.798 134.026 253.462 131.065 269.133C130.16 273.924 130.22 277.207 130.543 279.349C130.843 281.335 132.471 282.839 134.455 282.981C134.757 283.002 135.085 283.025 135.429 283.048C135.207 280.916 135.255 277.867 136.053 273.644Z" fill="#0E0B2D"/>
<path d="M168.538 281.908C168.538 281.908 170.317 281.791 172.984 281.616C174.315 281.515 175.869 281.398 177.533 281.271C178.364 281.2 179.223 281.132 180.094 281.046C180.966 280.968 181.847 280.868 182.729 280.773C183.608 280.66 184.488 280.554 185.342 280.407C185.773 280.345 186.189 280.253 186.603 280.181C187.022 280.111 187.417 280.023 187.808 279.937L188.102 279.879C188.196 279.858 188.281 279.828 188.37 279.803L188.634 279.727L188.767 279.693L188.833 279.676L188.866 279.668L188.882 279.664L188.89 279.661C188.903 279.656 188.807 279.696 188.852 279.677C189.036 279.597 189.219 279.517 189.4 279.439C189.5 279.401 189.561 279.361 189.625 279.321L189.822 279.205C189.956 279.141 190.086 279.032 190.214 278.931C190.279 278.881 190.344 278.832 190.407 278.783C190.47 278.731 190.523 278.669 190.58 278.614C190.824 278.402 191.02 278.153 191.217 277.917C191.582 277.42 191.868 276.91 192.093 276.435C192.314 275.959 192.474 275.52 192.599 275.154C192.717 274.785 192.804 274.49 192.855 274.286C192.911 274.082 192.932 273.974 192.932 273.974L193.071 273.978C193.071 273.978 193.086 274.095 193.099 274.31C193.114 274.527 193.115 274.844 193.09 275.251C193.061 275.656 192.997 276.149 192.863 276.709C192.715 277.264 192.507 277.893 192.151 278.534C191.957 278.846 191.756 279.176 191.489 279.482C191.422 279.557 191.361 279.64 191.288 279.713C191.213 279.784 191.136 279.855 191.06 279.926C190.906 280.07 190.756 280.22 190.556 280.348C190.461 280.414 190.365 280.481 190.268 280.548C190.169 280.615 190.069 280.687 189.985 280.721C189.809 280.808 189.63 280.896 189.45 280.986L189.394 281.01L189.384 281.013L189.364 281.02L189.324 281.033L189.245 281.059L189.086 281.111C188.979 281.144 188.871 281.177 188.763 281.21C188.655 281.241 188.544 281.279 188.437 281.304C188.331 281.326 188.225 281.348 188.119 281.37C187.69 281.452 187.256 281.542 186.821 281.582C186.385 281.635 185.942 281.688 185.5 281.715C184.614 281.787 183.719 281.844 182.824 281.895C181.929 281.938 181.035 281.986 180.155 282.012C179.276 282.046 178.41 282.063 177.574 282.085C176.737 282.097 175.928 282.121 175.161 282.118C174.395 282.117 173.67 282.116 173 282.115C170.324 282.107 168.54 282.047 168.54 282.047L168.538 281.908Z" fill="#0E0B2D"/>
<path d="M142.3 274.271C142.3 274.271 142.39 274.25 142.557 274.21C142.724 274.177 142.97 274.114 143.283 274.063C143.595 274.007 143.975 273.934 144.409 273.877C144.843 273.813 145.333 273.743 145.867 273.693C146.133 273.664 146.412 273.636 146.7 273.605C146.987 273.575 147.285 273.562 147.59 273.539C148.201 273.499 148.846 273.449 149.512 273.431C149.845 273.415 150.184 273.411 150.526 273.405C150.869 273.396 151.216 273.392 151.565 273.395C152.264 273.39 152.973 273.41 153.682 273.425C154.391 273.454 155.101 273.48 155.797 273.528C156.495 273.57 157.18 273.627 157.843 273.693C158.507 273.752 159.148 273.843 159.755 273.921C160.362 273.991 160.936 274.09 161.466 274.18C161.996 274.262 162.48 274.364 162.91 274.454C163.34 274.536 163.714 274.633 164.023 274.708C164.33 274.778 164.572 274.856 164.738 274.899C164.903 274.949 164.991 274.976 164.991 274.976L164.987 275.117C164.987 275.117 163.568 275.087 161.441 275.044C159.313 274.987 156.477 274.91 153.64 274.833C150.804 274.733 147.969 274.633 145.841 274.558C143.715 274.469 142.298 274.41 142.298 274.41L142.3 274.271Z" fill="#0E0B2D"/>
<path d="M150.008 270.96C150.008 270.96 150.098 270.939 150.265 270.899C150.433 270.866 150.678 270.803 150.991 270.752C151.303 270.697 151.683 270.623 152.117 270.567C152.552 270.502 153.041 270.432 153.575 270.382C153.841 270.354 154.12 270.325 154.408 270.294C154.696 270.265 154.993 270.252 155.299 270.229C155.91 270.188 156.554 270.138 157.22 270.12C157.553 270.105 157.892 270.1 158.235 270.094C158.577 270.085 158.924 270.082 159.273 270.084C159.972 270.079 160.681 270.099 161.39 270.114C162.099 270.143 162.809 270.169 163.505 270.217C164.203 270.259 164.888 270.316 165.552 270.382C166.215 270.441 166.856 270.532 167.463 270.61C168.071 270.68 168.644 270.779 169.174 270.87C169.704 270.951 170.188 271.053 170.618 271.143C171.048 271.226 171.422 271.323 171.731 271.397C172.039 271.467 172.28 271.545 172.446 271.588C172.611 271.638 172.699 271.665 172.699 271.665L172.695 271.806C172.695 271.806 171.277 271.777 169.149 271.733C167.022 271.676 164.185 271.6 161.348 271.523C158.513 271.422 155.677 271.323 153.55 271.248C151.423 271.159 150.006 271.099 150.006 271.099L150.008 270.96Z" fill="#0E0B2D"/>
<path d="M146.318 267.528C146.318 267.528 146.407 267.507 146.575 267.467C146.742 267.434 146.988 267.371 147.3 267.32C147.612 267.264 147.992 267.191 148.426 267.134C148.861 267.07 149.351 267 149.884 266.95C150.151 266.921 150.43 266.893 150.717 266.862C151.005 266.832 151.302 266.819 151.608 266.796C152.219 266.755 152.864 266.706 153.53 266.688C153.863 266.672 154.201 266.668 154.544 266.662C154.886 266.653 155.233 266.649 155.582 266.652C156.281 266.647 156.99 266.666 157.7 266.682C158.408 266.711 159.118 266.737 159.815 266.785C160.512 266.827 161.197 266.884 161.861 266.95C162.524 267.009 163.165 267.1 163.772 267.178C164.38 267.248 164.954 267.347 165.483 267.437C166.013 267.519 166.497 267.621 166.927 267.711C167.357 267.793 167.731 267.89 168.04 267.965C168.348 268.035 168.59 268.112 168.755 268.156C168.92 268.206 169.008 268.233 169.008 268.233L169.004 268.374C169.004 268.374 167.586 268.344 165.458 268.301C163.331 268.244 160.494 268.167 157.658 268.09C154.822 267.99 151.986 267.89 149.859 267.815C147.733 267.726 146.315 267.667 146.315 267.667L146.318 267.528Z" fill="#0E0B2D"/>
<path d="M252.131 270.671C250.528 273.25 247.697 275.087 247.697 275.087C260.049 271.475 263.388 247.517 260.742 234.538C258.218 222.158 250.628 209.424 250.628 209.424L249.246 209.56C249.246 209.56 256.535 225.346 257.277 244.55C257.702 255.523 255.569 265.142 252.131 270.671Z" fill="#0E0B2D"/>
<path d="M149.594 234.538C149.594 234.538 147.942 228.06 152.61 224.599C157.601 220.899 208.731 221.926 213.255 226.014C216.615 229.049 215.071 234.538 215.071 234.538H149.594Z" fill="#736AAD"/>
<path d="M149.594 234.538L148.404 236.565C147.751 236.787 147.194 237.068 146.842 237.415C144.843 239.388 144.887 241.752 144.887 241.752C144.887 241.752 147.819 238.197 152.634 236.89C155.581 236.136 159.8 235.48 165.632 235.441C179.723 235.347 214.98 235.16 214.98 235.16L215.041 234.842L215.071 234.538H149.594Z" fill="#0E0B2D"/>
<path d="M174.466 223.244C173.988 223.298 173.881 224.047 174.267 224.377C176.606 226.375 184.122 230.914 192.511 230.914C200.569 230.914 205.302 229.175 209.542 226.081C209.979 225.761 210.053 225.145 209.54 225.058C204.014 224.115 190.978 221.371 174.466 223.244Z" fill="#443389"/>
<path d="M257.601 210.978C257.535 210.978 257.49 210.997 257.466 211.035C256.686 212.213 264.07 220.122 270.113 227.853C276.227 235.674 281.014 243.31 282.672 243.31C283.701 243.31 279.829 235.41 273.027 226.796C263.699 214.984 258.545 210.978 257.601 210.978Z" fill="#736AAD"/>
<path d="M295.865 255.89C295.569 255.89 295.347 255.983 295.229 256.182C294.981 256.599 296.377 258.504 298.332 261.179C300.659 264.363 301.364 265.826 302.262 265.826C302.299 265.826 302.336 265.823 302.374 265.818C303.53 265.667 303.041 262.222 301.068 259.56C299.484 257.424 297.067 255.89 295.865 255.89Z" fill="#736AAD"/>
<path d="M188.736 251.453C188.633 251.453 188.543 251.48 188.469 251.536C187.901 251.966 189.248 254.931 191.055 259.483C193.294 265.127 194.396 267.379 195.284 267.379C196.035 267.379 195.889 263.053 194.051 258.513C192.374 254.372 189.809 251.453 188.736 251.453Z" fill="#736AAD"/>
<path d="M148.952 270.946C148.952 271.261 148.296 271.514 147.487 271.514C146.678 271.514 146.022 271.26 146.022 270.946C146.022 270.633 146.678 270.378 147.487 270.378C148.296 270.378 148.952 270.632 148.952 270.946Z" fill="#0E0B2D"/>
<path d="M141.336 274.426C141.336 274.618 140.935 274.773 140.441 274.773C139.946 274.773 139.545 274.618 139.545 274.426C139.545 274.234 139.946 274.079 140.441 274.079C140.935 274.079 141.336 274.234 141.336 274.426Z" fill="#0E0B2D"/>
<path d="M171.782 268.708C171.748 268.897 171.326 268.978 170.839 268.889C170.353 268.8 169.986 268.575 170.02 268.386C170.054 268.197 170.476 268.117 170.962 268.205C171.449 268.294 171.816 268.52 171.782 268.708Z" fill="#26263F"/>
<path d="M263.048 200.959C263.022 201.004 262.995 201.049 262.968 201.093C262.995 201.049 263.022 201.004 263.048 200.959ZM263.068 200.927C263.064 200.934 263.06 200.94 263.056 200.947C263.06 200.94 263.064 200.934 263.068 200.927ZM263.085 200.897L263.084 200.899L263.085 200.897Z" fill="#E8B083"/>
<path d="M257.254 195.16C257.248 195.748 257.265 196.368 257.312 197.013C257.266 196.368 257.249 195.748 257.254 195.16ZM257.255 195.113C257.255 195.125 257.255 195.136 257.255 195.147C257.255 195.136 257.255 195.124 257.255 195.113Z" fill="#ED4F16"/>
<path d="M254.757 189.314C250.259 189.314 245.242 190.7 244.651 194.745C244.614 195.042 244.936 195.465 245.507 195.859C247.438 195.233 249.211 194.699 250.292 194.699C250.453 194.699 250.599 194.712 250.728 194.736C251.666 194.92 252.383 195.275 252.873 195.747C256.483 193.474 256.825 189.584 256.807 189.411C256.148 189.348 255.458 189.314 254.757 189.314Z" fill="#736AAD"/>
<path d="M250.292 194.699C249.211 194.699 247.437 195.233 245.507 195.859C246.307 196.41 247.596 196.901 249.081 196.901C250.032 196.901 251.063 196.7 252.096 196.183C252.37 196.046 252.629 195.9 252.872 195.747C252.382 195.275 251.665 194.92 250.727 194.736C250.599 194.711 250.453 194.699 250.292 194.699Z" fill="#060519"/>
<path d="M246.342 194.343C246.342 194.343 251.632 193.798 252.64 195.887C253.497 197.664 251.261 202.024 246.703 202.822C242.145 203.62 246.342 194.343 246.342 194.343Z" fill="#231B54"/>
<path d="M246.342 202.942C248.211 202.942 249.726 201.017 249.726 198.642C249.726 196.268 248.211 194.343 246.342 194.343C244.473 194.343 242.958 196.268 242.958 198.642C242.958 201.017 244.473 202.942 246.342 202.942Z" fill="#0E0B2D"/>
<path d="M229.969 260.853C229.969 260.853 230.294 267.558 231.25 270.739C232.206 273.92 232.226 274.95 232.226 274.95L243.222 275.197C243.222 275.197 243.397 274.829 242.568 273.812C241.739 272.796 236.703 271.983 235.755 271.252C234.74 270.466 235.26 262.126 235.26 262.126L229.969 260.853Z" fill="#FF8F6A"/>
<path d="M218.545 260.963C218.545 260.963 217.544 265.448 216.307 269.375C215.624 271.542 215.011 273.252 214.548 274.164C214.342 274.57 214.736 275.144 215.161 275.144H227.721C227.721 275.144 226.146 272.026 219.894 270.914L224.109 263.641L218.545 260.963Z" fill="#FF8F6A"/>
<path d="M242.917 215.853C242.917 215.853 249.008 217.599 248.734 220.712C248.362 224.941 236.095 245.86 230.714 253.347C225.333 260.834 222.139 268.958 222.139 268.958L216.063 266.33C216.063 266.33 222.475 239.009 226.678 231.363C226.678 231.363 219.953 231.522 211.377 226.425C202.803 221.327 242.917 215.853 242.917 215.853Z" fill="#0E0B2D"/>
<path d="M176.404 215.831C176.404 215.831 179.683 231.124 198.095 230.885C216.506 230.645 229.264 225.236 229.264 225.236C229.264 225.236 227.043 228.74 227.043 244.816C227.043 258.348 229.858 268.588 229.858 268.588H235.849C235.849 268.588 237.607 246.337 241.643 230.407C245.679 214.477 247.197 212.535 231.555 211.291C219.008 210.294 206.162 207.759 206.162 207.759L176.404 215.831Z" fill="#231B54"/>
<path d="M201.451 141.924C201.451 141.924 199.311 146.602 195.658 150.6C193.801 152.632 186.138 158.655 182.223 165.39C178.308 172.127 176.336 205.823 178.495 214.745L207.187 207.618L209.706 184.837C210.386 176.963 209.266 169.024 206.342 161.692C205.758 160.228 205.37 158.981 205.408 158.316C205.545 155.868 208.277 150.498 208.277 150.498L201.451 141.924Z" fill="#FF8F6A"/>
<path d="M198.322 139.81C198.322 139.81 198.466 142.403 201.371 143.439C204.275 144.474 205.653 141.219 203.802 137.928C201.95 134.637 199.152 136.111 198.757 136.947C198.363 137.783 198.322 139.81 198.322 139.81Z" fill="#FF8F6A"/>
<path d="M243.351 193.446C243.351 193.446 247.29 191.551 249.942 193.072C252.592 194.591 252.174 196.987 251.581 197.833C250.988 198.679 250.221 198.82 250.082 197.516C249.942 196.212 247.94 194.317 246.558 194.486C245.176 194.655 243.801 195.122 243.313 196.919C242.825 198.714 240.11 196.037 243.351 193.446Z" fill="#FF8F6A"/>
<path d="M190.919 213.051C190.524 212.593 189.772 212.438 188.801 212.496L182.52 214.2C180.301 215.057 178.133 216.059 176.668 216.77C177.72 220.058 182.424 231.114 198.101 230.911C204.573 230.827 210.345 230.103 215.111 229.201C196.457 228.643 190.919 213.051 190.919 213.051Z" fill="#0E0B2D"/>
<path d="M206.49 162.059C202.43 159.288 197.027 154.841 194.099 152.378C193.965 152.264 193.729 152.242 193.576 152.326C189.49 154.621 184.9 157.61 179 167.575C170.328 182.226 171.654 206.588 174.819 217.661C175.297 219.336 177.166 220.16 178.715 219.393C178.715 219.393 188.501 213.732 195.398 211.104C201.301 208.856 205.597 208.155 206.964 207.975C207.239 207.938 207.454 207.72 207.491 207.443L210.307 186.503C210.688 179.189 209.334 168.934 206.537 162.177C206.523 162.138 206.507 162.099 206.49 162.059Z" fill="#FBC821"/>
<path d="M228.435 261.681C228.435 261.681 230.598 267.136 233.016 267.136C235.434 267.136 236.231 264.409 236.231 264.409L235.849 268.59H229.858C229.858 268.589 228.91 264.88 228.435 261.681Z" fill="#0E0B2D"/>
<path d="M200.972 143.005C200.972 143.005 199.159 145.852 198.547 146.954V146.967C198.495 147.04 193.777 152.275 193.777 152.275L195.044 153.164C195.044 153.164 198.24 147.567 201.483 150.017C203.692 151.685 205.862 152.823 207.194 152.823C207.712 151.674 207.796 151.579 207.796 151.579L200.972 143.005Z" fill="#EF6E4B"/>
<path d="M200.797 137.32C199.096 137.396 198.465 139.373 198.717 140.45C198.717 140.45 198.006 136.318 200.527 135.861C204.7 135.103 203.991 140.121 203.991 140.121C203.991 140.121 203.345 137.206 200.797 137.32Z" fill="#EF6E4B"/>
<path d="M218.012 147.039C218.92 146.979 219.571 146.689 219.941 146.473C220.165 146.341 220.278 146.08 220.216 145.825C219.833 144.244 218.631 141.726 218.529 140.023C218.508 139.669 218.614 139.324 218.793 139.019C219.507 137.803 219.987 136.452 220.173 135.007C220.397 133.743 220.293 132.604 220.065 131.664C219.06 126.462 215.156 121.731 207.904 121.065C200.729 120.406 194.455 126.053 194.211 132.487C193.901 140.712 200.475 143.962 200.413 144.385C200.222 145.679 199.236 146.534 201.726 149.154C204.456 152.027 211.745 154.801 213.777 154.092C216.727 153.063 217.585 147.068 218.012 147.039Z" fill="#FF8F6A"/>
<path d="M206.391 140.394C206.391 140.394 208.357 138.627 208.433 133.352C208.436 133.146 208.636 133.006 208.824 133.084C210.157 133.644 214.508 135.021 220.178 132.22C220.178 132.22 206.512 127.169 204.534 129.796C202.557 132.424 206.391 140.394 206.391 140.394Z" fill="#EF6E4B"/>
<path d="M232.637 265.191C232.57 265.191 232.512 265.142 232.5 265.074C232.422 264.608 232.348 264.144 232.279 263.682C232.268 263.606 232.321 263.534 232.397 263.521C232.472 263.51 232.544 263.563 232.556 263.64C232.625 264.1 232.698 264.562 232.776 265.026C232.789 265.103 232.738 265.176 232.662 265.189L232.637 265.191ZM232.22 262.41C232.152 262.41 232.092 262.359 232.082 262.288C232.02 261.819 231.963 261.354 231.909 260.89C231.9 260.812 231.955 260.743 232.032 260.734C232.107 260.725 232.178 260.781 232.187 260.858C232.24 261.32 232.298 261.785 232.359 262.251C232.37 262.329 232.316 262.399 232.24 262.409L232.22 262.41ZM231.9 259.616C231.828 259.616 231.768 259.562 231.761 259.489C231.714 259.019 231.673 258.551 231.636 258.086C231.63 258.008 231.687 257.94 231.764 257.934C231.841 257.928 231.908 257.985 231.914 258.063C231.951 258.526 231.992 258.993 232.039 259.461C232.046 259.539 231.99 259.607 231.913 259.616L231.9 259.616ZM231.675 256.814C231.602 256.814 231.541 256.756 231.536 256.681C231.506 256.209 231.481 255.741 231.459 255.275C231.455 255.197 231.515 255.131 231.592 255.127C231.666 255.123 231.734 255.183 231.737 255.261C231.759 255.725 231.784 256.192 231.814 256.662C231.819 256.74 231.761 256.807 231.684 256.812L231.675 256.814ZM231.545 254.003C231.47 254.003 231.407 253.943 231.405 253.867C231.39 253.394 231.381 252.925 231.375 252.459C231.374 252.381 231.436 252.316 231.512 252.316H231.514C231.59 252.316 231.652 252.378 231.654 252.454C231.66 252.919 231.67 253.387 231.684 253.858C231.686 253.936 231.626 254.001 231.549 254.003H231.545ZM231.508 251.191C231.431 251.191 231.369 251.128 231.369 251.05C231.37 250.577 231.376 250.107 231.385 249.641C231.386 249.563 231.442 249.5 231.527 249.503C231.604 249.505 231.665 249.569 231.664 249.647C231.655 250.111 231.649 250.58 231.647 251.052C231.648 251.129 231.585 251.191 231.508 251.191ZM231.563 248.377H231.559C231.482 248.375 231.421 248.309 231.424 248.231C231.441 247.757 231.462 247.288 231.485 246.823C231.489 246.745 231.55 246.685 231.631 246.689C231.708 246.694 231.768 246.76 231.764 246.837C231.74 247.301 231.72 247.769 231.703 248.241C231.7 248.318 231.638 248.377 231.563 248.377ZM231.707 245.566H231.698C231.621 245.561 231.563 245.493 231.567 245.416C231.599 244.942 231.634 244.474 231.672 244.01C231.679 243.932 231.756 243.875 231.823 243.881C231.9 243.887 231.957 243.955 231.95 244.033C231.912 244.495 231.878 244.962 231.846 245.434C231.841 245.509 231.78 245.566 231.707 245.566ZM231.938 242.761L231.924 242.76C231.847 242.753 231.791 242.683 231.799 242.606C231.845 242.133 231.894 241.666 231.946 241.204C231.955 241.126 232.023 241.071 232.1 241.08C232.177 241.089 232.232 241.158 232.223 241.236C232.171 241.696 232.122 242.161 232.076 242.633C232.069 242.707 232.009 242.761 231.938 242.761ZM232.254 239.964L232.236 239.963C232.159 239.953 232.105 239.882 232.115 239.805C232.176 239.333 232.238 238.867 232.304 238.408C232.314 238.331 232.385 238.278 232.462 238.289C232.538 238.3 232.591 238.371 232.58 238.448C232.515 238.905 232.452 239.37 232.393 239.841C232.382 239.912 232.322 239.964 232.254 239.964ZM232.648 237.177L232.626 237.175C232.55 237.163 232.498 237.091 232.51 237.015C232.583 236.543 232.659 236.08 232.737 235.623C232.75 235.547 232.821 235.494 232.898 235.508C232.974 235.521 233.025 235.594 233.012 235.671C232.935 236.125 232.859 236.588 232.786 237.058C232.775 237.128 232.716 237.177 232.648 237.177ZM233.121 234.403L233.095 234.4C233.019 234.386 232.969 234.312 232.983 234.236C233.07 233.765 233.158 233.304 233.247 232.852C233.262 232.776 233.337 232.727 233.411 232.742C233.486 232.758 233.535 232.832 233.521 232.908C233.432 233.358 233.344 233.819 233.257 234.288C233.245 234.355 233.186 234.403 233.121 234.403ZM233.665 231.641L233.636 231.638C233.561 231.622 233.513 231.548 233.529 231.471C233.627 231 233.727 230.541 233.826 230.093C233.843 230.018 233.918 229.97 233.993 229.987C234.068 230.004 234.116 230.079 234.099 230.155C233.999 230.6 233.9 231.059 233.802 231.529C233.787 231.596 233.729 231.641 233.665 231.641ZM234.275 228.894L234.243 228.89C234.168 228.872 234.122 228.796 234.14 228.72C234.25 228.247 234.359 227.79 234.466 227.35C234.485 227.275 234.559 227.229 234.635 227.247C234.71 227.265 234.756 227.341 234.737 227.417C234.63 227.856 234.521 228.313 234.411 228.785C234.395 228.85 234.338 228.894 234.275 228.894ZM234.937 226.159L234.903 226.155C234.828 226.136 234.783 226.059 234.802 225.983C234.922 225.504 235.038 225.049 235.147 224.618C235.166 224.543 235.242 224.498 235.316 224.517C235.391 224.537 235.436 224.613 235.417 224.689C235.308 225.118 235.192 225.574 235.072 226.053C235.057 226.117 235 226.159 234.937 226.159ZM235.626 223.43L235.592 223.426C235.518 223.407 235.472 223.33 235.491 223.254C235.616 222.749 235.728 222.294 235.819 221.889C235.836 221.813 235.908 221.765 235.986 221.783C236.062 221.8 236.108 221.876 236.091 221.952C235.999 222.359 235.889 222.817 235.763 223.323C235.746 223.387 235.688 223.43 235.626 223.43ZM236.212 220.678L236.196 220.677C236.119 220.668 236.064 220.598 236.073 220.521C236.09 220.374 236.099 220.245 236.099 220.138C236.099 219.894 236.054 219.805 236.028 219.775C235.948 219.683 235.819 219.603 235.645 219.538C235.572 219.511 235.535 219.43 235.562 219.356C235.589 219.284 235.67 219.246 235.742 219.273C235.964 219.355 236.126 219.459 236.239 219.59C236.334 219.7 236.378 219.875 236.378 220.138C236.378 220.257 236.369 220.396 236.35 220.553C236.341 220.625 236.281 220.678 236.212 220.678ZM211.092 220.576L210.679 220.575C210.602 220.575 210.54 220.512 210.54 220.434C210.54 220.356 210.603 220.294 210.68 220.294H210.681L211.093 220.294C211.422 220.294 211.748 220.293 212.073 220.29H212.074C212.151 220.29 212.213 220.352 212.214 220.43C212.214 220.507 212.152 220.571 212.075 220.572C211.748 220.574 211.421 220.576 211.092 220.576ZM209.287 220.559H209.283C208.816 220.547 208.347 220.526 207.887 220.497C207.81 220.492 207.751 220.425 207.756 220.347C207.761 220.27 207.828 220.209 207.904 220.215C208.36 220.244 208.826 220.265 209.29 220.277C209.367 220.279 209.428 220.344 209.426 220.422C209.425 220.499 209.362 220.559 209.287 220.559ZM213.466 220.553C213.39 220.553 213.327 220.492 213.326 220.415C213.324 220.338 213.386 220.273 213.462 220.272C213.931 220.263 214.395 220.251 214.853 220.238C214.936 220.233 214.995 220.297 214.997 220.375C214.999 220.453 214.939 220.518 214.861 220.521C214.401 220.534 213.937 220.545 213.467 220.554H213.466V220.553ZM216.25 220.472C216.176 220.472 216.114 220.413 216.111 220.337C216.107 220.259 216.168 220.193 216.245 220.191C216.714 220.173 217.177 220.152 217.636 220.13C217.711 220.128 217.778 220.187 217.781 220.264C217.785 220.342 217.725 220.408 217.649 220.412C217.19 220.434 216.726 220.454 216.255 220.472H216.25ZM206.507 220.383L206.493 220.382C206.028 220.334 205.562 220.276 205.105 220.21C205.029 220.2 204.976 220.128 204.986 220.051C204.997 219.974 205.067 219.92 205.144 219.932C205.596 219.997 206.06 220.054 206.52 220.102C206.597 220.11 206.653 220.178 206.645 220.256C206.639 220.328 206.578 220.383 206.507 220.383ZM219.034 220.338C218.96 220.338 218.899 220.281 218.895 220.205C218.891 220.128 218.949 220.061 219.026 220.057C219.497 220.03 219.96 220.002 220.416 219.972C220.496 219.966 220.56 220.026 220.564 220.103C220.569 220.181 220.511 220.248 220.434 220.253C219.977 220.282 219.513 220.311 219.043 220.338L219.034 220.338ZM221.815 220.159C221.742 220.159 221.68 220.103 221.676 220.028C221.67 219.951 221.728 219.883 221.805 219.878C222.277 219.845 222.74 219.809 223.193 219.774C223.263 219.769 223.337 219.827 223.343 219.904C223.348 219.982 223.291 220.049 223.214 220.055C222.76 220.09 222.296 220.125 221.824 220.159H221.815ZM203.751 219.983L203.725 219.981C203.264 219.894 202.804 219.796 202.356 219.691C202.281 219.673 202.234 219.598 202.252 219.522C202.269 219.446 202.344 219.399 202.419 219.417C202.863 219.521 203.319 219.618 203.776 219.704C203.852 219.719 203.901 219.792 203.887 219.868C203.875 219.936 203.817 219.983 203.751 219.983ZM224.593 219.944C224.521 219.944 224.46 219.889 224.454 219.814C224.448 219.737 224.505 219.669 224.582 219.662C225.056 219.623 225.519 219.584 225.97 219.546C226.044 219.539 226.114 219.596 226.12 219.675C226.127 219.752 226.07 219.821 225.994 219.827C225.543 219.866 225.08 219.905 224.605 219.944H224.593ZM227.37 219.707C227.298 219.707 227.237 219.652 227.231 219.578C227.224 219.501 227.281 219.432 227.358 219.426C227.837 219.384 228.3 219.345 228.746 219.307C228.816 219.3 228.89 219.358 228.896 219.436C228.903 219.514 228.846 219.582 228.769 219.588C228.323 219.626 227.86 219.665 227.381 219.707L227.37 219.707ZM230.147 219.478C230.075 219.478 230.013 219.422 230.008 219.347C230.002 219.27 230.059 219.202 230.136 219.196C230.627 219.159 231.091 219.126 231.529 219.1C231.605 219.094 231.672 219.155 231.677 219.232C231.681 219.31 231.622 219.377 231.546 219.382C231.109 219.408 230.646 219.44 230.158 219.478H230.147ZM201.039 219.343L201.001 219.338C200.552 219.209 200.102 219.069 199.664 218.92C199.591 218.896 199.551 218.816 199.576 218.742C199.6 218.668 199.679 218.628 199.753 218.653C200.187 218.799 200.632 218.938 201.077 219.066C201.152 219.087 201.194 219.164 201.173 219.24C201.156 219.302 201.101 219.343 201.039 219.343ZM234.322 219.325H234.315C233.911 219.305 233.45 219.304 232.933 219.318C232.852 219.325 232.792 219.258 232.79 219.181C232.789 219.103 232.849 219.038 232.926 219.036C233.454 219.022 233.931 219.024 234.33 219.044C234.406 219.048 234.465 219.114 234.462 219.191C234.458 219.266 234.396 219.325 234.322 219.325ZM198.4 218.448L198.349 218.438C197.913 218.265 197.479 218.079 197.06 217.886C196.99 217.853 196.959 217.77 196.99 217.699C197.023 217.628 197.105 217.597 197.176 217.629C197.591 217.82 198.02 218.003 198.452 218.175C198.524 218.203 198.559 218.285 198.531 218.358C198.508 218.413 198.456 218.448 198.4 218.448ZM195.866 217.28L195.802 217.264C195.386 217.044 194.976 216.811 194.581 216.57C194.514 216.53 194.493 216.443 194.533 216.376C194.572 216.31 194.657 216.287 194.724 216.328C195.115 216.566 195.52 216.796 195.932 217.014C196 217.05 196.026 217.136 195.991 217.204C195.965 217.252 195.916 217.28 195.866 217.28ZM193.482 215.827C193.455 215.827 193.427 215.819 193.403 215.801C193.01 215.527 192.632 215.242 192.277 214.955C192.217 214.906 192.208 214.818 192.256 214.756C192.305 214.696 192.393 214.686 192.453 214.734C192.802 215.018 193.175 215.299 193.561 215.569C193.625 215.613 193.641 215.701 193.597 215.765C193.57 215.806 193.526 215.827 193.482 215.827Z" fill="#0E0B2D"/>
<path d="M262.298 292.366C262.298 292.366 261.416 292.45 260.093 292.546C259.432 292.597 258.66 292.658 257.833 292.71C257.007 292.769 256.125 292.811 255.243 292.859C254.362 292.9 253.48 293.02 252.653 293.03C251.826 293.03 251.055 292.955 250.393 292.862C250.063 292.814 249.76 292.76 249.491 292.708C249.222 292.653 248.988 292.6 248.795 292.549C248.409 292.448 248.189 292.367 248.189 292.367C248.15 292.353 248.13 292.31 248.144 292.27L248.189 292.226C248.189 292.226 248.409 292.144 248.795 292.044C248.988 291.992 249.222 291.939 249.491 291.884C249.759 291.833 250.062 291.777 250.393 291.731C251.055 291.638 251.826 291.563 252.653 291.563C253.48 291.572 254.362 291.692 255.243 291.733C256.125 291.782 257.007 291.824 257.833 291.883C258.66 291.934 259.431 291.995 260.093 292.046C261.415 292.142 262.298 292.226 262.298 292.226C262.336 292.23 262.365 292.265 262.361 292.304C262.357 292.337 262.33 292.363 262.298 292.366Z" fill="white"/>
<path d="M204.675 193.594L203.619 191.389C203.619 191.389 191.763 194.473 182.761 195.9C181.837 191.938 181.329 187.407 181.715 182.369C182.601 170.795 187.711 159.83 195.042 153.166C194.71 152.888 194.391 152.621 194.103 152.379C193.968 152.265 193.733 152.242 193.58 152.327C189.494 154.621 185.031 158.069 179.132 168.035C170.459 182.685 171.658 206.589 174.823 217.662C175.301 219.337 177.17 220.161 178.719 219.394C178.719 219.394 184.255 216.072 190.912 213.026C190.912 213.026 186.24 207.717 183.51 198.702C186.365 198.535 189.885 198.174 193.621 197.417C202.64 195.589 204.675 193.594 204.675 193.594Z" fill="#F6A515"/>
<path d="M225.088 124.142C222.841 118.283 216.517 116.133 207.058 118.462C205.862 117.539 200.934 114.203 195.655 117.269C194.644 117.857 193.907 118.608 193.371 119.426C193.29 119.4 193.24 119.387 193.24 119.387C193.262 119.436 193.279 119.483 193.299 119.532C191.361 122.611 192.209 126.591 192.209 126.591C192.209 126.591 191.411 126.191 190.524 126.058C189.537 125.91 188.447 126.041 188.383 126.304C188.351 126.433 189.839 126.819 189.839 127.843C189.839 129.295 185.684 129.386 185.826 134.273C185.968 139.16 191.307 140.181 191.307 140.181C191.307 140.181 192.028 148.025 198.27 147.675C199.572 147.602 200.276 146.538 200.728 145.763C201.155 145.031 201.056 144.1 200.503 143.461C199.556 142.368 198.316 140.482 198.972 138.628C200.103 135.433 204.771 137.087 203.879 140.276C203.352 142.163 203.629 142.633 204.994 141.702C206.909 140.395 207.729 138.29 207.335 134.09C207.125 131.856 206.805 131.13 210.285 132.277C213.874 133.461 218.449 133.339 222.158 131.34C225.867 129.339 225.474 125.148 225.088 124.142Z" fill="#231B54"/>
<path d="M192.91 155.293C192.91 155.293 199.256 155.978 205.425 160.36C209.536 163.281 213.84 169.041 214.308 174.45C215.264 185.473 208.867 194.564 191.459 196.733C176.393 198.611 170.349 197.566 170.349 197.566L174.482 190.416C174.482 190.416 184.64 194.389 196.816 190.082C209.458 185.611 211.689 178.156 211.182 174.728C210.051 167.053 203.75 157.604 191.074 158.178L192.91 155.293Z" fill="#736AAD"/>
<path d="M190.087 168.767C189.727 162.38 197.52 158.66 202.599 161.129C207.477 163.502 209.792 169.643 213.39 176.683C220.831 191.242 220.421 191.151 221.91 191.661C223.399 192.17 243.403 193.36 243.403 193.36C243.403 193.36 242.091 194.655 241.963 197.269C241.859 199.41 222.422 201.849 216.282 199.453C211.327 197.52 190.907 183.282 190.087 168.767Z" fill="#FBC821"/>
<path d="M215.97 198.631C206.36 195.158 200.208 183.318 199.844 183.76C199.548 184.119 201.495 189.86 203.402 193.054C205.778 197.035 208.48 200.096 208.48 200.096C208.48 200.096 208.702 198.577 208.854 197.315C211.301 199.416 214.535 200.591 216.823 201.074C226.196 203.05 243.064 199.045 243.314 196.918C243.427 195.949 242.129 195.784 242.36 195.189C237.599 199.183 224.272 201.63 215.97 198.631Z" fill="#F6A515"/>
<path d="M208.506 199.469C208.503 199.498 208.5 199.522 208.497 199.543C208.5 199.521 208.502 199.498 208.506 199.469Z" fill="#DD2613"/>
<path d="M208.497 199.54L208.493 199.575L208.497 199.54Z" fill="#DD2613"/>
<path d="M152.489 135.085L192.177 153.381C192.938 153.732 193.274 154.64 192.926 155.409L173.767 197.748C173.419 198.519 172.516 198.857 171.754 198.501L131.629 179.749C130.866 179.391 130.536 178.474 130.895 177.706L150.491 135.823C150.845 135.067 151.735 134.738 152.489 135.085Z" fill="#736AAD"/>
<path d="M192.177 153.381L152.489 135.085C151.735 134.738 150.845 135.067 150.491 135.823L149.955 136.969C149.955 136.969 166.285 150.282 168.893 151.434C171.5 152.587 192.38 156.617 192.38 156.617L192.926 155.409C193.274 154.64 192.938 153.732 192.177 153.381ZM169.686 150.634C168.919 150.465 168.395 149.88 168.514 149.329C168.634 148.778 169.352 148.468 170.118 148.637C170.884 148.806 171.409 149.39 171.29 149.942C171.171 150.493 170.452 150.803 169.686 150.634Z" fill="#443389"/>
<path d="M190.125 161.599C190.125 161.599 190.125 161.6 190.124 161.6L182.021 179.508V179.509L190.125 161.599Z" fill="#FC6022"/>
<path d="M182.021 179.508L176.775 191.102L182.021 179.509V179.508Z" fill="#ED4F16"/>
<path d="M176.775 191.102L173.768 197.748C173.757 197.773 173.745 197.798 173.732 197.822C173.739 197.823 173.746 197.824 173.753 197.825C174.354 197.844 175.04 197.856 175.814 197.856C177.714 197.856 180.146 197.783 183.164 197.564C185.217 197.415 187.596 197.282 190.208 196.959C193.583 196.543 195.889 195.984 195.889 195.984C195.765 195.985 195.64 195.976 195.517 195.985C180.355 197.191 177.984 194.278 176.76 191.135L176.775 191.102Z" fill="#443389"/>
<path d="M173.733 197.823H173.731V197.825L173.733 197.823Z" fill="#FCA328"/>
<path d="M190.124 161.6C190.016 161.771 177.24 181.943 154.975 181.943C153.705 181.943 152.407 181.878 151.075 181.739C144.221 181.025 136.708 178.658 132.53 174.21L130.895 177.705C130.796 177.915 130.75 178.136 130.749 178.354C130.748 178.933 131.073 179.488 131.629 179.748L171.754 198.5C171.958 198.595 172.174 198.639 172.387 198.639C172.532 198.639 172.676 198.618 172.812 198.581C173.195 198.468 173.533 198.205 173.73 197.823L173.731 197.822L173.732 197.821C173.745 197.796 173.756 197.772 173.768 197.747L176.775 191.101L182.021 179.507L190.124 161.6Z" fill="#443389"/>
<path d="M257.807 189.531C257.807 189.531 256.885 191.898 256.809 195.666C256.734 199.434 258.311 203.627 258.311 203.627C258.311 203.627 260.167 203.928 262.578 201.607C264.99 199.286 264.612 193.614 262.691 191.594C260.769 189.574 257.981 189.523 257.807 189.531Z" fill="#FBC821"/>
<path d="M262.736 199.083C259.829 199.083 257.421 196.855 256.915 193.921C256.864 194.466 256.822 195.038 256.809 195.666C256.734 199.434 258.311 203.627 258.311 203.627C258.311 203.627 260.167 203.929 262.578 201.607C263.268 200.942 263.707 199.992 263.969 198.943C263.571 199.032 263.159 199.083 262.736 199.083Z" fill="#F6A515"/>
<path d="M262.725 195.756C263.214 195.494 263.104 194.316 262.478 193.127C261.852 191.938 260.948 191.187 260.459 191.45C259.969 191.713 260.08 192.89 260.705 194.079C261.331 195.268 262.235 196.019 262.725 195.756Z" fill="white"/>
<path d="M235.974 269.269C236.113 269.233 236.258 269.286 236.338 269.41C236.654 269.899 236.928 271.012 238.705 271.706C240.862 272.547 241.872 272.306 242.475 272.761C242.821 273.023 243.158 274.285 243.335 275.052C243.406 275.356 243.184 275.647 242.884 275.643L229.395 275.43C228.591 274.812 229.948 269.671 230.474 269.498C230.999 269.325 231.114 270.345 233.145 270.407C234.523 270.449 235.326 269.439 235.974 269.269Z" fill="#736AAD"/>
<path d="M229.386 275.43L240.021 275.598C236.958 274.989 234.571 272.907 233.951 270.299C233.702 270.369 233.435 270.416 233.136 270.407C231.104 270.345 230.997 269.324 230.472 269.498C229.946 269.671 228.581 274.812 229.386 275.43ZM231.1 272.084C231.437 271.884 231.92 272.106 232.18 272.579C232.44 273.053 232.379 273.599 232.043 273.8C231.707 274 231.223 273.779 230.963 273.305C230.703 272.831 230.764 272.284 231.1 272.084Z" fill="#443389"/>
<path d="M238.256 273.264C238.256 273.264 238.323 273.108 238.424 272.873C238.451 272.822 238.47 272.765 238.5 272.712C238.524 272.658 238.555 272.606 238.584 272.558C238.614 272.51 238.645 272.467 238.676 272.43C238.692 272.413 238.709 272.396 238.722 272.376C238.74 272.362 238.758 272.35 238.774 272.335C238.787 272.316 238.808 272.307 238.828 272.296C238.849 272.286 238.864 272.267 238.885 272.257C238.935 272.245 238.974 272.209 239.03 272.195C239.086 272.182 239.138 272.156 239.195 272.142C239.253 272.132 239.31 272.118 239.365 272.102C239.474 272.069 239.576 272.059 239.649 272.035C239.723 272.014 239.739 271.959 239.681 271.907C239.651 271.88 239.615 271.847 239.571 271.817C239.527 271.784 239.477 271.745 239.415 271.72C239.353 271.693 239.285 271.666 239.211 271.641C239.135 271.621 239.047 271.616 238.957 271.609C238.868 271.603 238.765 271.631 238.666 271.653C238.569 271.693 238.463 271.737 238.379 271.812C238.337 271.85 238.295 271.889 238.256 271.929C238.222 271.973 238.193 272.022 238.164 272.067C238.131 272.112 238.116 272.163 238.097 272.211C238.08 272.259 238.059 272.307 238.054 272.354C238.033 272.448 238.025 272.538 238.029 272.621C238.027 272.704 238.045 272.779 238.056 272.848C238.092 272.984 238.137 273.089 238.181 273.158C238.222 273.229 238.256 273.264 238.256 273.264Z" fill="white"/>
<path d="M237.153 272.823C237.153 272.823 237.22 272.666 237.321 272.432C237.347 272.38 237.367 272.323 237.397 272.271C237.421 272.216 237.452 272.165 237.481 272.116C237.511 272.068 237.541 272.025 237.573 271.988C237.589 271.971 237.606 271.955 237.619 271.934C237.637 271.92 237.654 271.908 237.671 271.893C237.684 271.875 237.705 271.865 237.725 271.854C237.746 271.844 237.76 271.826 237.782 271.815C237.832 271.803 237.871 271.767 237.927 271.753C237.983 271.74 238.035 271.715 238.092 271.701C238.15 271.69 238.206 271.676 238.261 271.661C238.371 271.627 238.472 271.617 238.546 271.593C238.619 271.573 238.636 271.517 238.577 271.465C238.548 271.439 238.512 271.405 238.467 271.375C238.424 271.342 238.374 271.303 238.311 271.279C238.25 271.252 238.182 271.225 238.108 271.199C238.032 271.179 237.944 271.174 237.854 271.168C237.764 271.161 237.662 271.189 237.563 271.211C237.466 271.251 237.36 271.295 237.275 271.37C237.233 271.408 237.191 271.448 237.153 271.488C237.119 271.532 237.09 271.58 237.06 271.626C237.027 271.671 237.013 271.721 236.994 271.769C236.976 271.818 236.956 271.865 236.951 271.912C236.93 272.006 236.922 272.097 236.926 272.179C236.924 272.263 236.942 272.338 236.953 272.406C236.989 272.543 237.034 272.647 237.077 272.716C237.119 272.787 237.153 272.823 237.153 272.823Z" fill="white"/>
<path d="M236.053 272.084C236.053 272.084 236.138 271.937 236.264 271.716C236.297 271.669 236.323 271.614 236.358 271.566C236.389 271.515 236.424 271.468 236.459 271.423C236.494 271.379 236.53 271.34 236.565 271.307C236.584 271.292 236.602 271.278 236.617 271.26C236.636 271.248 236.655 271.238 236.673 271.226C236.689 271.208 236.711 271.202 236.732 271.194C236.753 271.187 236.77 271.17 236.793 271.162C236.844 271.156 236.887 271.125 236.944 271.119C237.001 271.113 237.056 271.094 237.114 271.087C237.173 271.083 237.231 271.076 237.287 271.068C237.4 271.048 237.501 271.052 237.577 271.036C237.652 271.025 237.675 270.972 237.623 270.913C237.596 270.883 237.565 270.846 237.524 270.81C237.485 270.772 237.439 270.727 237.38 270.696C237.323 270.661 237.258 270.625 237.187 270.592C237.115 270.563 237.027 270.546 236.939 270.529C236.851 270.511 236.746 270.527 236.646 270.536C236.545 270.563 236.435 270.594 236.342 270.658C236.296 270.691 236.25 270.724 236.206 270.76C236.167 270.8 236.133 270.844 236.099 270.886C236.061 270.927 236.041 270.975 236.016 271.02C235.993 271.065 235.968 271.11 235.956 271.156C235.925 271.247 235.907 271.336 235.902 271.418C235.891 271.501 235.899 271.577 235.903 271.647C235.923 271.786 235.956 271.896 235.991 271.97C236.023 272.045 236.053 272.084 236.053 272.084Z" fill="white"/>
<path d="M243.235 274.645C243.399 274.999 243.4 275.523 243.258 275.649C242.978 275.899 229.393 275.43 229.393 275.43C229.225 275.302 229.206 274.944 229.137 274.497L243.235 274.645Z" fill="#443389"/>
<path d="M237.35 274.592C238.15 275.051 239.039 275.517 240.01 275.709C240.01 275.709 229.477 275.507 229.328 275.429C229.144 275.331 229.087 274.895 229.137 274.497L237.35 274.592Z" fill="#231B54"/>
<path d="M221.241 269.167C221.38 269.133 221.525 269.187 221.603 269.313C221.913 269.807 222.176 270.923 223.945 271.639C226.091 272.509 227.104 272.281 227.702 272.745C228.045 273.011 228.368 274.277 228.537 275.047C228.604 275.352 228.378 275.64 228.079 275.631L214.593 275.241C213.796 274.612 215.212 269.489 215.739 269.323C216.266 269.157 216.37 270.179 218.4 270.268C219.777 270.327 220.591 269.328 221.241 269.167Z" fill="#736AAD"/>
<path d="M214.584 275.24L225.217 275.548C222.161 274.899 219.798 272.786 219.208 270.169C218.958 270.236 218.69 270.279 218.392 270.266C216.361 270.177 216.265 269.156 215.738 269.322C215.21 269.489 213.786 274.612 214.584 275.24ZM216.336 271.917C216.675 271.721 217.156 271.949 217.41 272.426C217.665 272.903 217.597 273.449 217.258 273.645C216.92 273.841 216.439 273.613 216.184 273.136C215.93 272.659 215.998 272.113 216.336 271.917Z" fill="#443389"/>
<path d="M223.478 273.192C223.478 273.192 223.546 273.036 223.651 272.803C223.678 272.752 223.698 272.695 223.728 272.644C223.753 272.589 223.784 272.538 223.814 272.49C223.845 272.443 223.876 272.4 223.908 272.364C223.925 272.347 223.942 272.33 223.955 272.311C223.972 272.298 223.99 272.285 224.007 272.27C224.02 272.252 224.042 272.242 224.061 272.231C224.082 272.222 224.098 272.204 224.119 272.193C224.17 272.182 224.208 272.146 224.265 272.133C224.321 272.121 224.373 272.097 224.431 272.083C224.489 272.073 224.546 272.06 224.601 272.045C224.712 272.013 224.813 272.005 224.886 271.981C224.96 271.961 224.977 271.906 224.919 271.853C224.89 271.826 224.855 271.792 224.81 271.761C224.767 271.728 224.717 271.688 224.656 271.663C224.595 271.635 224.528 271.608 224.453 271.582C224.378 271.56 224.29 271.554 224.2 271.546C224.111 271.538 224.008 271.565 223.909 271.586C223.812 271.624 223.706 271.667 223.619 271.742C223.576 271.779 223.534 271.817 223.495 271.857C223.461 271.902 223.431 271.949 223.401 271.995C223.368 272.04 223.353 272.089 223.333 272.138C223.315 272.186 223.294 272.232 223.288 272.28C223.266 272.373 223.257 272.463 223.26 272.546C223.258 272.629 223.275 272.704 223.285 272.774C223.319 272.91 223.364 273.015 223.407 273.085C223.444 273.156 223.478 273.192 223.478 273.192Z" fill="white"/>
<path d="M222.38 272.735C222.38 272.735 222.448 272.58 222.552 272.347C222.58 272.295 222.599 272.239 222.63 272.187C222.655 272.133 222.686 272.082 222.716 272.034C222.746 271.986 222.778 271.943 222.809 271.907C222.826 271.89 222.843 271.874 222.856 271.854C222.874 271.841 222.892 271.828 222.909 271.813C222.922 271.795 222.944 271.786 222.963 271.775C222.984 271.766 222.999 271.747 223.021 271.737C223.071 271.725 223.11 271.689 223.167 271.677C223.222 271.665 223.275 271.64 223.332 271.626C223.391 271.617 223.448 271.604 223.503 271.589C223.614 271.557 223.715 271.549 223.788 271.524C223.862 271.505 223.879 271.45 223.821 271.396C223.792 271.37 223.757 271.336 223.712 271.305C223.669 271.271 223.619 271.231 223.558 271.207C223.497 271.179 223.429 271.151 223.355 271.125C223.28 271.104 223.192 271.097 223.102 271.09C223.012 271.082 222.91 271.109 222.811 271.129C222.713 271.168 222.607 271.211 222.521 271.285C222.478 271.323 222.436 271.361 222.397 271.401C222.363 271.445 222.333 271.493 222.303 271.538C222.27 271.583 222.254 271.633 222.235 271.681C222.216 271.729 222.196 271.776 222.19 271.823C222.168 271.917 222.159 272.007 222.162 272.089C222.16 272.173 222.177 272.248 222.187 272.317C222.221 272.454 222.266 272.559 222.308 272.629C222.346 272.7 222.38 272.735 222.38 272.735Z" fill="white"/>
<path d="M221.288 271.982C221.288 271.982 221.374 271.836 221.504 271.618C221.537 271.571 221.563 271.517 221.599 271.47C221.63 271.418 221.667 271.372 221.702 271.328C221.737 271.285 221.773 271.246 221.809 271.214C221.828 271.199 221.846 271.186 221.862 271.168C221.881 271.156 221.9 271.146 221.918 271.134C221.933 271.118 221.955 271.11 221.976 271.103C221.998 271.097 222.015 271.079 222.039 271.072C222.089 271.067 222.132 271.036 222.19 271.03C222.246 271.025 222.301 271.008 222.36 271.001C222.419 270.999 222.477 270.992 222.534 270.985C222.647 270.967 222.748 270.971 222.824 270.956C222.899 270.946 222.923 270.893 222.871 270.833C222.845 270.803 222.814 270.765 222.773 270.728C222.733 270.69 222.69 270.644 222.631 270.612C222.573 270.576 222.51 270.54 222.439 270.505C222.366 270.474 222.279 270.457 222.191 270.439C222.103 270.421 221.998 270.434 221.898 270.442C221.796 270.468 221.686 270.497 221.592 270.56C221.546 270.593 221.499 270.625 221.456 270.661C221.417 270.7 221.381 270.743 221.347 270.785C221.309 270.825 221.288 270.873 221.263 270.918C221.239 270.963 221.213 271.008 221.202 271.053C221.17 271.144 221.15 271.232 221.144 271.315C221.132 271.397 221.14 271.474 221.143 271.543C221.161 271.683 221.193 271.793 221.228 271.868C221.259 271.943 221.288 271.982 221.288 271.982Z" fill="white"/>
<path d="M228.441 274.637C228.601 274.993 228.595 275.518 228.453 275.642C228.169 275.887 214.591 275.24 214.591 275.24C214.425 275.109 214.41 274.751 214.345 274.304L228.441 274.637Z" fill="#443389"/>
<path d="M222.557 274.507C223.351 274.976 224.235 275.455 225.203 275.66C225.203 275.66 214.674 275.318 214.526 275.238C214.342 275.139 214.292 274.703 214.346 274.304L222.557 274.507Z" fill="#231B54"/>
<path d="M32.1474 115.248C51.2748 134.376 47.5873 173.005 24.7439 195.848C1.90054 218.692 -30.6621 219.8 -42.1697 208.724C-53.6773 197.649 -55.4114 168.42 -32.5681 145.576C-9.7247 122.733 13.0201 96.1211 32.1474 115.248Z" fill="#FBDF6A" fill-opacity="0.21"/>
</g>
<defs>
<clipPath id="clip0">
<rect y="-58" width="375" height="812" rx="20" fill="white"/>
</clipPath>
</defs>
</svg>
