<svg width="375" height="416" viewBox="0 0 375 416" fill="none" xmlns="http://www.w3.org/2000/svg">
<g clip-path="url(#clip0)">
<rect y="-58" width="375" height="812" rx="20" fill="white"/>
<path d="M8.84875 277.797C1.30544 182.496 81.4074 88.5637 175.328 81.1297C269.248 73.6956 342.467 107.465 350.011 202.765C357.554 298.066 304.935 340.564 211.015 347.998C117.095 355.432 16.3921 373.097 8.84875 277.797Z" fill="#FBDF6A" fill-opacity="0.21"/>
<path d="M245.264 122.894C244.612 114.66 251.533 106.544 259.648 105.901C267.763 105.259 274.089 108.177 274.741 116.411C275.393 124.645 270.846 128.317 262.731 128.96C254.616 129.602 245.915 131.128 245.264 122.894Z" fill="#F89945"/>
<path d="M15.6515 93.9405C3.81317 83.7072 2.88875 62.9206 13.5649 50.5699C24.2411 38.2192 37.0945 33.2219 48.9328 43.4552C60.7711 53.6884 59.1792 65.095 48.503 77.4457C37.8268 89.7964 27.4898 104.174 15.6515 93.9405Z" fill="#FBDF6A" fill-opacity="0.21"/>
<path d="M361.79 335.124C372.855 346.189 368.689 370.569 353.279 385.978C337.87 401.388 317.415 403.646 310.737 397.26C304.059 390.874 304.377 372.644 319.787 357.235C335.196 341.825 350.725 324.059 361.79 335.124Z" fill="#FBDF6A" fill-opacity="0.21"/>
<path d="M62.3234 279.524C56.3513 284.94 45.9833 284.469 40.6789 278.619C35.3745 272.77 33.879 266.169 39.8511 260.754C45.8232 255.338 51.3525 256.638 56.6569 262.487C61.9613 268.337 68.2955 274.108 62.3234 279.524Z" fill="#FBD246"/>
<path d="M195.95 247.146C195.95 247.146 192.216 258.956 193.812 262.581C195.408 266.206 238.177 294.917 271.45 299.122C271.942 299.18 272.439 299.134 272.912 298.987C273.385 298.84 273.822 298.595 274.195 298.268C276.94 295.868 283.467 289.842 284.377 285.959C285.542 281.029 260.12 287.038 195.95 247.146Z" fill="#F89945"/>
<path d="M205.147 261.596C208.349 265.105 212.926 263.359 215.711 266.643C218.496 269.927 219.025 270.872 222.834 270.183C223.538 270.055 224.162 270.76 224.611 271.144C228.18 274.124 230.165 275.79 235.703 276.303C236.866 276.287 237.998 276.678 238.904 277.408C241.682 279.418 245.093 280.357 248.507 280.051C248.749 280.04 248.99 280.084 249.212 280.179C251.597 281.317 251.821 283.191 254.014 284.793C257.391 287.212 260.512 289.423 264.401 286.684C265.03 286.351 265.755 286.249 266.45 286.395C270.484 287.1 269.923 291.554 275.189 289.599C277.91 288.622 278.743 291.025 280.183 292.146C282.037 290.347 283.469 288.158 284.377 285.738C285.545 280.836 260.048 286.812 195.688 247.146C194.712 250.295 193.952 253.506 193.415 256.758C195.4 260.956 202.394 258.617 205.147 261.596Z" fill="#D77124"/>
<path opacity="0.55" d="M247.192 287.418C244.043 282.989 239.937 276.603 239.58 270.858C224.984 264.612 210.851 257.357 197.287 249.146C197.287 249.146 194.317 258.775 195.859 261.84C197.092 264.279 223.448 281.401 249.415 290.146C248.587 289.264 247.873 288.365 247.192 287.418Z" fill="#CD4200"/>
<path d="M244.047 243.258C244.047 243.258 205.896 230.461 202.355 233.66C198.813 236.859 196.189 245.065 198.008 248.537C199.827 252.008 236.513 269.044 242.325 272.244C264.603 284.529 282.294 282.833 283.293 283.137C284.291 283.441 293.885 276.147 290.81 267.301C287.945 258.998 250.55 246.761 244.047 243.258Z" fill="#BE5B2A"/>
<path d="M245.736 264.942C242.591 260.647 240.096 255.916 238.33 250.9C237.457 247.507 236.85 244.053 236.514 240.568C228.481 238.056 215.918 234.298 208.351 233.146C204.512 240.711 204.19 248.213 208.866 255.538C220.561 262.127 237.944 270.652 242.169 271.948C244.049 272.523 248.354 273.691 253.415 275.146C250.615 271.931 248.049 268.521 245.736 264.942Z" fill="#AE4D25"/>
<path d="M228.873 245.384C234.85 247.975 239.385 252.069 244.689 255.748C249.121 258.622 253.326 261.83 257.267 265.345C260.36 268.304 265.535 277.517 270.086 274.574C273.499 272.335 277.617 272.526 281.463 271.999C284.734 271.493 288.068 271.558 291.317 272.191C291.544 270.527 291.374 268.834 290.821 267.248C287.969 258.995 250.761 246.759 244.272 243.256C244.272 243.256 206.296 230.461 202.771 233.66C201.835 234.554 201.041 235.584 200.415 236.715C210.446 237.866 219.515 241.257 228.873 245.384Z" fill="#953E25"/>
<path d="M196.433 247.152C199.279 247.108 202.122 247.336 204.924 247.832C207.892 248.56 214.404 254.605 222.479 256.789C230.555 258.973 227.986 263.309 237.45 265.572C246.914 267.835 247.744 272.25 250.967 272.629C254.191 273.009 262.043 277.456 263.607 278.738C265.171 280.02 277.476 278.5 280.541 280.811C283.605 283.121 288.281 281.697 288.393 283.438C288.504 285.178 288.393 289.103 283.222 287.932C278.051 286.761 275.019 287.441 273.359 285.542C271.699 283.643 257.271 284.704 256.681 282.156C256.09 279.608 251.079 277.567 246.531 276.19C241.982 274.813 240.993 272.677 235.359 271.443C229.725 270.208 223.453 264.701 220.708 264.78C217.963 264.859 210.494 262.533 209.44 260.175C208.387 257.818 202.849 254.083 200.902 254.21C198.955 254.336 196.162 248.339 196.433 247.152Z" fill="#7BB027"/>
<path d="M202.284 245.812C202.284 245.684 202.284 245.539 202.46 245.716C202.983 245.593 203.521 245.55 204.057 245.588V245.443C204.711 245.556 205.446 245.443 206.069 245.443C206.062 245.406 206.062 245.368 206.069 245.331C207.396 245.834 208.75 246.262 210.125 246.614C211.354 247.272 212.616 249.053 210.987 249.984C210.236 250.401 209.39 250.112 209.071 251.139C209.003 251.534 209.021 251.939 209.122 252.327C209.224 252.714 209.408 253.075 209.661 253.385C211.191 254.595 212.929 255.514 214.787 256.096C216.209 256.594 219.115 257.701 220.057 255.888C220.44 255.422 219.77 254.7 219.929 254.091C220.051 253.755 220.266 253.461 220.549 253.245C220.832 253.029 221.172 252.899 221.526 252.871C222.314 253.187 223.142 253.392 223.985 253.481C224.965 253.976 225.992 254.369 227.051 254.652C227.922 255.092 228.764 255.585 229.574 256.128C229.989 256.658 230.389 257.316 230.836 257.733C231.283 258.15 231.411 259.61 230.644 260.252C230.181 260.637 229.494 260.38 229.047 260.476C228.493 260.643 227.957 260.869 227.45 261.15C227.383 261.423 227.374 261.707 227.423 261.983C227.473 262.26 227.58 262.523 227.738 262.754C227.882 262.899 227.977 262.915 228.089 263.188C230.181 263.91 231.874 265.658 234.029 266.156C234.147 266.279 234.293 266.371 234.455 266.424C234.616 266.477 234.788 266.49 234.956 266.461C235.419 266.754 235.925 266.97 236.457 267.102V266.942C236.507 267.016 236.58 267.073 236.664 267.102C236.68 267.075 236.688 267.045 236.688 267.014C236.688 266.983 236.68 266.953 236.664 266.926C238.261 266.926 236.169 264.776 235.978 264.247C235.291 262.418 237.574 262.642 238.74 262.899C241.678 263.685 245.718 265.354 247.363 268.177C247.227 268.718 246.889 269.186 246.42 269.484C245.95 269.783 245.385 269.889 244.84 269.782C244.505 269.942 243.802 270.07 243.371 270.295C243.371 270.295 243.211 270.648 243.148 270.744C243.294 270.99 243.471 271.217 243.674 271.418C244.042 272.108 245.271 272.397 245.766 272.637C245.859 272.703 245.961 272.751 246.07 272.782C246.332 272.966 246.617 273.117 246.916 273.231V273.071C247.331 273.279 248.194 273.391 248.513 272.782C249.79 272.076 248.736 269.3 251.116 270.279C252.473 270.824 253.974 272.349 255.427 271.482C256.481 271.643 257.28 271.595 258.046 272.365C258.525 274.707 256.577 274.803 254.852 275.573L254.677 275.67C254.677 275.862 254.533 276.055 254.469 276.247C254.405 276.44 254.549 276.456 254.565 276.568C254.581 276.527 254.581 276.481 254.565 276.44C254.741 277.114 256.162 278.205 256.705 278.044C257.966 279.504 260.473 277.579 261.783 276.905C262.644 276.385 263.567 275.975 264.529 275.686C265.599 275.445 266.222 276.023 267.116 275.975C268.196 276.736 269.003 277.828 269.416 279.087C269.719 280.13 269.416 281.814 270.789 282.103C274.286 284.574 278.486 278.894 282.079 278.782C282.314 278.756 282.552 278.776 282.779 278.842C283.006 278.909 283.218 279.02 283.402 279.169C283.586 279.318 283.739 279.503 283.852 279.712C283.965 279.921 284.035 280.15 284.059 280.387C284.187 281.301 283.516 282.087 283.628 282.97C283.664 283.185 283.743 283.392 283.861 283.575C283.979 283.759 284.134 283.917 284.315 284.039C284.495 284.16 284.699 284.244 284.913 284.283C285.128 284.323 285.348 284.318 285.56 284.269C286.566 284.061 286.885 283.018 287.7 282.585C288.164 282.315 288.703 282.203 289.235 282.268C289.768 282.332 290.265 282.568 290.652 282.941C291.04 283.314 291.296 283.803 291.382 284.335C291.469 284.866 291.382 285.412 291.133 285.89C290.501 286.76 289.694 287.487 288.764 288.024C287.834 288.56 286.802 288.893 285.736 289.002C284.624 289.797 283.282 290.197 281.919 290.141C281.562 290.08 281.223 289.936 280.931 289.721C280.638 289.507 280.398 289.227 280.231 288.903C280.064 288.58 279.974 288.222 279.968 287.858C279.961 287.494 280.039 287.133 280.195 286.804C280.61 285.601 281.712 283.964 280.706 282.921C280.454 282.742 280.17 282.615 279.869 282.546C279.568 282.477 279.257 282.469 278.953 282.521C278.649 282.573 278.358 282.685 278.097 282.85C277.836 283.015 277.61 283.23 277.432 283.483C276.667 284.266 276.007 285.145 275.468 286.098C274.866 286.902 274.131 287.597 273.296 288.152C273.057 288.152 273.041 288.152 272.945 288.264C270.118 288.264 268.362 285.424 268.713 282.52C268.266 281.349 267.691 278.814 266.014 280.916C265.529 281.658 265.158 282.469 264.913 283.323C264.457 284.031 264.051 284.771 263.699 285.537C262.965 286.05 262.105 286.352 261.213 286.409C260.32 286.465 259.429 286.275 258.637 285.857C256.609 284.94 254.849 283.515 253.527 281.718C252.409 280.354 251.435 279.312 252.681 277.691C253.032 277.21 253.958 276.408 253.942 275.702C253.91 275.299 253.728 274.923 253.432 274.649C253.136 274.376 252.748 274.224 252.345 274.226C250.413 273.279 249.711 275.83 248.705 277.001C248.021 277.693 247.137 278.151 246.18 278.309C245.222 278.468 244.24 278.319 243.371 277.884C242.014 277.386 237.878 275.525 238.852 273.616C239.267 272.766 240.561 272.718 241.072 272.012C241.302 271.549 241.374 271.023 241.276 270.515C241.178 270.007 240.915 269.546 240.529 269.204C240.018 268.61 237.702 267.215 237.702 268.771C237.495 269.172 237.702 269.862 237.59 270.375C237.393 270.899 237.227 271.435 237.095 271.98C236.409 272.268 236.01 273.103 235.499 273.488C234.855 273.981 234.085 274.281 233.279 274.354C233.099 274.331 232.916 274.331 232.736 274.354C230.41 273.389 228.339 271.895 226.684 269.99C226.098 269.343 225.638 268.593 225.327 267.776C225.119 266.733 225.981 265.995 225.949 264.968C225.949 263.22 222.899 260.845 222.277 263.364C221.973 264.648 222.66 265.546 222.021 266.846C221.606 267.664 221.127 268.45 220.105 268.45V268.546C215.187 267.856 220.217 262.401 217.374 260.38C216.464 259.738 214.069 258.968 213.031 259.578C211.434 260.508 213.398 262.434 211.434 263.236L211.051 263.107C208.959 262.674 206.26 260.54 206.611 258.054C206.755 257.091 207.857 256.449 207.873 255.535C207.69 254.658 207.175 253.887 206.436 253.385C206.214 253.103 205.919 252.89 205.584 252.768C205.248 252.646 204.885 252.621 204.536 252.695C203.466 252.871 203.45 253.481 203.498 254.46C203.625 256.786 203.37 257.973 201.214 259.161C200.301 259.044 199.421 258.742 198.628 258.273C197.834 257.805 197.144 257.178 196.599 256.433C195.865 255.15 196.599 252.968 196.599 251.62C196.424 250.593 194.252 249.791 193.406 249.599C189.845 247.465 191.346 241.464 195.657 243.598C197.153 244.633 198.366 246.029 199.186 247.657C199.985 248.78 201.981 250.866 203.242 248.973C204.248 247.497 202.252 246.871 202.348 245.523C202.444 245.539 202.06 245.844 202.284 245.812Z" fill="#9FCC29"/>
<path d="M217.823 227.524C217.823 227.524 203.813 225.767 197.415 229.834L197.831 232.413C197.831 232.413 220.35 236.59 234.825 245.83C249.299 255.071 264.285 266.748 268.3 271.146C268.3 271.146 285.189 263.235 299.279 270.529L300.415 268.14C297.93 264.35 294.57 261.199 290.611 258.947C284.485 255.656 239.863 242.428 217.823 227.524Z" fill="#FFCF08"/>
<path d="M274.697 266.675C271.498 267.205 268.875 267.784 268.875 267.784C254.481 256.01 243.829 246.873 232.234 241.372C221.106 236.031 209.43 231.931 197.415 229.146L197.831 231.768C197.831 231.768 220.35 236.015 234.825 245.409C249.299 254.803 264.285 266.675 268.3 271.146C268.3 271.146 285.189 263.103 299.279 270.519L300.415 268.09C288.532 262.975 278.903 265.951 274.697 266.675Z" fill="#EFA708"/>
<path d="M294.292 253.123C294.732 253.635 295.055 254.234 295.239 254.88C295.423 255.525 295.463 256.202 295.358 256.865C294.776 258.68 292.612 261.896 291.417 262.135C288.832 262.629 242.379 246.787 209.558 227.107C209.558 227.107 208.702 226.009 211.174 219.146C211.174 219.146 219.508 227.521 256.302 243.029C285.489 255.241 294.292 253.123 294.292 253.123Z" fill="#E72124"/>
<g style="mix-blend-mode:multiply" opacity="0.55">
<path d="M251.77 245.543C259.271 248.684 266.929 251.437 274.716 253.79C281.58 256.099 287.517 257.898 294.381 256.831C294.458 256.188 294.403 255.536 294.219 254.915C294.034 254.293 293.725 253.716 293.309 253.217C293.309 253.217 284.589 255.271 255.723 243.028C219.272 227.584 211.015 219.146 211.015 219.146C210.325 220.95 209.79 222.809 209.415 224.703C221.912 234.303 237.625 239.095 251.77 245.543Z" fill="#C42124"/>
</g>
<path d="M267.723 206.674C259.947 203.144 251.747 200.631 243.327 199.197C237.67 198.071 231.871 197.848 226.144 198.538C220.963 199.255 216.14 201.584 212.36 205.195C210.736 207.019 209.563 209.199 208.937 211.559C208.31 213.919 208.247 216.392 208.753 218.781C210.363 227.157 281.717 257.465 294.922 255.005C294.922 255.005 300.51 252.464 301.363 244.522C301.766 240.358 299.753 235.357 297.724 231.82C294.36 226.284 290.042 221.385 284.97 217.35C279.709 213.06 273.911 209.471 267.723 206.674Z" fill="#F89945"/>
<path d="M282.4 243.288C271.004 241.7 261.642 236.126 251.296 231.553C240.659 226.789 229.295 222.883 219.788 216.087C215.575 213.054 212.718 210.084 212.072 206.146C210.55 207.939 209.461 210.048 208.885 212.314C208.309 214.58 208.262 216.944 208.747 219.231C210.361 227.504 281.884 257.436 295.12 255.007C296.891 254.01 298.39 252.605 299.486 250.912C300.583 249.219 301.245 247.289 301.415 245.289C295.152 245.971 289.18 244.288 282.4 243.288Z" fill="#E8761F"/>
<g style="mix-blend-mode:screen" opacity="0.32">
<path d="M268.21 210.835C266.229 208.931 260.12 205.141 257.839 208.46C255.875 211.324 261.268 214.747 263.099 215.76C265.18 216.93 268.759 218.101 270.058 215.935C271.04 214.276 269.858 212.389 268.21 210.835Z" fill="#FDE5C1"/>
</g>
<g style="mix-blend-mode:screen" opacity="0.32">
<path d="M281.586 225.385C276.756 222.487 270.982 220.147 265.852 221.58C261.636 222.726 263.697 225.974 266.01 228.107C269.61 231.496 273.848 234.117 278.471 235.812C281.523 236.847 287.046 238.742 288.32 234.539C288.447 233.897 288.447 233.235 288.32 232.593C288.193 231.951 287.942 231.341 287.581 230.797C285.921 228.642 283.89 226.809 281.586 225.385Z" fill="#FDE5C1"/>
</g>
<path d="M245.415 208.584C245.415 209.428 244.347 210.146 242.967 210.146C241.588 210.146 240.445 209.553 240.416 208.709C240.386 207.865 241.499 207.146 242.878 207.146C244.258 207.146 245.4 207.756 245.415 208.584Z" fill="#FBD198"/>
<path d="M260.415 228.592C260.415 229.431 259.115 230.146 257.46 230.146C255.804 230.146 254.433 229.54 254.415 228.701C254.397 227.861 255.715 227.146 257.371 227.146C259.026 227.146 260.379 227.721 260.415 228.592Z" fill="#FBD198"/>
<path d="M277.415 234.584C277.415 235.428 276.347 236.146 274.952 236.146C273.558 236.146 272.445 235.537 272.416 234.709C272.386 233.881 273.499 233.146 274.878 233.146C276.258 233.146 277.4 233.756 277.415 234.584Z" fill="#FBD198"/>
<path d="M231.415 207.584C231.415 208.428 230.347 209.146 228.967 209.146C227.588 209.146 226.445 208.537 226.416 207.709C226.386 206.881 227.499 206.146 228.878 206.146C230.258 206.146 231.4 206.693 231.415 207.584Z" fill="#FBD198"/>
<path d="M296.415 236.584C296.415 237.428 295.133 238.146 293.46 238.146C291.787 238.146 290.451 237.537 290.416 236.709C290.38 235.881 291.715 235.146 293.371 235.146C295.026 235.146 296.326 235.771 296.415 236.584Z" fill="#FBD198"/>
<path d="M267.038 226.915C266.408 227.506 265.149 226.915 264.259 225.715C263.368 224.516 263.138 222.969 263.783 222.378C264.428 221.787 265.671 222.378 266.577 223.577C267.483 224.777 267.682 226.341 267.038 226.915Z" fill="#FBD198"/>
<path d="M284.389 229.224C284.154 229.998 282.577 230.349 281 230.027C279.423 229.706 278.209 228.844 278.444 228.069C278.68 227.295 280.257 226.944 281.834 227.265C283.411 227.587 284.607 228.464 284.389 229.224Z" fill="#FBD198"/>
<path d="M240.072 219.962C239.422 220.433 238.171 219.962 237.259 219.005C236.347 218.049 236.146 216.802 236.795 216.331C237.444 215.859 238.696 216.331 239.592 217.301C240.489 218.271 240.659 219.491 240.072 219.962Z" fill="#FBD198"/>
<path d="M253.082 220.987C252.474 221.471 251.226 220.815 250.306 219.519C249.387 218.223 249.14 216.789 249.748 216.305C250.356 215.822 251.604 216.478 252.524 217.774C253.443 219.07 253.69 220.504 253.082 220.987Z" fill="#FBD198"/>
<path d="M225.233 213.85C224.704 214.426 223.259 214.138 221.972 213.194C220.685 212.25 220.086 211.018 220.597 210.443C221.108 209.867 222.571 210.155 223.858 211.098C225.145 212.042 225.744 213.274 225.233 213.85Z" fill="#FBD198"/>
<path d="M277.02 219.984C276.361 220.408 275.111 219.984 274.222 218.91C273.333 217.835 273.152 216.733 273.811 216.309C274.469 215.885 275.719 216.309 276.608 217.383C277.497 218.457 277.678 219.56 277.02 219.984Z" fill="#FBD198"/>
<path d="M292.03 229.944C291.372 230.474 290.121 229.944 289.233 228.601C288.344 227.258 288.146 225.879 288.805 225.349C289.463 224.819 290.73 225.349 291.602 226.692C292.474 228.035 292.688 229.413 292.03 229.944Z" fill="#FBD198"/>
<path d="M253.02 207.944C252.361 208.472 251.111 207.944 250.222 206.606C249.333 205.268 249.152 203.877 249.811 203.348C250.469 202.82 251.719 203.348 252.608 204.687C253.497 206.025 253.678 207.416 253.02 207.944Z" fill="#FBD198"/>
<g style="mix-blend-mode:multiply" opacity="0.35">
<path d="M301.334 243.24C289.201 243.524 275.554 239.338 264.904 235.5C257.202 232.736 248.792 229.734 242.54 224.332C236.289 218.93 233.469 211.854 238.077 204.525C239.28 202.673 240.943 201.151 242.911 200.102C237.389 199.061 231.736 198.869 226.154 199.533C220.97 200.238 216.144 202.526 212.362 206.073C210.737 207.865 209.564 210.007 208.937 212.325C208.31 214.643 208.247 217.074 208.753 219.42C210.364 227.649 281.757 257.424 294.969 255.007C294.969 255.007 300.56 252.512 301.414 244.709C301.42 244.218 301.393 243.727 301.334 243.24Z" fill="#D48745"/>
</g>
<g style="mix-blend-mode:multiply" opacity="0.32">
<path d="M254.863 233.442L251.028 231.667C240.678 226.978 229.662 222.908 220.303 216.395C216.127 213.496 213.283 210.696 212.487 207.146C211.112 208.698 210.154 210.575 209.705 212.601C209.256 214.627 209.33 216.734 209.92 218.723C211.041 222.94 233.642 234.338 255.415 243.146C254.79 239.952 254.604 236.687 254.863 233.442Z" fill="#BA773D"/>
</g>
<path d="M182.415 289.8C182.415 289.8 145.577 259.266 126.063 267.607C106.549 275.947 99.0778 279.322 94.7145 289.591C92.0418 295.858 90.3673 316.911 88.9505 323.741C87.5336 330.57 82.5102 345.516 103.86 342.848C125.209 340.181 161.13 290.041 182.415 289.8Z" fill="#F89945"/>
<g style="mix-blend-mode:multiply" opacity="0.35">
<path d="M143.799 267.163H142.834H142.705C142.576 267.51 142.334 267.801 142.018 267.99C141.702 268.178 141.331 268.252 140.967 268.199C134.805 267.568 130.67 268.992 124.765 271.079C121.901 272.083 117.186 274.833 114.033 274.073C113.912 274.024 113.798 273.959 113.695 273.879C112.987 274.073 112.279 274.251 111.603 274.494C106.374 276.257 105.167 278.798 102.818 283.668C101.209 287.034 97.7979 294.995 93.7593 297.196C93.9985 299.51 94.3529 301.811 94.8213 304.089C95.394 306.911 95.5027 309.808 95.1431 312.666C94.6282 315.756 93.2605 318.782 89.8173 318.669C89.6725 319.672 89.5438 320.578 89.415 321.404C90.743 323.743 91.5808 326.331 91.8768 329.009C92.0055 331.905 91.1045 334.786 91.3941 337.407C93.3571 338.621 93.8559 340.433 94.3547 342.601C97.4998 343.265 100.739 343.342 103.912 342.828C125.215 340.125 161.144 289.656 182.415 289.429C182.415 289.381 162.206 272.487 143.799 267.163Z" fill="#E09945"/>
</g>
<path d="M107.04 286.021C106.685 286.713 106.476 287.474 106.426 288.254C106.377 289.033 106.489 289.815 106.754 290.548C107.019 291.281 107.432 291.949 107.966 292.509C108.5 293.07 109.143 293.51 109.854 293.801C111.201 294.206 112.625 294.273 114.003 293.996C120.49 293.072 126.292 289.603 132.111 286.556C137.93 283.509 144.273 280.754 150.775 281.402C152.556 281.58 154.305 282.018 156.101 282.05C157.9 282.199 159.683 281.616 161.061 280.429C162.402 278.768 163.158 276.697 163.208 274.546C163.51 272.293 163.7 269.684 162.158 268.063C161.204 267.074 159.79 266.669 158.804 265.713C157.807 264.44 157.008 263.019 156.435 261.499C155.533 259.926 154.172 258.679 152.542 257.932C150.912 257.186 149.094 256.976 147.341 257.333C146.61 257.495 145.752 258.03 145.911 258.776C146.069 259.521 147.071 259.586 147.802 259.44C148.534 259.294 149.392 259.116 149.885 259.732C150.378 260.348 149.885 261.353 149.106 261.547C148.369 261.728 147.596 261.689 146.88 261.434C142.552 260.411 138.06 260.333 133.701 261.207C132.954 261.305 132.24 261.583 131.618 262.017C131.314 262.246 131.088 262.566 130.971 262.932C130.854 263.298 130.853 263.692 130.966 264.059C131.507 265.34 133.701 265.372 133.907 266.75C133.931 267.094 133.847 267.436 133.667 267.727C133.487 268.019 133.22 268.244 132.906 268.371C132.275 268.604 131.602 268.692 130.935 268.63L125.02 268.517C124.035 267.761 122.893 267.245 121.682 267.009C121.074 266.907 120.45 267.011 119.905 267.303C119.36 267.596 118.923 268.062 118.661 268.63C118.2 269.992 119.122 271.742 118.2 272.828C117.767 273.194 117.221 273.395 116.658 273.395C116.095 273.395 115.55 273.194 115.116 272.828C114.253 272.086 113.34 271.409 112.382 270.802C111.538 270.47 110.609 270.436 109.744 270.707C108.879 270.977 108.128 271.536 107.612 272.293C107.126 273.059 106.847 273.942 106.805 274.854C106.764 275.765 106.96 276.671 107.374 277.48C108.089 278.971 109.456 280.284 109.377 281.937C109.297 283.59 107.866 284.595 107.04 286.021Z" fill="#9FCC29"/>
<path d="M156.928 265.523C156.023 264.299 155.499 262.834 154.689 261.546C154.328 260.872 153.806 260.3 153.171 259.883C152.535 259.467 151.806 259.219 151.051 259.163C151.3 259.337 151.51 259.563 151.667 259.825C151.824 260.087 151.924 260.379 151.962 260.683C151.999 260.987 151.973 261.296 151.885 261.589C151.796 261.882 151.647 262.153 151.448 262.383C151.316 262.534 151.166 262.669 151.004 262.786C151.396 263.289 151.741 263.828 152.036 264.396C152.672 265.748 153.227 267.133 153.752 268.517C154.53 270.578 155.642 272.928 154.721 275.102C153.799 277.275 150.94 276.486 150.988 274.732C150.931 274.64 150.883 274.543 150.845 274.442C150.263 271.799 149.283 269.263 147.938 266.923C146.953 265.313 145.651 264.074 144.586 262.609C142.178 261.939 139.665 261.748 137.184 262.045C136.565 262.045 135.802 262.351 135.596 262.979C135.389 263.607 136.057 264.154 136.66 264.38C137.293 264.498 137.894 264.75 138.423 265.12C138.593 265.344 138.713 265.601 138.777 265.876C138.841 266.15 138.847 266.435 138.794 266.712C138.742 266.989 138.632 267.251 138.472 267.482C138.313 267.712 138.106 267.906 137.867 268.05C136.867 268.596 135.716 268.789 134.595 268.598C133.903 268.541 133.207 268.541 132.514 268.598C132.295 268.651 132.072 268.688 131.847 268.71C131.64 268.753 131.437 268.817 131.244 268.904C130.297 269.467 129.466 270.21 128.798 271.093C128.457 271.533 128.023 271.888 127.528 272.134C127.033 272.379 126.489 272.508 125.938 272.51C124.35 272.301 122.984 270.208 121.443 270.9C119.902 271.592 120.49 274.458 119.108 275.73C118.677 276.024 118.172 276.19 117.653 276.207C117.133 276.224 116.619 276.092 116.17 275.826C115.232 275.392 114.422 274.683 113.453 274.216C112.988 273.977 112.462 273.887 111.946 273.959C111.429 274.031 110.946 274.261 110.562 274.619C110.247 275.154 110.105 275.775 110.156 276.396C110.207 277.017 110.449 277.606 110.848 278.08C111.674 279.025 112.225 280.185 112.437 281.429C112.437 283.86 109.26 285.067 108.529 287.386C108.32 288.351 108.399 289.358 108.756 290.278C109.112 291.198 109.73 291.99 110.531 292.554C111.405 293.249 112.387 293.793 113.437 294.163L114.057 294.083C120.538 293.165 126.335 289.72 132.149 286.693C137.963 283.667 144.301 280.93 150.797 281.574C152.576 281.751 154.323 282.186 156.118 282.218C157.915 282.365 159.697 281.786 161.074 280.608C162.414 278.958 163.169 276.9 163.219 274.764C163.407 273.615 163.46 272.448 163.377 271.286C161.583 269.048 158.644 267.809 156.928 265.523Z" fill="#73A624"/>
<path d="M100.415 298.09C100.415 298.09 102.814 285.141 103.102 283.163C103.102 283.163 111.244 288.541 119.337 287.32L127.415 296.189C127.415 296.189 110.396 303.683 100.415 298.09Z" fill="#FFCF08"/>
<g style="mix-blend-mode:multiply" opacity="0.35">
<path d="M118.923 288.163L118.109 288.258C117.428 289.995 116.312 291.54 114.863 292.757C113.413 293.973 111.675 294.823 109.803 295.228C108.435 295.433 107.036 295.282 105.749 294.792C104.461 294.301 103.331 293.489 102.474 292.437C101.92 295.497 101.415 298.241 101.415 298.241C110.65 303.429 126.415 296.474 126.415 296.474L118.923 288.163Z" fill="#E6B970"/>
</g>
<path d="M104.079 284.163C103.792 286.327 101.415 299.728 101.415 299.728C102.133 300.147 102.069 299.873 102.851 300.163C102.596 296.014 105.531 286.924 105.531 286.924C115.406 289.637 120.639 289.717 119.171 287.958C113.923 287.858 108.764 286.561 104.079 284.163Z" fill="#EFA708"/>
<path d="M110.433 299.834C110.449 299.944 110.449 300.054 110.433 300.163C116.29 299.809 122.039 298.431 127.415 296.09L123.921 294.163C120.065 295.135 109.93 296.968 110.433 299.834Z" fill="#EFA708"/>
<path d="M119.397 309.193C119.474 306.954 119.304 304.713 118.889 302.512C118.746 301.526 118.587 300.523 118.445 299.521C118.302 298.519 117.571 298.137 116.746 298.201C115.929 298.37 115.124 298.588 114.333 298.853C112.555 299.235 110.824 298.201 109.189 297.406C106.22 295.959 102.965 295.198 99.664 295.179C98.162 295.085 96.6644 295.422 95.346 296.149C94.6954 296.533 94.1843 297.115 93.8873 297.81C93.5903 298.506 93.5229 299.278 93.6949 300.014C94.4252 302.337 97.8543 302.846 98.7115 305.136C98.8544 305.518 98.8703 306.043 98.5051 306.25C98.14 306.457 97.6796 306.139 97.3462 305.852C95.8887 304.51 94.0645 303.635 92.1074 303.339C91.1197 303.204 90.1144 303.288 89.1625 303.585C88.2106 303.881 87.3354 304.384 86.5987 305.057C85.8749 305.751 85.3669 306.64 85.1359 307.616C84.9049 308.593 84.9608 309.615 85.2969 310.561C85.6775 311.485 86.3733 312.243 87.2602 312.7C88.1471 313.158 89.1673 313.285 90.1389 313.058C91.1549 312.772 92.2979 312.056 93.1552 312.676C93.3152 312.843 93.4368 313.043 93.5117 313.262C93.5866 313.481 93.6129 313.714 93.5887 313.944C93.5645 314.175 93.4904 314.397 93.3717 314.595C93.2529 314.794 93.0924 314.964 92.9012 315.094C92.4907 315.338 92.0306 315.487 91.5551 315.528C91.0796 315.569 90.601 315.503 90.1547 315.333C89.2407 315.009 88.3006 314.764 87.3448 314.601C86.384 314.541 85.4282 314.781 84.6093 315.288C83.7904 315.795 83.1487 316.545 82.7727 317.433C82.431 318.331 82.3318 319.305 82.4851 320.254C82.6384 321.204 83.0388 322.096 83.6459 322.841C84.2737 323.57 85.0511 324.155 85.925 324.556C86.799 324.957 87.7489 325.164 88.7101 325.163C90.5782 324.999 92.4212 324.62 94.2029 324.034C99.1243 322.905 104.427 323.827 109.237 322.237C111.999 321.265 114.425 319.52 116.226 317.207C118.027 314.895 119.128 312.113 119.397 309.193Z" fill="#9FCC29"/>
<path d="M95.531 313.141C95.9726 314.506 94.7739 315.937 93.4489 316.43C92.0815 316.696 90.6845 316.757 89.3005 316.611C88.6117 316.542 87.9174 316.657 87.2829 316.945C86.6483 317.232 86.0942 317.683 85.6726 318.255C85.3471 319.054 85.3295 319.952 85.6233 320.764C85.9171 321.575 86.4997 322.238 87.2499 322.613C88.8011 323.285 90.5343 323.344 92.1239 322.778C95.0735 321.939 97.7866 320.245 100.799 319.653C102.818 319.242 104.9 319.357 106.951 319.094C109.029 318.982 110.987 318.047 112.424 316.479C113.351 315.166 113.972 313.646 114.238 312.039C115.23 307.706 115.957 303.312 116.415 298.883C113.781 300.232 110.831 301.63 107.992 300.824C106.865 300.448 105.801 299.894 104.837 299.179C103.862 298.46 102.801 297.874 101.683 297.436C101.118 297.225 100.518 297.135 99.9187 297.171C99.3196 297.208 98.7339 297.371 98.1967 297.65C97.6676 297.952 97.2512 298.431 97.0138 299.009C96.7765 299.588 96.732 300.232 96.8875 300.84C97.1224 301.341 97.4628 301.781 97.8835 302.125C98.3041 302.47 98.7941 302.711 99.3166 302.83C100.361 303.042 101.385 303.35 102.377 303.751C102.859 303.973 103.268 304.341 103.549 304.807C103.83 305.273 103.971 305.816 103.954 306.366C103.857 306.803 103.652 307.207 103.358 307.536C103.065 307.865 102.694 308.108 102.282 308.24C100.906 308.652 99.4311 308.511 98.1494 307.846C96.8402 307.287 95.6256 306.481 94.3006 305.971C93.649 305.674 92.9455 305.521 92.2343 305.521C91.5231 305.521 90.8196 305.674 90.168 305.971C89.5518 306.315 89.0865 306.893 88.8691 307.585C88.6516 308.277 88.6988 309.03 89.0008 309.687C89.4353 310.18 89.965 310.571 90.555 310.835C91.1449 311.098 91.7818 311.228 92.4236 311.217C93.7328 311.414 95.1366 311.858 95.531 313.141Z" fill="#73A624"/>
<path d="M101.415 321.41C101.412 321.834 101.529 322.25 101.753 322.616C101.977 322.982 102.3 323.284 102.688 323.49C103.464 323.91 104.341 324.133 105.233 324.136C107.743 324.288 110.251 323.81 112.506 322.749C115.292 321.465 117.486 319.25 118.672 316.525C119.249 315.169 119.495 313.706 119.392 312.245C119.289 310.785 118.839 309.366 118.076 308.096C117.283 306.841 116.148 305.814 114.792 305.123C113.436 304.432 111.91 304.104 110.374 304.172C109.25 304.267 107.944 304.818 107.861 305.89C107.779 306.961 109.018 307.686 109.514 308.679C109.674 309.032 109.732 309.42 109.682 309.802C109.633 310.184 109.478 310.547 109.233 310.853C108.979 311.153 108.647 311.385 108.271 311.526C107.894 311.667 107.485 311.712 107.085 311.657C105.729 311.468 104.605 310.081 103.266 310.38C102.75 310.522 102.303 310.831 102.001 311.254C101.699 311.677 101.562 312.187 101.613 312.697C101.758 313.691 102.076 314.655 102.556 315.549C103.039 316.447 103.173 317.48 102.936 318.464C102.655 319.519 101.564 320.307 101.415 321.41Z" fill="#9FCC29"/>
<path d="M117.085 308.011C116.254 307.836 115.47 307.488 114.786 306.988C114.101 306.483 113.278 306.195 112.424 306.163C112.004 306.163 111.6 306.32 111.293 306.604C110.986 306.887 110.8 307.276 110.773 307.69C110.773 308.316 111.375 308.789 111.684 309.339C111.896 309.717 112.007 310.143 112.007 310.575C112.007 311.008 111.896 311.434 111.684 311.812C111.457 312.182 111.141 312.491 110.764 312.709C110.387 312.928 109.96 313.05 109.523 313.064C108.897 313.005 108.277 312.893 107.671 312.728C107.331 312.606 106.962 312.596 106.616 312.698C106.27 312.8 105.967 313.01 105.751 313.295C105.534 313.581 105.417 313.928 105.415 314.285C105.413 314.642 105.528 314.99 105.741 315.278C106.36 316.633 107.458 317.719 108.828 318.331C110.188 318.971 111.694 319.25 113.196 319.14C115.026 319.114 116.8 318.509 118.258 317.415C118.981 316.826 119.551 316.076 119.924 315.227C120.297 314.378 120.462 313.454 120.404 312.53C120.322 311.61 119.955 310.738 119.353 310.032C118.751 309.327 117.942 308.824 117.039 308.591L117.085 308.011Z" fill="#73A624"/>
<path d="M148.553 275.225L150.996 280.163L172.415 279.126L171.952 275.076C171.952 275.076 165.355 265.676 158.184 265.199C151.012 264.721 147.674 269.166 148.553 275.225Z" fill="#D12424"/>
<path d="M148.555 275.163H172.415C172.415 275.163 165.689 265.682 158.376 265.2C151.064 264.718 147.66 269.053 148.555 275.163Z" fill="#EA3333"/>
<path d="M154.213 272.459C154.963 272.771 157.475 274.737 157.769 274.786C157.107 273.646 156.372 272.551 155.567 271.509C155.567 271.509 157.084 269.87 161.52 271.656C161.52 271.656 160.704 273.41 161.977 274.36C163.249 275.311 163.216 272.312 163.135 271.886C163.053 271.459 166.152 272.607 167.783 275.032H172.415C172.415 275.032 165.679 265.674 158.356 265.199C151.033 264.723 147.624 269.132 148.57 275.163H153.267C153.365 274.033 153.691 272.23 154.213 272.459Z" fill="#C91D1D"/>
<path d="M156.888 268.853C159.32 268.688 161.753 269.173 163.939 270.258C166.124 271.343 167.985 272.991 169.332 275.032H172.415C172.415 275.032 165.679 265.674 158.356 265.199C151.033 264.723 147.624 269.132 148.57 275.163H150.804C150.543 269.984 153.61 269.001 156.888 268.853Z" fill="#FF3333"/>
<path d="M155.415 273.862C155.415 274.117 155.274 274.237 155.009 274.117C154.864 274.058 154.735 273.968 154.632 273.853C154.529 273.739 154.455 273.604 154.415 273.458C154.415 273.204 154.571 273.099 154.837 273.204C154.98 273.264 155.106 273.354 155.206 273.468C155.306 273.583 155.378 273.717 155.415 273.862Z" fill="#FF7E70"/>
<path d="M158.415 272.844C158.415 273.102 158.281 273.231 158.012 273.128C157.86 273.069 157.727 272.98 157.623 272.868C157.519 272.756 157.448 272.624 157.415 272.483C157.415 272.225 157.549 272.096 157.818 272.199C157.968 272.259 158.1 272.349 158.204 272.461C158.308 272.573 158.38 272.704 158.415 272.844Z" fill="#FF7E70"/>
<path d="M160.415 273.833C160.415 274.088 160.288 274.227 160.007 274.135C159.857 274.068 159.727 273.975 159.625 273.863C159.523 273.75 159.451 273.621 159.415 273.484C159.415 273.229 159.542 273.101 159.823 273.194C159.973 273.258 160.103 273.349 160.205 273.459C160.307 273.57 160.379 273.697 160.415 273.833Z" fill="#FF7E70"/>
<path d="M165.415 273.854C165.415 274.097 165.279 274.233 165.008 274.127C164.862 274.063 164.734 273.972 164.631 273.859C164.529 273.747 164.455 273.616 164.415 273.475C164.415 273.217 164.551 273.096 164.839 273.202C164.984 273.264 165.112 273.355 165.212 273.468C165.312 273.581 165.381 273.713 165.415 273.854Z" fill="#FF7E70"/>
<path d="M114.779 275.351L111.415 278.541L128.474 306.163L132.312 305.541C133.695 302.785 134.415 299.739 134.415 296.65C134.415 293.561 133.695 290.515 132.312 287.759C127.511 278.461 120.371 274.187 114.779 275.351Z" fill="#D12424"/>
<path d="M114.415 275.349L132.273 305.163C133.681 302.439 134.415 299.428 134.415 296.374C134.415 293.319 133.681 290.308 132.273 287.584C127.382 278.423 120.11 274.198 114.415 275.349Z" fill="#EA3333"/>
<path d="M121.484 282.444C121.709 283.39 121.484 286.59 121.645 286.874C121.806 287.158 123.432 284.131 123.432 284.131C123.432 284.131 126.362 286.023 127.699 291.557C127.699 291.557 125.251 290.548 125.187 292.14C125.123 293.733 128.278 293.717 128.665 293.575C129.051 293.433 130.162 297.359 128.794 299.393L132.272 305.163C133.681 302.439 134.415 299.428 134.415 296.374C134.415 293.319 133.681 290.308 132.272 287.584C127.441 278.423 120.115 274.198 114.415 275.349L117.925 281.167C119.165 281.387 121.323 281.782 121.484 282.444Z" fill="#C91D1D"/>
<path d="M127.184 285.707C130.178 290.437 132.69 296.129 129.969 301.332L132.272 305.163C133.681 302.439 134.415 299.428 134.415 296.374C134.415 293.319 133.681 290.308 132.272 287.584C127.441 278.423 120.115 274.198 114.415 275.349L116.025 278.124C121.258 277.793 124.591 281.608 127.184 285.707Z" fill="#FF3333"/>
<path d="M121.062 284.163C120.807 284.163 120.536 283.874 120.456 283.32C120.401 283.105 120.401 282.867 120.458 282.652C120.514 282.438 120.621 282.263 120.759 282.163C121.014 282.163 121.285 282.453 121.38 283.007C121.431 283.225 121.426 283.464 121.367 283.677C121.308 283.891 121.2 284.064 121.062 284.163Z" fill="#FF7E70"/>
<path d="M124.052 287.162C123.907 287.172 123.763 287.134 123.65 287.058C123.537 286.982 123.464 286.873 123.447 286.753C123.398 286.64 123.406 286.516 123.467 286.407C123.529 286.299 123.641 286.215 123.777 286.174C124.039 286.117 124.3 286.299 124.383 286.571C124.432 286.686 124.425 286.812 124.363 286.922C124.301 287.032 124.19 287.119 124.052 287.162Z" fill="#FF7E70"/>
<path d="M125.06 290.156C124.922 290.186 124.782 290.122 124.67 289.976C124.559 289.83 124.485 289.615 124.464 289.375C124.432 289.262 124.415 289.137 124.415 289.011C124.415 288.884 124.431 288.759 124.462 288.645C124.493 288.531 124.539 288.431 124.596 288.351C124.653 288.272 124.719 288.215 124.79 288.186C124.861 288.157 124.935 288.156 125.006 288.183C125.077 288.21 125.144 288.264 125.201 288.342C125.259 288.419 125.306 288.518 125.338 288.632C125.37 288.745 125.388 288.869 125.389 288.995C125.432 289.225 125.422 289.475 125.36 289.691C125.299 289.908 125.191 290.075 125.06 290.156Z" fill="#FF7E70"/>
<path d="M128.062 296.163C127.805 296.163 127.532 296.034 127.452 295.761C127.399 295.647 127.403 295.521 127.463 295.41C127.523 295.298 127.634 295.21 127.773 295.164C127.92 295.159 128.064 295.2 128.177 295.276C128.29 295.353 128.363 295.461 128.383 295.579C128.431 295.691 128.425 295.814 128.365 295.923C128.306 296.031 128.197 296.117 128.062 296.163Z" fill="#FF7E70"/>
<path d="M113.925 274.365L110.415 277.553L128.213 305.163L132.217 304.542C133.662 301.785 134.415 298.737 134.415 295.646C134.415 292.556 133.662 289.508 132.217 286.751C127.208 277.426 119.775 273.153 113.925 274.365Z" fill="#D12424"/>
<path d="M114.415 274.369L132.27 305.163C133.68 302.349 134.415 299.237 134.415 296.081C134.415 292.926 133.68 289.814 132.27 286.999C127.38 277.494 120.125 273.132 114.415 274.369Z" fill="#EA3333"/>
<path d="M121.493 281.682C121.718 282.66 121.493 285.965 121.67 286.258C121.846 286.551 123.439 283.425 123.439 283.425C123.439 283.425 126.383 285.379 127.702 291.094C127.702 291.094 125.257 290.052 125.192 291.697C125.128 293.342 128.281 293.325 128.667 293.195C129.053 293.065 130.163 297.087 128.811 299.187L132.27 305.163C133.68 302.347 134.415 299.235 134.415 296.077C134.415 292.92 133.68 289.807 132.27 286.991C127.444 277.53 120.125 273.166 114.415 274.355L117.938 280.412C119.192 280.591 121.348 280.999 121.493 281.682Z" fill="#C91D1D"/>
<path d="M127.187 285.053C130.195 289.938 132.688 295.833 129.97 301.19L132.27 305.163C133.68 302.347 134.415 299.235 134.415 296.077C134.415 292.92 133.68 289.807 132.27 286.991C127.444 277.53 120.125 273.166 114.415 274.355L116.024 277.237C121.267 276.879 124.597 280.917 127.187 285.053Z" fill="#FF3333"/>
<path d="M120.077 283.163C119.817 283.163 119.526 283.018 119.444 282.751C119.363 282.484 119.444 282.205 119.752 282.168C120.061 282.132 120.287 282.302 120.385 282.581C120.482 282.86 120.336 283.115 120.077 283.163Z" fill="#FF7E70"/>
<path d="M123.711 287.16C123.42 287.18 123.131 287.108 122.902 286.959C122.673 286.81 122.523 286.594 122.481 286.357C122.381 286.125 122.395 285.871 122.521 285.648C122.646 285.425 122.873 285.251 123.152 285.163C123.439 285.168 123.716 285.251 123.939 285.399C124.162 285.548 124.318 285.753 124.382 285.982C124.447 286.212 124.416 286.453 124.294 286.666C124.172 286.88 123.967 287.053 123.711 287.16Z" fill="#FF7E70"/>
<path d="M124.058 289.158C123.99 289.167 123.92 289.164 123.852 289.149C123.785 289.135 123.722 289.108 123.667 289.072C123.611 289.036 123.565 288.99 123.53 288.938C123.495 288.886 123.472 288.828 123.464 288.769C123.432 288.712 123.415 288.65 123.415 288.586C123.415 288.523 123.431 288.461 123.462 288.404C123.493 288.347 123.539 288.297 123.595 288.257C123.652 288.217 123.718 288.189 123.789 288.175C123.859 288.16 123.933 288.16 124.004 288.173C124.075 288.187 124.141 288.214 124.199 288.252C124.256 288.291 124.303 288.341 124.335 288.397C124.367 288.454 124.385 288.516 124.386 288.579C124.409 288.636 124.418 288.696 124.414 288.756C124.41 288.816 124.392 288.874 124.362 288.928C124.331 288.982 124.289 289.03 124.237 289.07C124.184 289.109 124.124 289.139 124.058 289.158Z" fill="#FF7E70"/>
<path d="M128.06 295.163C127.802 295.163 127.528 295.032 127.447 294.756C127.399 294.642 127.405 294.517 127.465 294.407C127.525 294.297 127.634 294.21 127.77 294.163C128.028 294.163 128.302 294.295 128.383 294.571C128.431 294.685 128.425 294.809 128.365 294.919C128.305 295.029 128.196 295.117 128.06 295.163Z" fill="#FF7E70"/>
<path d="M146.581 276.353C147.238 275.996 147.791 275.472 148.189 274.832C148.372 274.341 148.445 273.814 148.404 273.29C148.362 272.767 148.206 272.259 147.947 271.805C147.417 270.631 146.65 269.583 145.697 268.729C144.968 268.021 144.071 267.519 143.093 267.273C142.606 267.146 142.098 267.129 141.604 267.223C141.11 267.316 140.642 267.517 140.232 267.812C139.83 268.12 139.53 268.544 139.369 269.029C139.208 269.513 139.195 270.036 139.332 270.528C138.735 269.61 137.916 268.864 136.953 268.362C135.99 267.861 134.916 267.621 133.835 267.665C132.509 267.733 131.259 268.319 130.347 269.301C129.897 269.781 129.572 270.368 129.401 271.008C129.23 271.647 129.218 272.321 129.366 272.966C129.549 273.6 129.915 274.162 130.417 274.579C130.919 274.997 131.533 275.25 132.179 275.306C131.377 275.008 130.505 274.96 129.676 275.169C128.846 275.378 128.097 275.834 127.524 276.479C126.951 277.124 126.58 277.928 126.459 278.789C126.337 279.65 126.471 280.528 126.843 281.311C127.226 282.034 127.768 282.658 128.425 283.135C129.083 283.611 129.839 283.928 130.636 284.06C132.272 284.318 133.946 284.091 135.458 283.405C136.914 282.724 138.303 281.902 139.605 280.951L146.581 276.353Z" fill="#FFCF08"/>
<path d="M145.757 276.296C146.055 275.866 146.258 275.376 146.353 274.861C146.448 274.345 146.433 273.814 146.309 273.305C146.185 272.795 145.955 272.318 145.633 271.905C145.312 271.493 144.907 271.154 144.445 270.911C143.984 270.668 143.476 270.527 142.956 270.497C142.436 270.468 141.916 270.55 141.43 270.738C140.944 270.927 140.503 271.218 140.138 271.591C139.772 271.965 139.489 272.413 139.309 272.905C138.821 271.987 138.07 271.237 137.154 270.755C136.238 270.272 135.199 270.078 134.172 270.198C133.73 270.225 133.302 270.363 132.927 270.6C132.552 270.836 132.241 271.163 132.023 271.551C131.865 272.022 131.854 272.53 131.989 273.008C132.125 273.486 132.401 273.911 132.781 274.226C133.557 274.844 134.45 275.294 135.405 275.548C133.636 275.438 131.891 276.007 130.521 277.14C130.183 277.375 129.906 277.689 129.713 278.055C129.521 278.421 129.418 278.828 129.415 279.242C129.475 279.577 129.618 279.891 129.831 280.156C130.044 280.42 130.319 280.626 130.632 280.755C131.26 281.008 131.931 281.138 132.608 281.137C135.114 281.248 137.624 281.012 140.068 280.436C141.443 280.145 142.755 279.606 143.94 278.844C145.125 278.071 145.96 276.858 146.263 275.468L145.757 276.296Z" fill="#EFA708"/>
<path d="M174.975 278.046C175.457 278.704 176.128 279.189 176.894 279.432C177.656 279.661 178.395 279.967 179.099 280.346C179.452 280.53 179.757 280.8 179.986 281.132C180.215 281.465 180.363 281.85 180.415 282.254C180.411 282.642 180.328 283.025 180.173 283.379C180.017 283.733 179.792 284.049 179.511 284.309C178.583 285.24 177.4 285.856 176.121 286.075C174.842 286.294 173.529 286.104 172.358 285.532C171.516 285.042 170.733 284.45 170.026 283.771L167.98 281.879L165.648 279.53C164.04 277.449 161.872 275.901 159.415 275.077C159.704 274.372 160.151 273.746 160.718 273.25C161.286 272.755 161.959 272.403 162.682 272.223C164.132 271.872 165.642 271.872 167.092 272.223C167.47 272.364 167.874 272.417 168.275 272.377C168.675 272.338 169.062 272.207 169.407 271.995C169.899 271.522 169.931 270.722 170.296 270.135C170.527 269.776 170.857 269.495 171.244 269.33C171.631 269.164 172.058 269.121 172.469 269.206C172.878 269.301 173.262 269.486 173.596 269.748C173.93 270.01 174.205 270.342 174.404 270.722C174.784 271.493 174.944 272.358 174.864 273.218C174.864 274.05 174.61 274.849 174.531 275.697C174.412 276.509 174.569 277.339 174.975 278.046Z" fill="#9FCC29"/>
<path d="M160.415 277.394C163.816 277.022 167.025 275.608 169.612 273.342C170.032 272.897 170.53 272.537 171.081 272.279C171.351 272.164 171.649 272.134 171.937 272.192C172.225 272.251 172.488 272.395 172.694 272.606C172.861 272.87 172.95 273.176 172.95 273.489C172.95 273.802 172.861 274.108 172.694 274.371C172.388 274.91 171.936 275.368 171.646 275.924C171.45 276.294 171.332 276.701 171.296 277.119C171.26 277.537 171.309 277.958 171.439 278.357C171.568 278.756 171.777 279.123 172.051 279.438C172.325 279.753 172.659 280.009 173.033 280.189C173.523 280.396 174.031 280.555 174.55 280.663C175.068 280.777 175.55 281.018 175.954 281.366C176.149 281.541 176.291 281.77 176.363 282.025C176.434 282.28 176.432 282.55 176.357 282.804C176.214 283.128 175.978 283.401 175.68 283.588C174.121 284.77 172.181 285.319 170.243 285.125C168.305 284.932 166.508 284.01 165.207 282.542C164.417 281.643 163.836 280.581 163.126 279.617C162.481 278.601 161.53 277.822 160.415 277.394Z" fill="#73A624"/>
<path d="M93.475 341.113C96.9199 342.451 100.76 342.513 104.25 341.287C105.979 340.669 107.557 339.716 108.886 338.488C110.214 337.26 111.265 335.783 111.973 334.148C112.774 331.977 113.246 329.706 113.375 327.405L114.415 316.594C111.774 317.045 109.054 316.76 106.577 315.771C105.133 314.94 103.527 314.401 101.858 314.188C101.026 314.1 100.185 314.248 99.4399 314.614C98.6948 314.979 98.0781 315.547 97.6663 316.246C97.2373 317.148 97.3033 318.225 96.8577 319.111C96.1706 320.241 95.0521 321.07 93.739 321.422C92.4384 321.761 91.202 322.295 90.0757 323.005C89.5204 323.375 89.1132 323.915 88.9212 324.536C88.7291 325.158 88.7639 325.824 89.0196 326.424C89.5477 327.358 90.8018 327.785 91.2143 328.767C91.3435 329.211 91.3553 329.68 91.2487 330.131C91.1421 330.581 90.9205 330.999 90.6038 331.347C89.9586 332.038 89.3736 332.779 88.8546 333.563C88.4882 334.328 88.3468 335.175 88.4457 336.012C88.5446 336.849 88.88 337.644 89.4157 338.311C90.4629 339.597 91.8713 340.569 93.475 341.113Z" fill="#B55728"/>
<g style="mix-blend-mode:multiply" opacity="0.32">
<path d="M108.751 320.118C105.727 322.28 105.409 324.731 104.295 327.902C103.854 328.867 103.169 329.699 102.309 330.315C101.449 330.93 100.443 331.308 99.3921 331.41C98.2901 331.584 97.1619 331.459 96.1238 331.048C95.0858 330.637 94.1755 329.954 93.4869 329.071C91.6246 326.621 91.2903 323.754 88.8709 324.41C88.7683 324.699 88.7267 325.007 88.7486 325.313C88.7705 325.619 88.8555 325.917 88.9982 326.188C89.5076 327.133 90.7173 327.566 91.1152 328.559C91.2398 329.009 91.2512 329.483 91.1484 329.939C91.0456 330.395 90.8318 330.818 90.5263 331.17C89.904 331.869 89.3397 332.619 88.8391 333.412C88.4856 334.187 88.3492 335.044 88.4446 335.89C88.54 336.737 88.8635 337.542 89.3803 338.217C90.401 339.546 91.7835 340.548 93.3595 341.1C96.6825 342.454 100.387 342.517 103.753 341.277C105.421 340.651 106.943 339.687 108.225 338.444C109.506 337.201 110.52 335.707 111.203 334.053C111.994 331.831 112.46 329.506 112.587 327.149C112.858 324.154 113.144 321.159 113.415 318.163C111.76 318.539 110.182 319.2 108.751 320.118Z" fill="#B55728"/>
</g>
<path d="M106.904 319.259C106.35 318.81 105.688 318.475 104.966 318.278C104.24 318.087 103.459 318.136 102.773 318.416C102.424 318.559 102.121 318.773 101.888 319.04C101.656 319.307 101.501 319.619 101.438 319.949C101.382 320.283 101.429 320.624 101.574 320.937C101.719 321.25 101.957 321.524 102.264 321.73C102.576 321.928 102.935 322.062 103.314 322.124C103.693 322.186 104.084 322.175 104.457 322.09C105.203 321.902 105.888 321.566 106.459 321.109C107.031 320.681 107.587 320.046 107.365 319.424C107.142 318.803 107.444 319.134 106.904 319.259Z" fill="#8D3800"/>
<path d="M103.609 325.814C103.205 325.444 102.704 325.22 102.177 325.173C101.65 325.126 101.123 325.258 100.668 325.552C100.224 325.864 99.872 326.308 99.6553 326.832C99.4386 327.357 99.3663 327.938 99.4473 328.506C99.5437 329.087 99.7857 329.629 100.147 330.071C100.508 330.513 100.974 330.838 101.494 331.011C101.997 331.179 102.53 331.209 103.047 331.098C103.563 330.987 104.046 330.739 104.452 330.375C104.731 330.132 104.961 329.829 105.127 329.485C105.293 329.141 105.391 328.763 105.415 328.375C105.4 327.971 105.308 327.575 105.145 327.211C104.982 326.848 104.752 326.525 104.469 326.263C103.919 325.646 104.228 326.356 103.609 325.814Z" fill="#8D3800"/>
<path d="M97.3517 332.63C96.6612 332.399 95.9432 332.247 95.2135 332.178C94.4757 332.109 93.7364 332.294 93.134 332.699C92.84 332.908 92.6208 333.196 92.5057 333.524C92.3906 333.853 92.385 334.206 92.4897 334.538C92.7374 335.071 93.2009 335.491 93.7784 335.704C94.5659 336.103 95.4717 336.248 96.3558 336.116C96.7941 336.044 97.2052 335.868 97.5491 335.603C97.893 335.339 98.1579 334.995 98.3182 334.606C98.4595 334.211 98.4458 333.78 98.2794 333.393C98.113 333.006 97.8049 332.687 97.4102 332.493C97.0588 332.37 97.7031 332.63 97.3517 332.63Z" fill="#8D3800"/>
<g style="mix-blend-mode:multiply" opacity="0.55">
<path d="M182.253 289.478H182.172L182.011 289.335L181.833 289.208C181.786 289.157 181.732 289.114 181.671 289.081L181.041 288.573L180.895 288.461L180.394 288.08L180.248 287.969C179.423 287.334 178.34 286.524 177.014 285.602C177.395 285.465 177.763 285.295 178.114 285.094C177.074 284.909 176.084 284.514 175.208 283.934C174.331 283.355 173.586 282.603 173.02 281.727C170.885 278.963 168.928 274.754 164.724 274.722C162.892 274.775 161.096 274.215 159.63 273.134C155.975 270.179 151.221 271.069 146.418 272.435C143.674 273.221 141.285 274.902 139.643 277.2C138.559 278.788 137.152 280.123 136.166 281.377C134.42 283.601 132.285 286.428 129.164 286.667C126.997 286.841 124.507 285.936 124.313 283.49C124.296 283.342 124.296 283.193 124.313 283.045C121.078 286.825 118.232 291.082 115.936 293.909C115.804 294.07 115.664 294.224 115.516 294.37C115.516 294.561 115.516 294.767 115.516 294.974C115.731 296.879 115.437 298.807 114.663 300.567C113.889 302.328 112.661 303.859 111.101 305.012C112.071 308.411 112.637 312.334 109.807 314.05C109.13 314.451 108.385 314.731 107.608 314.876C107.689 319.291 108.611 321.928 106.395 326.804C103.808 332.427 105.926 335.222 100.59 339.289C99.0094 340.438 97.2659 341.353 95.415 342.005H95.7708H96.0295C96.6764 342.084 97.3394 342.132 98.0671 342.163C98.7948 342.163 99.5548 342.163 100.363 342.163H100.913C101.738 342.163 102.53 342.036 103.517 341.925C124.927 339.273 161.037 289.732 182.415 289.51L182.253 289.478Z" fill="#BD9749"/>
</g>
<path d="M112.638 311.776C114.247 300.744 119.683 290.629 127.993 283.204C132.166 279.563 137.108 276.915 142.449 275.457C147.79 274 153.391 273.77 158.833 274.787C167.019 276.544 174.157 281.349 181.069 286.074C185.903 289.428 187.144 291.185 192.058 294.539C192.912 295.119 198.31 296.006 198.407 297.022C198.584 298.635 195.893 301.021 194.282 301.489C176.362 306.614 159.23 314.177 143.365 323.966C135.615 328.803 128.171 334.06 119.921 337.946C111.671 341.832 102.39 344.218 93.415 342.702C95.691 343.059 98.0206 342.81 100.17 341.981C102.319 341.152 104.213 339.771 105.661 337.978C108.658 334.511 111.913 316.307 112.638 311.776Z" fill="#FAD15F"/>
<path d="M169.178 283.223C159.873 278.468 147.537 274.219 137.526 279.847C130.002 284.08 125.158 290.357 120.858 297.633C116.559 304.91 116.479 314.009 114.121 322.142C112.677 327.135 111.233 334.602 107.27 338.454C105.617 340.099 103.618 341.365 101.415 342.163C107.952 341.693 114.336 339.981 120.217 337.122C128.43 333.302 135.842 328.07 143.558 323.378C159.368 313.75 176.442 306.315 194.3 301.28C195.904 300.82 198.583 298.521 198.407 296.888C198.414 296.857 198.414 296.825 198.407 296.793C187.707 296.492 178.498 287.995 169.178 283.223Z" fill="#F9C22D"/>
<path d="M169.178 283.223C159.873 278.468 147.537 274.219 137.526 279.847C130.002 284.08 125.158 290.357 120.858 297.633C116.559 304.91 116.479 314.009 114.121 322.142C112.677 327.135 111.233 334.602 107.27 338.454C105.617 340.099 103.618 341.365 101.415 342.163C107.952 341.693 114.336 339.981 120.217 337.122C128.43 333.302 135.842 328.07 143.558 323.378C159.368 313.75 176.442 306.315 194.3 301.28C195.904 300.82 198.583 298.521 198.407 296.888C198.414 296.857 198.414 296.825 198.407 296.793C187.707 296.492 178.498 287.995 169.178 283.223Z" fill="#F9C22D"/>
<g style="mix-blend-mode:multiply" opacity="0.55">
<path d="M182.108 292.167C174.993 292.051 168.104 294.613 162.857 299.325C156.44 304.596 150.376 310.054 142.002 311.911C131.719 314.176 124.356 307.931 119.8 300.033C116.495 306.955 116.254 314.963 114.121 322.294C112.677 327.25 111.233 334.659 107.27 338.482C105.617 340.114 103.618 341.371 101.415 342.163C107.952 341.697 114.336 339.998 120.217 337.161C128.43 333.369 135.842 328.178 143.558 323.521C159.368 313.967 176.442 306.588 194.3 301.591C195.904 301.134 198.583 298.853 198.407 297.233C198.414 297.202 198.414 297.17 198.407 297.139C192.597 297.067 186.934 295.34 182.108 292.167Z" fill="#F2CC49"/>
</g>
<g style="mix-blend-mode:multiply" opacity="0.55">
<path d="M157.576 309.164C146.94 311.678 140.413 316.106 132.611 323.648C128.726 327.362 124.65 331.352 120.415 335.163L121.052 334.888C129.108 330.979 136.48 325.627 144.138 320.761C153.17 315.14 162.625 310.259 172.415 306.163C167.193 306.812 161.986 308.11 157.576 309.164Z" fill="#D68902"/>
</g>
<path d="M152.145 281.558C150.937 281.124 149.601 281.046 148.337 281.334C147.074 281.622 145.953 282.262 145.142 283.155C144.791 283.516 144.554 283.951 144.454 284.416C144.396 284.646 144.403 284.884 144.473 285.111C144.543 285.338 144.675 285.547 144.857 285.72C145.235 285.971 145.687 286.122 146.16 286.156C146.633 286.19 147.108 286.105 147.527 285.911C148.885 285.46 150.096 284.725 151.054 283.771C151.571 283.327 151.882 282.732 151.927 282.1C151.91 281.47 152.867 281.441 152.145 281.558Z" fill="#E9A000"/>
<path d="M140.062 291.578C139.373 291.191 138.579 291.07 137.815 291.236C137.051 291.402 136.366 291.845 135.875 292.488C135.619 292.776 135.46 293.146 135.423 293.54C135.387 293.935 135.475 294.331 135.673 294.666C135.939 294.898 136.255 295.056 136.593 295.125C136.931 295.193 137.28 295.171 137.607 295.059C138.345 294.961 139.05 294.673 139.659 294.22C139.961 293.984 140.189 293.657 140.313 293.28C140.436 292.904 140.448 292.497 140.348 292.113C140.096 291.381 140.601 291.024 140.062 291.578Z" fill="#E9A000"/>
<path d="M157.259 296.85C156.369 295.961 155.211 295.388 153.961 295.217C152.712 295.046 151.44 295.287 150.342 295.904C149.244 296.521 148.38 297.478 147.882 298.63C147.385 299.782 147.281 301.064 147.588 302.28C147.657 302.643 147.806 302.986 148.023 303.286C148.24 303.586 148.521 303.835 148.845 304.015C149.216 304.137 149.607 304.185 149.997 304.155C150.386 304.125 150.766 304.019 151.114 303.842C153.035 303.055 154.719 301.788 156.002 300.164C156.526 299.556 157.87 297.44 157.259 296.85Z" fill="#E9A000"/>
<path d="M171.902 285.494C171.029 285.937 170.155 286.919 170.487 287.92C170.819 288.921 171.92 289.229 172.863 289.152C173.424 289.138 173.974 288.98 174.47 288.69C174.721 288.551 174.938 288.347 175.102 288.095C175.266 287.844 175.373 287.553 175.413 287.246C175.43 286.819 175.317 286.398 175.093 286.049C174.868 285.701 174.544 285.444 174.173 285.321C173.423 285.062 172.612 285.124 171.902 285.494Z" fill="#E9A000"/>
<path d="M182.666 294.871C181.97 294.584 181.234 294.366 180.474 294.221C179.703 294.083 178.896 294.197 178.228 294.538C177.901 294.71 177.652 294.964 177.52 295.262C177.388 295.559 177.38 295.883 177.498 296.185C177.642 296.451 177.872 296.681 178.164 296.852C178.455 297.022 178.797 297.126 179.155 297.152C179.87 297.191 180.588 297.128 181.276 296.965C181.785 296.9 182.275 296.758 182.72 296.546C182.938 296.434 183.117 296.278 183.238 296.093C183.36 295.908 183.421 295.701 183.415 295.492C183.365 295.299 183.256 295.119 183.097 294.97C182.938 294.821 182.734 294.707 182.506 294.64C182.06 294.481 183.094 295.044 182.666 294.871Z" fill="#E9A000"/>
<path d="M170.074 301.852C168.966 301.34 167.74 301.107 166.512 301.175C165.898 301.219 165.306 301.417 164.797 301.749C164.287 302.08 163.877 302.534 163.606 303.065C163.365 303.605 163.352 304.214 163.569 304.764C163.786 305.313 164.218 305.76 164.772 306.01C165.462 306.214 166.2 306.214 166.889 306.01C167.765 305.842 168.59 305.486 169.303 304.971C169.653 304.707 169.922 304.356 170.081 303.957C170.24 303.557 170.283 303.124 170.206 302.703C169.976 301.836 170.879 301.474 170.074 301.852Z" fill="#E9A000"/>
<path d="M143.365 309.31C142.414 309.516 141.546 309.97 140.865 310.618C140.705 310.785 140.583 310.98 140.507 311.191C140.431 311.403 140.401 311.626 140.421 311.848C140.44 312.071 140.508 312.287 140.62 312.484C140.732 312.681 140.887 312.855 141.073 312.996C141.396 313.135 141.753 313.189 142.106 313.152C142.46 313.116 142.795 312.99 143.076 312.788C143.684 312.457 144.135 311.926 144.342 311.302C144.438 310.986 144.439 310.652 144.346 310.335C144.253 310.018 144.069 309.731 143.814 309.504C143.285 309.073 144.022 309.102 143.365 309.31Z" fill="#E9A000"/>
<path d="M125.28 316.24C124.291 316.477 123.398 316.992 122.716 317.718C122.034 318.444 121.594 319.348 121.453 320.314C121.35 320.959 121.458 321.619 121.761 322.204C121.923 322.493 122.163 322.734 122.457 322.903C122.75 323.072 123.086 323.162 123.428 323.163C124.4 323.163 125.079 322.263 125.589 321.466C126.098 320.669 126.468 319.989 126.885 319.296C127.14 318.965 127.309 318.581 127.379 318.176C127.449 317.77 127.417 317.355 127.286 316.963C127.094 316.682 126.822 316.46 126.502 316.321C126.182 316.183 125.828 316.134 125.481 316.181C124.848 316.24 125.959 316.077 125.28 316.24Z" fill="#E9A000"/>
<g style="mix-blend-mode:screen" opacity="0.32">
<path d="M166.982 284.234C164.945 281.68 162.024 279.973 158.789 279.448C155.584 278.95 152.31 279.107 149.168 279.911C141.654 281.676 134.808 285.552 129.446 291.078C127.74 292.541 126.657 294.594 126.415 296.821C126.512 298.097 126.988 299.317 127.781 300.325C128.574 301.333 129.65 302.084 130.873 302.484C133.33 303.234 135.936 303.365 138.457 302.867C144.509 301.897 150.428 300.232 156.095 297.906C158.469 297.109 160.732 296.016 162.83 294.651C164.859 293.243 166.364 291.207 167.111 288.86C167.471 287.688 167.512 286.441 167.23 285.247C166.949 284.053 166.354 282.955 165.507 282.064L166.982 284.234Z" fill="#FAD15F"/>
</g>
<path d="M63.415 147.178L75.2307 168.146L125.415 146.035L93.8097 132.146C93.8097 132.146 71.163 141.813 63.415 147.178Z" fill="#EFEFEC"/>
<path d="M137.414 124.439L122.415 147.146L195.415 141.817L184.529 120.146L137.414 124.439Z" fill="#EFEFEC"/>
<path d="M158.603 161.025L195.415 142.146L121.759 145.501L75.415 168.146L158.603 161.025Z" fill="#E2B58B"/>
<path d="M82.415 94.7843L123.309 153.146L127.415 150.53L89.4786 89.1464C89.4786 89.1464 82.4474 89.5201 82.415 94.7843Z" fill="#716361"/>
<path d="M97.415 96.0418L134.056 156.146L138.415 153.898L105.019 91.1473C105.019 91.1473 97.8739 90.956 97.415 96.0418Z" fill="#716361"/>
<path d="M102.632 237.472L155.383 238.146L180.838 221.504L195.415 142.146L121.759 145.549L75.415 168.513L102.632 237.472Z" fill="#EFEFEC"/>
<g style="mix-blend-mode:multiply">
<path d="M158.883 144.146L122.014 145.826L75.415 168.722L102.781 237.474L155.823 238.146L171.415 228.034L158.883 144.146Z" fill="#EAE6DC"/>
</g>
<path d="M155.415 238.146L180.849 221.504L195.415 142.146L158.824 150.652L155.415 238.146Z" fill="#EFEFEC"/>
<path d="M136.201 206.146C131.76 207.594 127.134 208.432 122.455 208.637C118.11 209.113 113.715 208.962 109.415 208.19L110.12 220.146L138.415 218.917L136.332 206.561L136.201 206.146ZM118.043 217.512L112.728 217.768L112.302 211.893C112.302 210.84 117.403 210.488 117.502 211.558L118.043 217.512ZM126.047 217.145L120.47 217.401L119.798 211.414C119.683 210.329 125.112 209.962 125.244 211.063L126.047 217.145ZM134.462 216.762L128.59 217.033L127.786 210.935C127.638 209.834 133.314 209.451 133.494 210.568L134.462 216.762Z" fill="#716361"/>
<path d="M115.415 212.165L115.787 217.146L117.415 217.057L117.056 212.583C117.029 212.24 116.201 212.091 115.415 212.165Z" fill="#716361"/>
<path d="M114.633 212.176H114.291H113.998H113.77H113.689H113.526H113.428C113.411 212.224 113.411 212.275 113.428 212.323L113.444 217.146L115.415 217.058L115.073 212.146L114.633 212.176Z" fill="#716361"/>
<path d="M122.415 211.169L123.11 217.146L125.415 217.041L124.757 211.783C124.683 211.239 123.531 211.081 122.415 211.169Z" fill="#716361"/>
<path d="M122.526 211.182H122.216H121.948H121.737H121.596H121.511L121.426 211.27C121.411 211.327 121.411 211.388 121.426 211.445L121.849 216.724L123.415 217.146L122.907 211.146L122.526 211.182Z" fill="#716361"/>
<path d="M130.415 211.164L131.227 216.146L133.415 216.061L132.653 211.649C132.653 211.235 131.459 211.093 130.415 211.164Z" fill="#716361"/>
<path d="M130.023 211.175H129.584H129.217H128.943H128.851H128.649H128.54H128.43C128.41 211.222 128.41 211.272 128.43 211.319L129.162 215.629L131.415 216.146L130.518 211.146L130.023 211.175Z" fill="#716361"/>
<path d="M103.155 205.452C106.111 206.853 109.279 207.69 112.511 207.924H112.591C115.789 208.221 119.005 208.221 122.203 207.924C125.558 207.656 128.886 207.09 132.152 206.231C135.881 205.345 139.441 203.793 142.677 201.644C144.167 200.543 143.093 199.951 142.148 200.205C136.541 201.897 134.138 202.185 130.934 201.897L112.895 203.59C109.791 204.476 106.535 204.597 103.379 203.946C102.53 203.996 101.825 204.724 103.155 205.452Z" fill="#716361"/>
<path d="M112.415 196.344L112.878 203.146L131.415 201.263L130.422 194.146C127.457 195.195 124.385 195.874 121.27 196.17C118.333 196.569 115.364 196.627 112.415 196.344ZM122.577 197.268C122.577 196.571 125.986 196.152 126.069 196.867L126.632 200.792L123.09 201.158L122.577 197.268ZM116.304 198.001C116.304 197.303 119.615 196.902 119.615 197.617L120.012 201.472L116.702 201.821L116.304 198.001Z" fill="#716361"/>
<path d="M107.952 194.761C110.083 195.599 112.336 196.054 114.614 196.107C116.805 196.205 118.999 196.12 121.177 195.851C123.451 195.579 125.701 195.118 127.904 194.472C130.386 193.8 132.751 192.725 134.91 191.287C135.911 190.538 135.222 190.163 134.582 190.385C123.901 193.995 120.553 190.146 120.553 190.146C120.553 190.146 118.191 194.727 108.051 193.927C107.493 193.825 107.001 194.319 107.952 194.761Z" fill="#716361"/>
<path d="M118.415 198.17L118.601 201.146L119.415 201.035L119.229 198.408C119.229 198.17 118.81 198.106 118.415 198.17Z" fill="#716361"/>
<path d="M124.415 197.171L124.652 200.146L125.415 200.021L125.199 197.406C125.178 197.156 124.755 197.109 124.415 197.171Z" fill="#716361"/>
<path d="M123.83 197.618H123.692H123.575H123.479H123.415L123.617 200.146L124.415 200.04L124.17 197.146H124.021L123.83 197.618Z" fill="#716361"/>
<g style="mix-blend-mode:multiply" opacity="0.55">
<g style="mix-blend-mode:multiply" opacity="0.55">
<path d="M92.6215 198.416L146.491 195.563C146.491 195.563 157.723 164.93 158.959 161.195C160.965 155.376 160.098 151.577 163.003 146.143L102.554 155.104L75.6279 168.408L75.997 169.37C80.3136 173.458 92.6215 198.416 92.6215 198.416Z" fill="#D6C2A6"/>
</g>
</g>
<path d="M170.221 150.146C170.928 146.442 167.945 143.058 167.53 139.289C167.383 137.809 167.633 136.317 168.252 134.977C168.871 133.637 169.834 132.504 171.035 131.703C171.541 131.34 172.13 131.124 172.741 131.077C173.046 131.06 173.349 131.129 173.619 131.275C173.889 131.422 174.117 131.642 174.279 131.911C174.817 132.938 173.941 134.14 173.141 134.958C173.46 135.082 173.801 135.135 174.141 135.113C174.48 135.092 174.812 134.997 175.115 134.834C175.417 134.67 175.684 134.443 175.897 134.166C176.11 133.89 176.266 133.569 176.354 133.226C176.489 132.518 176.4 131.784 176.1 131.133C175.801 130.483 175.307 129.951 174.694 129.618C174.072 129.307 173.392 129.146 172.703 129.146C172.014 129.146 171.334 129.307 170.712 129.618C169.454 130.227 168.361 131.153 167.53 132.312C166.421 133.648 165.578 135.201 165.05 136.881C164.522 138.561 164.32 140.333 164.456 142.095C164.629 143.856 165.257 145.534 166.272 146.952C167.287 148.37 168.652 149.474 170.221 150.146Z" fill="#FBDF6A"/>
<path d="M110.21 162.146C110.768 158.104 110.181 153.992 108.513 150.248C107.649 148.386 106.3 146.772 104.6 145.566C102.9 144.36 100.907 143.602 98.8141 143.367C98.0069 143.249 97.1822 143.331 96.4164 143.606C95.6506 143.88 94.9686 144.337 94.4334 144.934C94.0054 145.641 93.8578 146.476 94.0185 147.281C94.1792 148.086 94.6371 148.807 95.3063 149.308C96.0009 149.778 96.8275 150.03 97.6745 150.03C98.5215 150.03 99.3481 149.778 100.043 149.308C100.719 148.815 101.261 148.168 101.619 147.425C101.977 146.681 102.14 145.863 102.096 145.044C101.973 143.396 101.218 141.852 99.978 140.717C99.4869 140.199 98.8857 139.791 98.2159 139.52C97.546 139.25 96.8236 139.123 96.0984 139.15C95.3776 139.204 94.7035 139.517 94.2075 140.027C93.7114 140.537 93.4289 141.208 93.415 141.909C94.1953 141.373 95.132 141.093 96.0882 141.11C97.0443 141.127 97.9696 141.441 98.7285 142.006C99.4874 142.57 100.04 143.355 100.306 144.246C100.571 145.137 100.536 146.087 100.204 146.956C99.9454 147.69 99.4156 148.304 98.7171 148.681C98.3623 148.854 97.9624 148.921 97.5681 148.874C97.1737 148.827 96.8029 148.667 96.5025 148.414C96.1776 148.063 95.9979 147.608 95.9979 147.137C95.9979 146.665 96.1776 146.21 96.5025 145.859C96.8434 145.52 97.2647 145.267 97.7296 145.122C98.1946 144.977 98.689 144.945 99.1697 145.028C100.129 145.202 101.032 145.594 101.805 146.173C104.1 147.801 105.843 150.057 106.811 152.651C107.778 155.245 107.926 158.06 107.236 160.736L110.21 162.146Z" fill="#FBDF6A"/>
<g style="mix-blend-mode:multiply">
<path d="M153.415 204.05C151.81 205.071 150.109 206.012 148.519 206.793C138.648 211.578 128.038 211.004 118.023 206.793C108.091 202.563 99.6536 195.489 93.7855 186.474C90.8191 181.648 88.4071 176.507 86.5947 171.146L80.415 174.177L104.203 233.955L151.938 234.146C152.516 230.143 153.415 204.05 153.415 204.05Z" fill="#F1EAE2"/>
</g>
<path d="M191.705 145.06C190.155 143.062 188.399 141.222 186.465 139.568C184.519 137.897 182.075 136.87 179.488 136.635C177.443 136.592 175.445 137.238 173.836 138.465C172.227 139.691 171.105 141.421 170.663 143.36C170.372 140.953 169.141 138.747 167.223 137.197C165.305 135.638 163.187 134.326 160.922 133.296C158.763 133.004 156.565 133.141 154.462 133.698C152.359 134.256 150.395 135.224 148.689 136.541C147.103 137.629 145.964 139.226 145.474 141.051C145.256 143.262 145.644 145.491 146.599 147.51C147.733 151.06 149.355 154.445 151.422 157.573C152.391 158.924 153.561 160.128 154.894 161.146L175.116 158.291C180.63 154.983 186.079 151.535 191.4 147.947C191.87 147.701 192.231 147.296 192.412 146.808C192.428 146.485 192.373 146.162 192.251 145.861C192.13 145.559 191.943 145.287 191.705 145.06Z" fill="#FBDF6A"/>
<path d="M188.813 146.091L185.123 143.239C183.616 141.923 181.88 140.915 180.01 140.27C179.09 139.95 178.099 139.923 177.165 140.192C176.23 140.461 175.395 141.014 174.766 141.78C174.234 142.756 173.826 143.799 173.553 144.884C173.458 145.527 173.163 146.12 172.712 146.572C172.261 147.024 171.68 147.311 171.056 147.387C170.433 147.463 169.803 147.325 169.263 146.994C168.723 146.663 168.303 146.157 168.067 145.555C167.258 144.363 166.821 142.937 166.06 141.696C165.221 140.401 164.109 139.32 162.808 138.535C161.508 137.751 160.052 137.283 158.551 137.166C155.626 137.003 152.73 137.846 150.314 139.565C147.952 141.245 145.861 143.3 144.116 145.655C143.534 146.393 143.032 147.618 143.825 148.239C144.618 148.86 145.346 148.239 145.929 147.769C147.709 146.276 149.343 144.598 151.221 143.223C153.095 141.751 155.347 140.887 157.694 140.74C158.893 140.684 160.087 140.934 161.171 141.47C162.255 142.005 163.195 142.809 163.908 143.81C164.652 144.967 164.992 146.343 165.72 147.484C166.559 148.772 167.844 149.676 169.309 150.008C170.774 150.339 172.305 150.072 173.585 149.262C174.64 148.327 175.576 147.256 176.368 146.075C176.763 145.495 177.271 145.009 177.86 144.648C178.448 144.286 179.103 144.058 179.783 143.978C180.563 144.078 181.314 144.346 181.989 144.765C182.663 145.184 183.246 145.744 183.699 146.41C184.588 147.755 185.734 148.897 187.065 149.765C187.709 150.128 188.463 150.218 189.169 150.017C189.519 149.906 189.827 149.685 190.05 149.384C190.273 149.084 190.401 148.719 190.415 148.339C190.399 147.333 189.574 146.662 188.813 146.091Z" fill="#E5B348"/>
<path d="M129.415 138.348C129.415 138.348 136.125 127.577 145.897 130.722C155.668 133.867 155.414 143.758 155.414 143.758C155.414 143.758 150.164 158.163 140.709 158.146C131.255 158.13 130.954 142.047 129.415 138.348Z" fill="#BE7139"/>
<g style="mix-blend-mode:multiply" opacity="0.55">
<path d="M151.862 134.377C151.452 136.123 150.552 137.704 149.276 138.92C146.722 141.29 142.931 143.381 139.583 141.225C136.728 139.348 135.554 135.924 132.746 134.146C131.488 135.327 130.37 136.658 129.415 138.113C131.001 141.85 131.001 158.146 140.694 158.146C150.386 158.146 155.415 143.578 155.415 143.578C155.228 140.191 153.98 136.96 151.862 134.377Z" fill="#C47F4C"/>
</g>
<path d="M135.776 164.665L160.473 161.319L165.415 160.262C163.737 159.988 162.08 159.592 160.457 159.076C156.821 157.127 155.386 153.553 156.997 150.124C158.065 147.834 161.86 142.196 157.65 140.376C156.959 140.11 156.22 139.993 155.482 140.035C153.864 140.073 152.277 140.497 150.848 141.273C149.419 142.049 148.189 143.155 147.255 144.503C145.47 147.119 144.322 150.254 141.133 151.473C135.154 153.829 136.988 145.705 135.553 142.456C134.889 141.162 133.932 140.049 132.762 139.207C130.994 137.701 128.862 136.705 126.588 136.322C124.315 135.94 121.982 136.184 119.832 137.029C117.282 138.266 115.211 140.337 113.949 142.911C112.744 145.328 111.855 147.895 111.302 150.547C110.872 152.48 110.25 155.112 108.257 155.99C106.264 156.867 103.841 154.121 102.438 152.74C99.7591 150.254 94.8804 149.491 91.5801 149.816C85.5055 150.498 80.8022 156.851 82.9386 162.813C84.3805 166.263 86.9491 169.099 90.2089 170.839L90.3046 170.742C90.735 170.937 90.464 170.985 90.8785 170.904C92.5526 172.35 95.2311 172.204 97.3517 172.058C101.864 171.765 106.153 171.375 110.681 170.953C118.062 170.271 125.333 169.02 132.603 168.418L136.573 168.126L135.776 164.665Z" fill="#FBDF6A"/>
<path d="M141.213 158.337C143.069 157.505 147.475 150.725 149.573 153.252C151.187 155.292 149.96 159.624 150.477 161.946L150.574 162.26L155.415 161.57C153.974 160.642 152.939 159.227 152.51 157.599C152.148 156.171 152.192 154.673 152.639 153.267C152.909 152.629 153.037 151.943 153.015 151.253C152.992 150.563 152.82 149.886 152.51 149.266C151.816 148.857 150.622 148.418 149.993 148.999C149.912 148.999 148.718 149.893 147.491 150.568C146.485 151.191 145.53 151.889 144.635 152.655C142.643 154.291 140.235 155.375 137.663 155.794C134.758 156.124 133.806 154.382 133.225 152.043C132.741 150.16 132.644 147.163 131.111 145.577C130.64 145.105 130.071 144.733 129.443 144.487C128.815 144.241 128.141 144.126 127.464 144.149C124.737 144.119 122.083 145 119.943 146.645C117.375 148.563 115.399 151.131 114.23 154.068C113.633 155.637 113.149 157.207 112.504 158.776C111.261 161.711 108.937 163.123 105.71 160.816C103.386 159.137 101.869 157.034 99.1091 155.841C95.7039 154.35 92.4279 154.021 89.4262 155.7C83.2937 159.074 87.538 165.948 93.1702 168.475C94.1224 168.899 94.1869 169.746 94.9616 168.475C95.7362 167.204 92.3795 165.524 91.7339 164.646C88.8936 161.177 93.5575 158.556 96.9788 159.137C100.4 159.718 102.482 162.966 105.855 163.892C107.283 164.218 108.775 164.16 110.171 163.723C111.567 163.286 112.814 162.487 113.779 161.413C116.215 158.839 117.845 155.418 119.847 152.53C121.138 150.678 124.381 147.822 127.109 149.925C129.497 151.714 129.61 155.48 131.805 157.599C134.484 160.141 138.325 159.655 141.213 158.337Z" fill="#E5B348"/>
<path d="M121.437 166.545C121.437 166.545 120.291 148.726 134.681 151.425C148.629 154.011 149.415 163.719 149.415 163.719C149.415 163.719 126.495 171.382 121.437 166.545Z" fill="#BE7139"/>
<path d="M185.415 150.539C185.415 150.539 174.173 138.919 164.103 149.793C158.209 156.162 163.846 163.146 163.846 163.146L185.415 150.539Z" fill="#BE7139"/>
<g style="mix-blend-mode:multiply" opacity="0.55">
<path d="M191.72 145.228L190.788 144.067C188.054 142.198 185.723 140.103 181.88 141.731C178.97 144.051 177.057 148.273 173.841 150.255C170.626 152.238 166.044 151.545 162.78 153.011C161.772 154.39 160.544 155.593 159.146 156.572C158.458 157.607 157.556 158.482 156.503 159.138C155.449 159.794 154.267 160.216 153.036 160.375C151.537 160.645 149.996 160.576 148.528 160.171C147.059 159.767 145.699 159.038 144.547 158.039C144.419 158.039 139.354 156.621 139.241 156.621C131.829 157.297 136.556 161.761 122.07 160.81C120.339 161.931 118.34 162.565 116.282 162.648C112.503 164.565 107.326 164.791 102.921 165.258C100.075 165.548 95.107 166.451 91.9878 164.968C90.9586 164.49 89.8216 164.294 88.6921 164.398C87.5626 164.503 86.4809 164.905 85.5566 165.564L84.415 166.386C85.8958 168.175 87.6813 169.686 89.6887 170.85L89.7851 170.753C90.2192 170.947 89.9459 170.995 90.3639 170.914C92.0521 172.349 94.7533 172.203 96.8916 172.058C101.442 171.768 105.767 171.382 110.333 170.963C117.777 170.286 125.109 169.045 132.44 168.449L136.444 168.159L136.331 167.675C140.574 166.766 144.761 165.615 148.872 164.227C148.828 163.79 148.742 163.358 148.615 162.938L160.497 161.326L162.104 160.988C162.438 161.781 162.853 162.537 163.342 163.244L169.42 159.731L175.112 158.893C179.613 156.105 184.051 153.188 188.44 150.207C188.643 150.195 188.842 150.157 189.035 150.094C189.287 150.011 189.517 149.874 189.712 149.693C189.906 149.513 190.059 149.292 190.161 149.047L191.399 148.209C191.869 147.955 192.23 147.536 192.412 147.033C192.429 146.7 192.377 146.367 192.258 146.056C192.139 145.745 191.956 145.463 191.72 145.228Z" fill="#C47F4C"/>
</g>
<path d="M75.415 167.592L93.5036 191.146L142.76 187.104L159.415 161.146L75.415 167.592Z" fill="#EFEFEC"/>
<g style="mix-blend-mode:multiply">
<path d="M105.923 167.146L78.415 169.301L95.0632 190.146L137.415 186.603C126.799 180.346 116.377 173.722 105.923 167.146Z" fill="#F2EBE5"/>
</g>
<g style="mix-blend-mode:multiply">
<path d="M172.243 204.727L174.62 162.146L170.712 162.727L170.058 205.098L155.543 234.646L155.415 238.146L157.106 237.033L171.079 213.179L180.139 221.824L180.761 221.421L181.415 217.824L172.243 204.727Z" fill="#EBE5DF"/>
</g>
<g style="mix-blend-mode:multiply" opacity="0.55">
<path d="M189.827 173.154L195.415 142.146L159.415 161.234C159.415 161.234 168.18 183.01 172.265 188.146C175.709 186.274 189.827 173.154 189.827 173.154Z" fill="#DBC9B0"/>
</g>
<path d="M173.783 180.146L200.415 161.283L196.305 142.146L159.415 161.331L173.783 180.146Z" fill="#EFEFEC"/>
<g style="mix-blend-mode:multiply">
<path d="M162.415 163.081L173.741 177.146L198.415 160.485L197.687 157.146C186.62 158.692 173.45 161.52 162.415 163.081Z" fill="#F2EBE5"/>
</g>
<circle cx="105.915" cy="250.646" r="3.5" fill="#73A624"/>
<path d="M181.293 256.214C180.254 258.04 177.279 257.498 175.658 256.524C174.037 255.55 171.861 253.231 173.71 250.154C175.559 247.077 178.733 249.079 180.355 250.053C181.976 251.028 182.332 254.387 181.293 256.214Z" fill="#73A624"/>
<path d="M212.185 179.885C213.991 181.467 212.011 185.376 210.092 187.434C208.172 189.491 204.344 192.144 201.345 189.346C198.347 186.549 202.223 182.531 204.142 180.474C206.062 178.416 210.38 178.303 212.185 179.885Z" fill="#BE7139"/>
<path d="M252.533 346.116C248.226 350.022 242.056 351.124 239.643 348.463C237.23 345.802 237.205 342.204 241.512 338.298C245.82 334.392 248.971 334.407 251.384 337.068C253.798 339.729 256.84 342.21 252.533 346.116Z" fill="#FF3333"/>
</g>
<defs>
<clipPath id="clip0">
<rect y="-58" width="375" height="812" rx="20" fill="white"/>
</clipPath>
</defs>
</svg>
