<svg width="375" height="416" viewBox="0 0 375 416" fill="none" xmlns="http://www.w3.org/2000/svg">
<g clip-path="url(#clip0)">
<rect y="-58" width="375" height="812" rx="20" fill="white"/>
<path d="M305.884 341.594C223.094 389.393 103.841 357.48 56.7338 275.888C9.62677 194.296 8.62086 113.671 91.4117 65.872C174.203 18.0727 235.201 47.2971 282.308 128.889C329.415 210.481 388.675 293.795 305.884 341.594Z" fill="#FBDF6A" fill-opacity="0.21"/>
<path d="M328.651 93.9405C316.813 83.7072 315.889 62.9206 326.565 50.5699C337.241 38.2192 350.095 33.2219 361.933 43.4552C373.771 53.6884 372.179 65.095 361.503 77.4457C350.827 89.7964 340.49 104.174 328.651 93.9405Z" fill="#FBDF6A" fill-opacity="0.21"/>
<path d="M361.79 335.124C372.855 346.189 368.689 370.569 353.279 385.978C337.87 401.388 317.415 403.646 310.737 397.26C304.059 390.874 304.377 372.644 319.787 357.235C335.196 341.825 350.725 324.059 361.79 335.124Z" fill="#FBDF6A" fill-opacity="0.21"/>
<path d="M-0.130309 275.266C14.9847 271.215 34.0148 287.013 39.655 308.063C45.2953 329.113 37.024 347.956 28.1545 350.546C19.285 353.136 3.65664 343.746 -1.98364 322.697C-7.62391 301.647 -15.2453 279.316 -0.130309 275.266Z" fill="#FBDF6A" fill-opacity="0.21"/>
<path d="M81.2936 123.405L130.076 197.175C130.076 197.175 157.692 195.483 168.18 180.315L142.464 96.2232C142.464 96.2232 100.26 119.455 81.2936 123.405Z" fill="#BA5F49"/>
<g style="mix-blend-mode:multiply" opacity="0.75">
<path d="M145.779 106.786L142.532 96.171C142.532 96.171 100.327 119.403 81.3611 123.352L91.7289 139.035C113.938 133.439 126.665 126.012 145.779 106.786Z" fill="#8F5243"/>
</g>
<path d="M148.887 141.889C144.627 132.882 133.598 129.162 124.253 133.579C114.908 137.996 110.785 148.878 115.045 157.885C119.305 166.892 130.334 170.612 139.679 166.195C149.024 161.778 153.146 150.896 148.887 141.889Z" fill="#CCB1B1"/>
<path d="M144.698 143.416C146.203 146.805 146.304 150.651 144.98 154.112C143.657 157.574 141.015 160.369 137.634 161.886C135.998 162.744 134.204 163.26 132.362 163.406C130.521 163.551 128.668 163.322 126.916 162.733C125.165 162.143 123.551 161.205 122.171 159.975C120.791 158.745 119.674 157.249 118.888 155.576C118.101 153.904 117.662 152.089 117.595 150.242C117.528 148.395 117.836 146.554 118.5 144.83C119.163 143.106 120.169 141.534 121.457 140.209C122.744 138.884 124.286 137.833 125.991 137.121C129.307 135.485 133.136 135.229 136.641 136.409C140.147 137.588 143.043 140.108 144.698 143.416Z" fill="#F0E1DD"/>
<path d="M128.081 155.563C127.788 154.519 127.807 153.411 128.136 152.377C128.464 151.343 129.088 150.428 129.93 149.744C130.932 148.697 132.317 148.111 133.311 147.124C134.305 146.137 134.071 144.613 133.882 143.216C133.704 142.039 133.459 140.872 133.15 139.722C129.952 139.926 126.61 142.841 125.071 147.175C123.183 152.455 124.668 157.829 128.404 159.158C128.884 159.325 129.386 159.42 129.893 159.438C129.141 158.221 128.533 156.921 128.081 155.563Z" fill="#8F4B46"/>
<path d="M135.211 139.939C135.44 140.862 135.639 141.818 135.809 142.805C136.075 143.709 136.131 144.661 135.974 145.59C135.817 146.519 135.451 147.399 134.903 148.165C133.435 149.763 129.883 151.08 129.75 153.702C129.928 155.683 130.713 157.561 131.997 159.081C133.56 158.459 134.963 157.492 136.102 156.254C137.241 155.015 138.086 153.536 138.575 151.925C140.416 146.654 138.943 141.297 135.211 139.939Z" fill="#8F4B46"/>
<g style="mix-blend-mode:screen">
<path d="M157.81 184.427C159.145 183.391 160.768 182.134 162.425 180.85C157.419 167.022 141.158 121.982 135.648 106.108C133.036 107.566 130.341 108.868 127.576 110.009C133.304 125.361 149.977 168.837 156.95 184.958C157.286 184.833 157.552 184.653 157.81 184.427Z" fill="#8F524D"/>
</g>
<g style="mix-blend-mode:multiply" opacity="0.55">
<path d="M123.668 153.921C115.465 146.199 108.668 136.765 101.349 128.195C99.6395 126.284 98.0669 124.255 96.6433 122.122C93.0907 123.517 89.4364 124.639 85.7125 125.476L130.381 193.31C130.381 193.31 155.329 191.981 164.798 178.117L161.913 168.738C148.082 169.71 134.517 164.113 123.668 153.921Z" fill="#8B4B3A"/>
</g>
<g style="mix-blend-mode:multiply" opacity="0.55">
<path d="M103.884 119.733C101.254 120.878 95.6695 122.471 93.2026 123.408C100.841 136.441 135.096 191.118 136.071 192.691C139.219 192.146 142.329 191.4 145.381 190.457C142.541 186.025 105.523 123.174 103.884 119.733Z" fill="#A75640"/>
</g>
<g style="mix-blend-mode:screen">
<path d="M143.908 128.813C144.176 129.722 144.171 130.691 143.891 131.596C143.612 132.502 143.071 133.305 142.337 133.905C141.603 134.504 140.709 134.874 139.765 134.966C138.822 135.059 137.872 134.871 137.035 134.427C136.198 133.982 135.51 133.299 135.059 132.466C134.607 131.632 134.412 130.683 134.498 129.739C134.583 128.795 134.945 127.897 135.539 127.158C136.133 126.42 136.931 125.873 137.835 125.586C138.445 125.399 139.087 125.334 139.722 125.394C140.358 125.455 140.976 125.641 141.54 125.94C142.104 126.24 142.603 126.648 143.01 127.141C143.416 127.634 143.721 128.202 143.908 128.813Z" fill="#B28784"/>
</g>
<g style="mix-blend-mode:screen">
<path d="M143.313 120.014C143.443 120.548 143.416 121.108 143.233 121.627C143.05 122.145 142.719 122.598 142.283 122.931C141.846 123.264 141.321 123.462 140.773 123.502C140.225 123.541 139.677 123.419 139.197 123.152C138.717 122.885 138.325 122.483 138.07 121.996C137.814 121.509 137.706 120.959 137.759 120.412C137.812 119.865 138.023 119.345 138.367 118.917C138.711 118.488 139.172 118.169 139.694 117.999C140.064 117.891 140.452 117.858 140.834 117.901C141.217 117.944 141.588 118.063 141.924 118.251C142.261 118.438 142.557 118.691 142.795 118.993C143.034 119.296 143.209 119.643 143.313 120.014Z" fill="#B28784"/>
</g>
<path d="M74.6916 118.937L74.9127 130.57C74.9127 130.57 95.1198 131.155 118.691 117.679C142.263 104.204 150.709 96.1423 150.709 96.1423L142.138 86.0254C142.138 86.0254 119.677 83.1262 74.6916 118.937Z" fill="#F2F2F2"/>
<g style="mix-blend-mode:screen" opacity="0.9">
<path d="M83.8115 124.594C84.1405 120.484 84.6934 116.395 85.4677 112.345L85.7441 110.642C82.2711 113.144 78.5631 115.936 74.7309 118.987L74.9126 130.57C77.6536 130.567 80.3906 130.365 83.1018 129.963C83.2478 128.163 83.4847 126.371 83.8115 124.594Z" fill="#F2F2F2"/>
</g>
<g style="mix-blend-mode:screen" opacity="0.9">
<path d="M123.728 114.751C143.473 103.077 150.675 96.1686 150.675 96.1686L142.138 86.0255C138.191 85.8614 134.245 86.3655 130.467 87.5165C128.761 96.6633 125.935 105.622 123.728 114.751Z" fill="#F2F2F2"/>
</g>
<path d="M74.6917 118.937L74.9127 130.57C74.9127 130.57 95.1198 131.155 118.691 117.679C142.263 104.204 150.709 96.1422 150.709 96.1422L142.138 86.0254C142.138 86.0254 123.448 108.524 74.6917 118.937Z" fill="#DEDEDE"/>
<g style="mix-blend-mode:screen" opacity="0.65">
<path d="M131.816 95.0535C129.534 96.8223 126.73 98.6163 123.513 100.541C124.729 104.066 126.319 107.653 127.169 110.216C127.385 110.915 127.619 111.6 127.888 112.366C132.464 109.578 136.221 107.127 139.297 104.986C136.572 101.856 134.072 98.5371 131.816 95.0535Z" fill="#C7CBC9"/>
</g>
<g style="mix-blend-mode:multiply" opacity="0.35">
<path d="M104.454 109.923C96.4427 113.144 88.2053 115.772 79.8084 117.787C79.8546 118.266 79.9008 118.744 79.917 119.219C80.0878 122.931 79.8985 126.598 80.3771 130.288C91.6881 129.07 102.697 125.881 112.906 120.863C108.938 118.271 105.961 114.416 104.454 109.923Z" fill="#8F838D"/>
</g>
<path d="M82.142 102.956L83.8024 114.421C94.0887 112.093 103.984 108.291 113.182 103.132C128.577 94.5046 132.631 89.8194 132.631 89.8194L126.33 81.1652C126.33 81.1652 114.495 80.2107 97.7607 90.1474C91.9239 93.5841 86.6552 97.9047 82.142 102.956Z" fill="#F2F2F2"/>
<g style="mix-blend-mode:screen" opacity="0.9">
<path d="M126.011 84.7696C126.295 84.3329 126.553 83.8624 126.81 83.3919C126.98 83.0384 127.201 82.7119 127.467 82.4231L126.405 81.0529C124.078 80.9802 121.751 81.1758 119.469 81.6358C119.362 83.2081 119.22 84.8067 119.04 86.3545C118.859 87.9023 118.66 89.3562 118.412 90.9565C121.073 89.0561 123.611 86.9898 126.011 84.7696Z" fill="#F2F2F2"/>
</g>
<g style="mix-blend-mode:screen" opacity="0.9">
<path d="M107.032 97.5014C108.145 97.0176 109.236 96.4699 110.31 95.9354C109.716 95.1038 109.429 94.0916 109.498 93.072C109.638 90.0397 110.179 86.967 110.572 83.9822C109.232 84.4524 107.82 85.005 106.417 85.6046C105.45 89.8737 104.823 94.2317 104.152 98.569C105.055 98.3025 106.05 97.9104 107.032 97.5014Z" fill="#F2F2F2"/>
</g>
<g style="mix-blend-mode:screen" opacity="0.9">
<path d="M86.9538 103.369C87.1374 102.721 87.341 102.076 87.5646 101.433C87.9911 99.7491 88.4346 98.0517 88.9043 96.3881C86.4715 98.3856 84.2095 100.582 82.1417 102.956L82.3903 104.848C83.8921 104.307 85.4033 103.812 86.9538 103.369Z" fill="#F2F2F2"/>
</g>
<path d="M108.632 92.9315C100.356 97.291 91.5514 100.565 82.437 102.673L82.1158 102.922L83.8024 114.421C94.0887 112.093 103.984 108.291 113.182 103.132C128.577 94.5047 132.631 89.8195 132.631 89.8195L126.421 81.2836C120.869 85.7138 114.913 89.6135 108.632 92.9315Z" fill="#DEDEDE"/>
<g style="mix-blend-mode:screen" opacity="0.65">
<path d="M119.947 86.0578C118.177 87.2666 116.51 88.3967 114.759 89.4553C116.162 92.8359 118.011 96.0598 119.623 99.2232C123.475 96.8608 126.285 94.8998 128.289 93.4007C125.647 90.8995 122.763 88.5049 119.947 86.0578Z" fill="#C7CBC9"/>
</g>
<g style="mix-blend-mode:multiply" opacity="0.35">
<path d="M104.108 99.2803C103.334 98.2823 102.535 97.2504 101.82 96.1531C95.6206 98.984 89.1411 101.156 82.4877 102.634L82.1665 102.882L83.8024 114.421C92.6735 112.421 101.258 109.316 109.355 105.178C107.44 103.366 105.685 101.393 104.108 99.2803Z" fill="#8F838D"/>
</g>
<path d="M88.6098 99.0804C93.1734 95.3413 98.108 92.0795 103.336 89.3461C108.093 87.1915 113.056 85.5228 118.148 84.3654C113.675 87.5486 109 90.439 104.153 93.0183C99.1271 95.4163 93.9322 97.4424 88.6098 99.0804Z" fill="#A1A8A6"/>
<g style="mix-blend-mode:multiply">
<path d="M98.4151 91.7249C97.5719 92.243 96.8032 93.1366 95.9468 93.6378C94.3839 95.0047 92.9312 96.4926 91.6022 98.0878C93.7385 97.3528 96.7422 96.2704 100.325 94.7125C99.8815 91.103 98.9126 91.5289 98.4151 91.7249Z" fill="#A1A8A6"/>
</g>
<path d="M94.134 96.3965C93.6179 96.4986 93.1007 96.0059 92.8541 95.3036C92.1349 93.1535 91.0839 89.5277 91.5932 88.9977C91.9517 87.6097 99.3443 91.4922 99.3063 91.7923C99.1662 92.659 98.7955 94.6249 98.279 94.9711C96.969 95.6332 95.5743 96.1128 94.134 96.3965Z" fill="#DEDEDE"/>
<g style="mix-blend-mode:screen" opacity="0.65">
<path d="M92.1619 88.7195C94.0939 89.1175 96.1976 91.413 98.245 94.9976C98.7691 94.5914 99.1491 92.6725 99.2723 91.8189C99.3441 91.4925 93.2525 88.4158 92.1619 88.7195Z" fill="#DEDEDE"/>
</g>
<path d="M307.797 119.713C301.865 113.233 260.339 114.54 240.229 129.487C233.372 134.579 229.345 142.066 223.902 147.647C197.098 175.664 206.622 195.948 228.8 207.9C241.318 214.625 267.496 214.271 289.701 201.665C311.906 189.059 320.124 178.142 322.356 165.481C326.682 138.309 307.797 119.713 307.797 119.713ZM293.402 166.788C290.082 166.08 285.238 164.474 280.258 163.548C280.105 163.561 279.95 163.561 279.796 163.548C276.586 163.662 273.387 163.98 270.217 164.501C268.955 165.484 267.638 166.393 266.271 167.224C263.622 168.266 261.367 170.113 259.822 172.506C259.277 173.427 258.555 174.232 257.7 174.874C256.56 176.66 255.551 178.525 254.679 180.456C250.135 190.502 245.753 175.664 241.291 172.097C238.896 168.122 261.482 143.4 275.551 145.796C277.397 145.831 279.229 146.124 280.993 146.667L281.565 146.885C286.708 147.62 291.824 148.9 296.885 149.989C307.688 152.385 304.178 169.238 293.402 166.87V166.788Z" fill="#EE9843"/>
<g style="mix-blend-mode:multiply" opacity="0.65">
<path d="M306.872 119.032C298.409 113.369 259.523 115.139 240.23 129.487C233.372 134.579 229.345 142.066 223.902 147.647C202.949 169.429 204.228 186.691 216.283 198.834L217.399 199.814C222.841 200.713 228.882 199.814 233.508 200.195C241.672 201.094 249.836 209.616 257.999 205.368C265.7 201.339 271.333 201.257 279.769 200.467C287.361 199.732 289.756 190.72 297.294 188.896C300.341 188.188 306.655 188.379 307.008 183.995C307.015 181.902 307.489 179.837 308.396 177.951C311.934 171.934 321.077 172.288 318.846 164.12C316.941 157.286 318.056 149.907 321.567 145.878C319.227 131.148 309.702 122.19 306.872 119.032ZM293.266 166.87C289.946 166.162 285.103 164.555 280.123 163.63C279.969 163.643 279.814 163.643 279.66 163.63C276.45 163.743 273.251 164.062 270.081 164.583C268.82 165.565 267.502 166.474 266.136 167.305C263.487 168.348 261.231 170.195 259.686 172.587C259.141 173.508 258.42 174.313 257.564 174.956C256.425 176.742 255.415 178.607 254.543 180.537C252.339 185.384 250.217 184.458 248.067 181.79C245.128 180.047 242.216 172.723 239.25 170.355C236.855 166.407 259.441 141.658 273.51 144.054C275.355 144.102 277.185 144.395 278.953 144.925C279.159 144.99 279.359 145.072 279.551 145.17C284.694 145.878 289.81 147.157 294.872 148.274C296.844 148.638 298.604 149.738 299.797 151.35C306.818 155.952 303.008 168.993 293.402 166.87H293.266Z" fill="#D98B43"/>
</g>
<path d="M215.63 182.334C216.283 183.015 216.936 183.696 217.616 184.349L219.712 183.478C225.535 181.082 230.76 177.434 236.611 175.038L242.053 172.832C241.865 172.621 241.655 172.429 241.427 172.261C239.032 168.285 261.619 143.563 275.687 145.959C277.533 145.994 279.365 146.288 281.13 146.831L281.701 147.049C284.64 147.484 287.579 148.083 290.518 148.709C292.967 145.605 295.389 142.393 298.056 139.371C302.216 134.125 306.842 129.268 311.879 124.859C310.621 123.064 309.258 121.346 307.798 119.713C301.865 113.233 260.34 114.54 240.23 129.487C233.372 134.579 229.345 142.066 223.902 147.647C212.528 159.518 208.119 170.436 208.473 179.966C209.768 179.649 211.126 179.703 212.392 180.122C213.657 180.541 214.779 181.307 215.63 182.334Z" fill="#822A00"/>
<path d="M319.173 165.835C318.737 162.813 315.172 157.531 315.635 154.672C316.098 151.813 319.798 149.227 321.077 146.804C323.499 142.529 321.077 137.519 319.581 133.19C313.676 116.146 300.532 104.384 270.191 106.181C254.489 107.08 223.93 114.894 208.038 144.299C198.514 161.887 201.153 174.466 209.725 186.691C212.964 191.319 222.542 199.188 229.4 198.48C232.747 198.099 234.434 196.247 238.162 197.01C240.969 197.657 243.593 198.932 245.836 200.74C251.85 205.123 256.04 204.225 262.544 200.74C266.136 198.752 267.524 197.445 271.633 198.344C274.581 199.147 277.709 198.985 280.559 197.881C286.981 195.158 285.756 185.438 294.818 186.99C298.11 187.508 301.321 188.379 303.662 185.357C306.002 182.335 303.335 179.312 304.913 176.29C308.26 169.974 320.751 176.454 319.173 165.835ZM239.278 151.051C250.788 126.71 272.966 137.791 275.062 142.229C283.361 159.518 227.903 175.228 239.278 151.051Z" fill="#A73D22"/>
<g style="mix-blend-mode:screen" opacity="0.75">
<path d="M232.665 152.14C233.613 144.442 236.415 137.089 240.828 130.713C243.099 127.54 246.16 125.016 249.707 123.392C253.253 121.769 257.163 121.101 261.047 121.455C271.279 122.953 278.708 133.326 289.021 134.252C291.135 134.503 293.278 134.221 295.255 133.432C297.232 132.642 298.981 131.371 300.341 129.732C301.635 128.043 302.285 125.948 302.175 123.823C302.065 121.698 301.203 119.681 299.743 118.134C298.365 116.995 296.773 116.144 295.062 115.629C280.697 110.399 264.953 110.376 250.572 115.565C236.192 120.754 224.086 130.826 216.365 144.026C213.359 148.391 211.964 153.666 212.419 158.947C213.29 164.12 218.269 168.857 223.304 167.768C224.859 167.325 226.291 166.53 227.49 165.444C228.689 164.358 229.621 163.011 230.215 161.506C231.43 158.502 232.253 155.354 232.665 152.14Z" fill="#B1523A"/>
</g>
<g style="mix-blend-mode:screen" opacity="0.75">
<path d="M271.496 167.305C262.026 171.743 251.06 171.444 240.638 172.342C238.077 172.456 235.56 173.037 233.209 174.058C232.04 174.582 231.023 175.394 230.252 176.417C229.481 177.441 228.982 178.643 228.8 179.911C228.474 184.349 233.263 187.453 237.617 188.352C246.379 190.121 255.359 187.208 263.768 184.186C271.928 181.623 279.7 177.959 286.871 173.295C294.079 168.525 299.212 161.199 301.239 152.793C301.833 150.337 301.681 147.758 300.804 145.388C299.797 143.074 297.402 140.678 294.98 141.358C286.272 143.7 286.871 160.118 271.496 167.305Z" fill="#B1523A"/>
</g>
<path d="M286.163 116.99C285.343 116.939 284.527 117.139 283.823 117.562L278.816 119.931L280.258 122.49C282.749 120.843 285.632 119.885 288.612 119.713C288.068 118.542 287.388 117.29 286.163 116.99Z" fill="#CC3131"/>
<path d="M313.702 138.935C312.884 138.857 312.062 139.048 311.362 139.48L306.355 141.848L307.797 144.408C310.272 142.728 313.142 141.723 316.124 141.494C315.607 140.405 314.927 139.153 313.702 138.935Z" fill="#CC3131"/>
<path d="M311.852 148.437L306.219 146.613C303.757 149.425 301.131 152.089 298.355 154.59C300.813 154.998 303.095 156.125 304.913 157.83C306.815 154.415 309.147 151.259 311.852 148.437Z" fill="#EAD4AF"/>
<path d="M221.698 164.338L216.065 162.541C213.61 165.351 210.984 168.006 208.201 170.491C210.663 170.878 212.954 171.986 214.786 173.676C216.691 170.286 219.013 167.149 221.698 164.338Z" fill="#EAD4AF"/>
<path d="M278.381 175.827C277.595 175.412 276.71 175.223 275.823 175.283H270.707C270.272 177.107 269.809 178.904 269.346 180.728C272.819 179.641 276.474 179.261 280.095 179.612C280.104 178.894 279.955 178.183 279.659 177.529C279.362 176.875 278.926 176.294 278.381 175.827Z" fill="#FFCC00"/>
<path d="M291.361 142.529C290.524 142.09 289.58 141.901 288.639 141.984H283.551L282.163 147.43C285.614 146.377 289.243 146.034 292.83 146.422C292.88 145.706 292.775 144.987 292.521 144.315C292.267 143.643 291.872 143.034 291.361 142.529Z" fill="#FFCC00"/>
<path d="M223.63 149.935C223.63 151.459 223.875 152.984 223.984 154.536L234.488 152.194C233.892 151.048 233.664 149.745 233.835 148.464C230.498 149.33 227.076 149.823 223.63 149.935Z" fill="#14B661"/>
<path d="M241.046 128.072L232.61 131.693C232.285 133.122 232.221 134.597 232.42 136.049C235.474 134.183 238.796 132.797 242.271 131.938C241.505 130.791 241.081 129.45 241.046 128.072Z" fill="#CC3131"/>
<path d="M255.604 128.915L259.768 127.118C259.078 126.728 258.48 126.197 258.011 125.559C257.542 124.92 257.213 124.19 257.047 123.416C256.753 121.882 256.025 120.464 254.951 119.332L251.767 120.039C253.074 123.007 254.298 125.948 255.604 128.915Z" fill="#FFCC00"/>
<path d="M232.61 165.236L236.801 163.439C236.105 163.058 235.501 162.529 235.03 161.889C234.56 161.249 234.236 160.515 234.079 159.736C233.786 158.203 233.058 156.785 231.984 155.652L228.8 156.36L232.61 165.236Z" fill="#FFCC00"/>
<path d="M275.823 128.534L273.102 127.118L267.034 131.856L271.551 133.871L275.823 128.534Z" fill="#EAD4AF"/>
<path d="M248.285 187.208L245.563 185.792L239.495 190.503L244.039 192.517L248.285 187.208Z" fill="#EAD4AF"/>
<path d="M292.585 129.215C292.517 128.811 292.334 128.435 292.06 128.131C291.785 127.827 291.429 127.608 291.034 127.5C290.637 127.392 290.215 127.416 289.832 127.568C289.45 127.72 289.127 127.993 288.911 128.344C288.788 128.588 288.688 128.843 288.612 129.106C287.905 131.675 287.849 134.379 288.449 136.975C289.744 136.357 291.196 136.148 292.612 136.376C292.031 135.01 291.888 133.497 292.204 132.047C292.528 131.14 292.658 130.175 292.585 129.215Z" fill="#14B661"/>
<path d="M272.803 183.369C272.721 182.967 272.53 182.594 272.252 182.292C271.974 181.99 271.619 181.769 271.225 181.654C270.828 181.559 270.412 181.593 270.036 181.749C269.66 181.906 269.342 182.177 269.13 182.525C268.975 182.754 268.873 183.014 268.83 183.287C268.123 185.856 268.067 188.56 268.667 191.156C269.952 190.506 271.408 190.278 272.83 190.503C272.249 189.127 272.106 187.606 272.422 186.146C272.729 185.254 272.859 184.311 272.803 183.369Z" fill="#14B661"/>
<path d="M240.611 180.238L244.747 180.864C245.183 178.142 245.618 175.555 246.081 172.887L242.87 174.167C242.135 176.127 241.373 178.196 240.611 180.238Z" fill="#CC3131"/>
<path d="M218.651 176.671C218.885 176.82 219.166 176.878 219.44 176.835L224.637 176.426C224.338 173.248 224.69 170.043 225.671 167.006C224.17 167.795 222.52 168.258 220.828 168.367C220.12 170.79 219.385 173.214 218.678 175.637C218.487 175.991 218.406 176.426 218.651 176.671Z" fill="#FFCC00"/>
<path d="M300.858 169.456C300.967 169.534 301.091 169.589 301.222 169.617C301.353 169.645 301.489 169.646 301.62 169.619L306.818 169.211C306.52 166.039 306.843 162.839 307.77 159.791C306.28 160.583 304.638 161.047 302.953 161.152C302.246 163.575 301.511 166.026 300.776 168.449C300.695 168.721 300.613 169.211 300.858 169.456Z" fill="#FFCC00"/>
<path d="M294.981 174.602C294.959 171.782 295.563 168.992 296.749 166.434H292.559L289.837 173.949L294.981 174.602Z" fill="#14B661"/>
<path d="M254.109 193.525L258.816 193.742C259.144 190.867 259.717 188.025 260.531 185.248C260.28 185.061 259.985 184.942 259.675 184.904C259.365 184.866 259.05 184.909 258.762 185.03L254.109 193.525Z" fill="#6BC3C3"/>
<path d="M211.575 152.712L209.344 160.063L213.507 160.39L214.868 152.222L211.575 152.712Z" fill="#CC3131"/>
<path d="M223.958 138.309C223.034 138.431 222.161 138.797 221.427 139.37L217.427 142.093L220.148 145.442C222.009 143.063 224.483 141.237 227.305 140.16C226.466 139.138 225.269 138.475 223.958 138.309Z" fill="#6BC3C3"/>
<path d="M235.739 173.622C234.816 173.744 233.942 174.111 233.208 174.684L229.208 177.406L231.929 180.755C233.839 178.319 236.38 176.455 239.277 175.364C238.368 174.346 237.1 173.721 235.739 173.622Z" fill="#6BC3C3"/>
<path d="M305.947 134.279C306.392 134.449 306.86 134.55 307.335 134.579C307.686 134.564 308.027 134.457 308.323 134.267C308.619 134.078 308.86 133.813 309.02 133.5C309.181 133.188 309.255 132.838 309.237 132.487C309.218 132.136 309.106 131.796 308.914 131.502C306.548 130.625 304.285 129.493 302.165 128.126C301.049 129.324 299.934 130.522 298.845 131.747L305.947 134.279Z" fill="#6BC3C3"/>
<path d="M284.775 169.946C285.214 170.136 285.686 170.238 286.163 170.246C286.518 170.24 286.865 170.138 287.166 169.95C287.467 169.763 287.712 169.497 287.874 169.181C288.036 168.865 288.11 168.511 288.086 168.157C288.063 167.802 287.944 167.461 287.742 167.169C285.379 166.287 283.116 165.155 280.993 163.793L277.673 167.414L284.775 169.946Z" fill="#6BC3C3"/>
<path d="M273.21 125.784C273.649 125.976 274.12 126.087 274.598 126.111C274.941 126.109 275.278 126.021 275.577 125.854C275.877 125.688 276.13 125.448 276.312 125.158C276.492 124.853 276.587 124.505 276.587 124.151C276.587 123.797 276.492 123.449 276.312 123.143C273.903 122.247 271.595 121.097 269.428 119.713L266.108 123.252L273.21 125.784Z" fill="#6BC3C3"/>
<path d="M243.413 142.965C243.85 143.16 244.323 143.262 244.801 143.264C245.156 143.256 245.502 143.154 245.803 142.967C246.104 142.78 246.35 142.516 246.516 142.202C246.69 141.895 246.781 141.548 246.781 141.195C246.781 140.842 246.69 140.495 246.516 140.187C244.15 139.31 241.887 138.178 239.767 136.811L236.447 140.432L243.413 142.965Z" fill="#6BC3C3"/>
<path d="M270.68 112.906C268.664 114.163 266.414 114.996 264.067 115.356C264.23 116.554 264.394 117.752 264.53 118.95C267.179 117.497 270.032 116.451 272.993 115.847C271.908 115.16 271.091 114.122 270.68 112.906Z" fill="#14B661"/>
<path d="M252.883 169.102C251.595 169.018 250.34 168.662 249.2 168.057C248.06 167.451 247.061 166.61 246.27 165.59L243.141 168.912C246.06 169.947 248.81 171.405 251.305 173.241C251.876 171.879 252.393 170.491 252.883 169.102Z" fill="#EAD4AF"/>
<path d="M246.978 122.081C245.691 121.994 244.437 121.636 243.297 121.031C242.158 120.426 241.159 119.587 240.366 118.569L237.236 121.864C240.146 122.931 242.893 124.397 245.4 126.22C245.89 124.831 246.434 123.47 246.978 122.081Z" fill="#EAD4AF"/>
<path d="M293.021 181.572C291.735 181.482 290.482 181.122 289.343 180.517C288.204 179.912 287.204 179.075 286.409 178.06L283.279 181.354C286.191 182.416 288.94 183.882 291.443 185.711L293.021 181.572Z" fill="#EAD4AF"/>
<path d="M280.911 162.078C281.122 162.338 281.394 162.541 281.703 162.669C282.011 162.798 282.347 162.847 282.68 162.813C283.014 162.768 283.33 162.636 283.598 162.43C283.865 162.225 284.074 161.953 284.204 161.642C284.041 159.355 283.904 157.068 283.741 154.781C282.593 155.101 281.488 155.558 280.449 156.142C279.891 157.794 279.891 159.582 280.449 161.234C280.574 161.53 280.729 161.813 280.911 162.078Z" fill="#CC3131"/>
<path d="M264.775 165.291C264.53 164.964 263.986 165.046 263.605 165.291L260.666 165.998C260.04 168.531 259.442 171.063 258.816 173.622H262.734C263.442 171.172 264.122 168.694 264.802 166.216C264.875 166.072 264.91 165.912 264.905 165.75C264.9 165.588 264.856 165.431 264.775 165.291Z" fill="#14B661"/>
<path d="M223.604 187.78C226.691 187.574 229.789 187.934 232.747 188.842C233.046 187.154 233.373 185.466 233.699 183.778C230.984 184.021 228.252 184.021 225.536 183.778C224.883 185.221 224.23 186.5 223.604 187.78Z" fill="#14B661"/>
<path d="M188.174 223.4C183.225 226.763 182.769 234.29 178.86 238.821C174.952 243.351 168.331 244.456 165.442 249.489C162.553 254.521 165.186 261.585 165.554 267.749C165.369 273.724 164.315 279.64 162.425 285.312C161.062 291.047 160.546 297.438 163.709 302.137C165.641 304.656 168.24 306.581 171.212 307.693C174.184 308.805 177.409 309.06 180.519 308.428C186.84 307.024 192.848 304.467 198.244 300.885C214.239 292.201 229.495 282.217 243.857 271.034C247.218 268.699 250.044 265.676 252.15 262.166C253.139 260.428 253.61 258.442 253.505 256.445C253.401 254.448 252.725 252.523 251.559 250.898C249.418 248.548 245.951 247.954 243.535 245.893C239.151 242.187 238.691 235.998 233.208 232.955C228.466 230.939 223.352 229.947 218.2 230.046C214.994 229.905 211.827 229.284 208.806 228.203C205.836 226.983 203.329 224.766 200.199 223.405C198.356 222.397 196.289 221.868 194.187 221.867C192.086 221.866 190.019 222.393 188.174 223.4Z" fill="#D2923D"/>
<g style="mix-blend-mode:screen" opacity="0.32">
<path d="M185.025 266.771C193.961 263.283 191.743 257.384 195.374 250.307C197.32 246.183 200.408 242.703 204.272 240.282C208.268 237.58 213.093 236.388 217.886 236.919C223.324 237.905 227.457 241.809 232.737 243.017C235.39 243.564 238.148 243.299 240.649 242.256C238.546 238.894 237.192 235.072 233.264 232.872C228.522 230.855 223.408 229.864 218.256 229.962C215.05 229.821 211.884 229.2 208.862 228.119C205.892 226.9 203.385 224.683 200.255 223.321C198.407 222.336 196.342 221.83 194.248 221.848C192.154 221.866 190.098 222.408 188.267 223.425C183.318 226.788 182.862 234.315 178.954 238.846C175.045 243.376 168.425 244.481 165.535 249.514C162.646 254.546 164.871 260.545 165.516 266.289C171.714 268.953 178.701 269.126 185.025 266.771Z" fill="#A24B27"/>
</g>
<g style="mix-blend-mode:multiply" opacity="0.55">
<path d="M171.991 276.486C177.484 274.916 186.52 272.905 186.511 266.013C183.216 269.359 178.934 271.559 174.296 272.287C171.148 272.482 168.039 271.501 165.573 269.535C165.426 272.744 164.921 275.927 164.067 279.024C166.618 278.352 169.262 277.21 171.991 276.486Z" fill="#B9866E"/>
</g>
<g style="mix-blend-mode:multiply" opacity="0.55">
<path d="M193.171 243.358C194.533 242.421 195.958 241.578 197.435 240.834C200.851 239.789 204.177 238.47 207.382 236.89C209.859 234.895 211.712 232.23 212.721 229.213C211.358 228.982 210.019 228.625 208.721 228.148C207.724 227.709 206.758 227.198 205.833 226.62C205.03 229.137 203.872 231.526 202.395 233.716C199.836 237.386 194.208 239.216 193.171 243.358Z" fill="#B9866E"/>
</g>
<g style="mix-blend-mode:multiply" opacity="0.55">
<path d="M223.21 261.216C218.267 263.196 212.526 261.37 210.318 268.299C209.611 271.198 208.119 273.846 206.006 275.953C205.615 276.31 205.161 276.651 204.739 277C211.13 277.746 215.34 269.735 219.931 265.98C222.684 264.207 225.116 261.978 227.123 259.39C225.852 260.068 224.546 260.678 223.21 261.216Z" fill="#B9866E"/>
</g>
<g style="mix-blend-mode:multiply" opacity="0.55">
<path d="M216.002 245.351C215.935 245.553 215.881 245.758 215.838 245.966C218.283 245.048 220.82 244.397 223.406 244.026C228.658 243.088 233.439 240.399 236.97 236.397C235.946 234.943 234.615 233.733 233.07 232.853C230.89 231.733 228.535 230.995 226.107 230.668C225.901 233.378 224.902 235.967 223.234 238.112C221.153 240.855 217.529 242.461 216.002 245.351Z" fill="#B9866E"/>
</g>
<g style="mix-blend-mode:multiply" opacity="0.55">
<path d="M251.376 250.85C251.087 256.509 247.716 261.249 239.627 262.918C231.538 264.588 230.863 272.815 224.101 276.058C217.339 279.301 210.589 277.305 206.434 283.254C205.087 285.193 203.293 286.78 201.205 287.882C199.117 288.984 196.795 289.568 194.435 289.585C189.73 289.683 188.102 296.041 184.753 298.347C182.743 299.739 180.56 300.864 178.26 301.695C170.518 304.413 165.533 301.107 161.554 295.761C161.731 298.067 162.459 300.296 163.677 302.261C165.626 304.763 168.238 306.668 171.215 307.758C174.192 308.848 177.416 309.081 180.52 308.428C186.841 307.024 192.849 304.467 198.245 300.886C214.24 292.201 229.496 282.217 243.858 271.034C247.219 268.699 250.045 265.676 252.151 262.166C253.14 260.428 253.611 258.443 253.506 256.445C253.402 254.448 252.726 252.523 251.56 250.899L251.376 250.85Z" fill="#B9866E"/>
</g>
<path d="M243.717 265.623C243.247 268.004 243.055 269.963 240.828 271.15C238.448 272.439 235.658 272.738 233.06 271.983C232.702 275.184 233.281 277.217 229.868 278.649C227.489 279.646 224.915 280.088 222.341 279.941C221.726 282.25 221.993 283.474 219.757 284.692C216.967 286.28 213.718 286.869 210.548 286.36C208.213 292.035 203.695 295.513 198.838 293.956C198.405 295.738 197.284 297.276 195.721 298.235C192.702 299.919 189.207 300.543 185.793 300.009C182.378 305.033 180.192 307.55 174.585 307.573L217.107 344.25C234.083 340.21 249.687 331.739 262.328 319.702L250.263 263.312C248.448 264.876 246.111 265.701 243.717 265.623Z" fill="#BE4C1B"/>
<path d="M185.83 304.568C194.069 318.804 205.323 331.062 218.802 340.482C218.802 340.482 203.679 310.542 185.83 304.568Z" fill="#8F3300"/>
<path d="M200.143 297.962C200.143 297.962 208.126 322.671 228.468 337.221C228.468 337.221 216.073 305.7 200.143 297.962Z" fill="#8F3300"/>
<path d="M212.672 290.388C216.993 306.331 225.719 320.733 237.849 331.94C237.849 331.94 226.292 299.62 212.672 290.388Z" fill="#8F3300"/>
<path d="M224.571 284.062C224.571 284.062 229.079 310.681 244.978 326.948C244.978 326.948 236.926 295.694 224.571 284.062Z" fill="#8F3300"/>
<path d="M235.92 278.316C237.157 294.062 242.324 309.244 250.947 322.472C250.947 322.472 247.226 293.888 235.92 278.316Z" fill="#8F3300"/>
<path d="M245.537 271.284C245.919 287.519 249.598 303.507 256.349 318.274C256.349 318.274 255.16 285.748 245.537 271.284Z" fill="#8F3300"/>
<g style="mix-blend-mode:multiply" opacity="0.5">
<path d="M234.16 313.254C225.457 315.126 216.386 314.198 208.243 310.604C203.975 308.939 199.739 307.152 195.592 305.157C193.161 304.015 190.851 302.543 188.486 301.154C185.302 305.812 183.327 308.154 178.027 308.259L217.665 342.157C233.418 338.364 247.889 330.47 259.609 319.274L255.631 300.808C249.57 306.613 242.208 310.88 234.16 313.254Z" fill="#9E5838"/>
</g>
<g style="mix-blend-mode:screen" opacity="0.32">
<path d="M218.964 233.612C218.679 233.537 218.382 233.523 218.091 233.57C217.8 233.618 217.523 233.726 217.276 233.888L206.874 238.799C205.304 239.444 203.833 240.306 202.502 241.359C201.144 242.448 200.264 244.023 200.047 245.75C199.952 246.556 200.121 247.372 200.527 248.074C200.934 248.777 201.558 249.329 202.304 249.647C203.04 249.776 203.796 249.703 204.494 249.436C205.192 249.169 205.804 248.718 206.266 248.131C207.226 246.952 208.009 245.639 208.59 244.234C209.199 242.824 210.097 241.558 211.227 240.518C213.643 238.623 217.431 238.874 219.02 236.001C219.748 235.37 219.854 233.981 218.964 233.612Z" fill="#B27B60"/>
</g>
<g style="mix-blend-mode:screen" opacity="0.32">
<path d="M169.314 256.355L168.478 260.979C168.205 261.968 168.224 263.015 168.532 263.993C169.035 264.746 169.813 265.271 170.699 265.458C171.585 265.645 172.509 265.478 173.274 264.992C176.008 263.512 177.125 260.183 178.597 257.377C180.231 254.383 182.53 251.804 185.317 249.837C186.317 249.232 187.248 248.518 188.092 247.708C188.526 247.296 188.861 246.791 189.073 246.231C189.285 245.671 189.368 245.07 189.316 244.474C189.133 243.755 188.722 243.116 188.144 242.653C187.566 242.189 186.852 241.927 186.112 241.906C184.62 241.886 183.144 242.215 181.803 242.868C179.547 243.707 177.385 244.777 175.351 246.062C173.329 247.387 171.701 249.23 170.634 251.399C169.988 252.989 169.545 254.654 169.314 256.355Z" fill="#B27B60"/>
</g>
<g style="mix-blend-mode:screen" opacity="0.32">
<path d="M228.478 255.663C227.269 256.348 226.129 257.148 225.074 258.053C222.507 259.92 219.413 260.92 216.24 260.909C219.184 258.558 221.717 255.735 223.738 252.554C225.766 249.358 228.801 246.93 232.363 245.654C233.302 245.394 234.288 245.352 235.245 245.533C236.203 245.713 237.106 246.111 237.885 246.696C238.627 247.372 239.122 248.275 239.295 249.264C239.467 250.253 239.305 251.271 238.835 252.158C238.275 252.917 237.553 253.541 236.722 253.987C235.891 254.433 234.972 254.688 234.03 254.735C232.142 254.75 230.268 255.063 228.478 255.663Z" fill="#B27B60"/>
</g>
<g style="mix-blend-mode:screen" opacity="0.32">
<path d="M193.085 266.94C193.388 267.475 193.827 267.92 194.359 268.23C194.89 268.539 195.494 268.702 196.109 268.701C197.356 268.693 198.58 268.36 199.661 267.735C204.175 264.881 207.945 260.991 210.657 256.389C211.288 255.502 211.912 254.152 211.151 253.422C210.908 253.214 210.621 253.063 210.312 252.981C210.004 252.898 209.68 252.887 209.366 252.946C203.754 253.939 198.644 256.809 194.875 261.087C194.113 261.912 193.502 262.865 193.07 263.903C192.871 264.385 192.769 264.901 192.772 265.423C192.774 265.944 192.881 266.46 193.085 266.94Z" fill="#B27B60"/>
</g>
<g style="mix-blend-mode:screen" opacity="0.32">
<path d="M177.938 281.004C176.588 281.876 175.147 282.597 173.641 283.156C171.649 283.604 169.728 284.324 167.932 285.295C167.078 285.921 166.405 286.76 165.979 287.729C165.553 288.698 165.39 289.762 165.506 290.814C165.654 291.839 166.081 292.803 166.74 293.601C167.4 294.398 168.266 294.999 169.244 295.337C170.355 295.622 171.514 295.66 172.641 295.447C173.768 295.235 174.835 294.777 175.766 294.107C177.632 292.728 179.329 291.133 180.821 289.355C182.312 287.559 184.131 286.064 186.18 284.947C187.837 284.168 189.765 283.857 191.368 283.032C192.229 282.69 192.985 282.127 193.56 281.401C194.135 280.675 194.509 279.81 194.645 278.894C194.638 278.143 194.411 277.411 193.99 276.789C193.57 276.167 192.976 275.682 192.282 275.396C190.862 274.864 189.298 274.857 187.872 275.375C186.409 275.939 185.019 276.676 183.73 277.569C181.843 278.714 179.886 279.875 177.938 281.004Z" fill="#B27B60"/>
</g>
<path d="M197.977 229.77L197.362 229.606C197.047 229.328 196.672 229.127 196.266 229.019C195.86 228.91 195.435 228.898 195.024 228.983C194.209 229.203 193.452 229.598 192.805 230.139C191.609 231.035 190.581 232.133 189.766 233.385C189.409 233.82 189.174 234.341 189.084 234.896C188.994 235.451 189.052 236.02 189.253 236.545C189.429 236.804 189.665 237.017 189.942 237.165C190.218 237.314 190.526 237.393 190.839 237.396C191.458 237.416 192.075 237.299 192.644 237.053C194.257 236.486 195.727 235.572 196.948 234.375C197.786 233.623 198.346 232.611 198.537 231.501C198.523 230.443 199.003 229.878 197.977 229.77Z" fill="#652700"/>
<path d="M166.985 258.669C167.908 258.915 168.911 258.49 169.7 257.876C170.579 257.287 171.322 256.519 171.882 255.622C172.18 255.158 172.379 254.639 172.467 254.095C172.555 253.551 172.53 252.995 172.395 252.462C172.257 251.958 171.956 251.514 171.538 251.2C171.121 250.886 170.611 250.719 170.089 250.727C170.046 250.686 169.995 250.655 169.939 250.635C169.884 250.615 169.825 250.606 169.766 250.609C169.707 250.611 169.649 250.626 169.596 250.651C169.542 250.676 169.495 250.712 169.455 250.756L168.348 250.955C167.391 251.533 166.629 252.384 166.159 253.398C165.689 254.413 165.533 255.545 165.711 256.648C165.736 257.065 165.866 257.469 166.089 257.822C166.312 258.175 166.62 258.467 166.985 258.669Z" fill="#B27B60"/>
<path d="M223.042 250.094C222.11 249.62 221.076 249.382 220.03 249.403C218.984 249.423 217.96 249.701 217.047 250.212C216.36 250.575 215.784 251.116 215.378 251.778C214.918 252.385 214.715 253.147 214.812 253.902C214.965 254.511 215.315 255.051 215.808 255.439C216.301 255.827 216.909 256.04 217.536 256.045C218.797 256.033 220.03 255.678 221.105 255.018C221.698 254.797 222.236 254.449 222.681 253.998C223.126 253.547 223.466 253.004 223.678 252.407C224.135 250.814 224.105 250.806 223.042 250.094Z" fill="#652700"/>
<path d="M200.968 244.643C200.151 244.44 199.29 244.502 198.511 244.823C197.732 245.143 197.076 245.704 196.638 246.424C195.76 247.909 195.257 249.586 195.173 251.309C195.052 251.783 195.041 252.278 195.142 252.757C195.243 253.235 195.453 253.684 195.756 254.068C196.632 254.862 198.006 254.404 199.128 253.78C200.951 252.608 202.394 250.93 203.28 248.952C203.607 248.42 203.784 247.81 203.794 247.186C203.804 246.562 203.645 245.947 203.335 245.406C202.441 244.31 202.168 244.963 200.968 244.643Z" fill="#652700"/>
<path d="M170.425 287.937C171.007 286.618 171.38 285.216 171.532 283.781C171.624 283.467 171.648 283.137 171.604 282.813C171.56 282.489 171.448 282.178 171.275 281.9C171.139 281.772 170.976 281.676 170.799 281.618C170.621 281.56 170.433 281.542 170.248 281.565C170.062 281.588 169.884 281.652 169.726 281.751C169.568 281.851 169.434 281.984 169.333 282.141L168.621 282.215L168.467 282.174L168.264 282.318C167.425 282.427 166.655 282.845 166.107 283.49C165.567 284.143 165.119 284.867 164.776 285.641C164.429 286.188 164.202 286.802 164.111 287.443C164.02 288.083 164.067 288.736 164.247 289.358C164.555 289.953 165.064 290.42 165.684 290.676C166.304 290.932 166.994 290.959 167.632 290.754C168.27 290.508 168.848 290.13 169.33 289.645C169.811 289.159 170.184 288.577 170.425 287.937Z" fill="#652700"/>
<path d="M184.331 294.114C185.061 294.426 185.859 294.545 186.648 294.461C187.438 294.377 188.193 294.092 188.841 293.634C190.157 292.69 191.294 291.519 192.2 290.177C192.555 289.789 192.833 289.337 193.016 288.845C193.095 288.604 193.107 288.346 193.051 288.099C192.995 287.852 192.873 287.624 192.698 287.441C192.522 287.292 192.314 287.183 192.091 287.124C191.867 287.064 191.633 287.055 191.406 287.097C190.949 287.206 190.497 287.415 190.048 287.494C189.04 287.477 188.037 287.332 187.066 287.062C186.202 286.985 185.335 287.179 184.586 287.618C183.837 288.056 183.244 288.718 182.888 289.51C182.523 290.321 182.469 291.238 182.735 292.086C183.001 292.935 183.569 293.656 184.331 294.114Z" fill="#652700"/>
<path d="M204.258 273.113C204.753 272.416 205.164 271.662 205.482 270.868C205.606 270.643 205.673 270.391 205.679 270.134C205.684 269.877 205.627 269.623 205.513 269.393C205.096 268.853 204.251 269.057 203.607 269.248L200.439 270.382C199.656 270.62 198.91 270.965 198.222 271.407C197.531 271.866 197.046 272.576 196.87 273.388C196.798 273.96 196.921 274.54 197.221 275.033C197.52 275.526 197.978 275.903 198.52 276.102C199.085 276.29 199.686 276.348 200.277 276.272C200.868 276.195 201.434 275.986 201.933 275.659C202.873 274.977 203.664 274.111 204.258 273.113Z" fill="#652700"/>
<path d="M221.712 272.652C221.528 272 221.097 271.445 220.512 271.105C219.926 270.764 219.231 270.665 218.573 270.827C217.89 271.024 217.263 271.38 216.743 271.867C216.224 272.353 215.828 272.956 215.588 273.626C215.093 274.936 214.91 276.343 215.053 277.736C215.026 277.961 215.051 278.189 215.125 278.403C215.2 278.617 215.321 278.811 215.482 278.971C215.727 279.105 216.003 279.172 216.282 279.166C216.562 279.159 216.835 279.079 217.073 278.933C218.79 278.192 220.212 276.9 221.115 275.263C221.619 274.492 221.831 273.566 221.712 272.652Z" fill="#652700"/>
<path d="M242.095 258.103C242.751 257.88 243.346 257.508 243.834 257.017C244.338 256.497 244.626 255.806 244.641 255.083C244.657 254.359 244.398 253.656 243.918 253.116C243.5 252.756 243.006 252.496 242.473 252.354C241.94 252.212 241.382 252.192 240.841 252.296C239.429 252.489 238.082 253.011 236.909 253.821C236.027 254.38 235.337 255.198 234.934 256.163C234.734 256.623 234.68 257.134 234.778 257.626C234.877 258.118 235.124 258.567 235.487 258.914C235.896 259.165 236.357 259.32 236.836 259.368C237.314 259.415 237.796 259.354 238.247 259.188C239.561 258.948 240.849 258.585 242.095 258.103Z" fill="#652700"/>
<path d="M183.866 258.748C183.18 258.538 182.459 258.469 181.746 258.546C180.554 258.91 179.495 259.616 178.701 260.576C177.906 261.537 177.41 262.709 177.275 263.948C177.187 264.395 177.213 264.858 177.351 265.292C177.488 265.726 177.733 266.119 178.063 266.433C178.339 266.635 178.662 266.764 179.002 266.809C179.341 266.853 179.686 266.811 180.006 266.687C180.669 266.441 181.269 266.048 181.761 265.539C182.605 264.735 183.336 263.821 183.935 262.821C184.311 262.229 184.575 261.573 184.714 260.886C184.77 260.547 184.756 260.201 184.675 259.868C184.594 259.535 184.447 259.221 184.242 258.947C183.788 258.298 184.443 258.44 183.866 258.748Z" fill="#652700"/>
<path d="M168.215 258.997C169.686 258.591 171.028 257.813 172.111 256.738C172.633 256.176 173.009 255.495 173.206 254.755C173.403 254.014 173.416 253.236 173.243 252.49C173.031 251.852 172.636 251.291 172.109 250.875C171.581 250.459 170.944 250.207 170.275 250.149L169.998 250.076C169.293 250.303 168.654 250.697 168.135 251.224C167.616 251.752 167.232 252.398 167.016 253.106C166.591 254.529 166.386 256.008 166.407 257.493C166.36 257.767 166.375 258.047 166.453 258.314C166.53 258.58 166.668 258.825 166.855 259.03C167.212 259.422 167.694 259.22 168.215 258.997Z" fill="#652700"/>
<path d="M126.259 228.585C123.346 227.741 120.435 230.077 117.419 230.046C114.403 230.016 111.737 227.781 108.861 228.312C105.984 228.843 104.159 232.301 101.919 234.458C99.5328 236.446 96.8599 238.061 93.9911 239.25C91.2666 240.661 88.528 242.738 87.6586 245.72C87.32 247.42 87.4581 249.18 88.0576 250.806C88.6571 252.432 89.6947 253.861 91.0555 254.933C93.8051 257.063 96.934 258.652 100.276 259.615C109.23 263.048 118.46 265.71 127.866 267.573C129.904 268.046 132.022 268.05 134.062 267.586C135.075 267.343 135.993 266.803 136.697 266.034C137.402 265.266 137.86 264.305 138.014 263.274C138.13 261.532 137.137 259.948 137.04 258.214C136.886 255.138 138.977 252.768 138.136 249.57C137.248 246.988 135.847 244.611 134.018 242.584C132.973 241.262 132.118 239.8 131.479 238.24C130.892 236.637 130.845 234.927 130.349 233.301C130.101 232.242 129.598 231.26 128.886 230.438C128.174 229.616 127.272 228.98 126.259 228.585Z" fill="#993A12"/>
<g style="mix-blend-mode:screen" opacity="0.32">
<path d="M108.932 242.022C113.343 244.338 114.811 241.485 118.729 240.488C120.957 239.853 123.323 239.896 125.525 240.612C127.926 241.309 130.011 242.814 131.428 244.873C132.865 247.392 132.937 250.422 134.309 252.897C135.006 254.138 136.049 255.149 137.311 255.807C137.814 253.78 138.737 251.895 138.104 249.549C137.216 246.966 135.815 244.59 133.986 242.563C132.941 241.24 132.086 239.778 131.447 238.218C130.86 236.616 130.813 234.906 130.317 233.28C130.066 232.231 129.566 231.258 128.859 230.444C128.153 229.63 127.26 228.998 126.257 228.602C123.345 227.759 120.433 230.095 117.417 230.064C114.401 230.033 111.735 227.798 108.859 228.329C105.983 228.861 104.418 231.789 102.452 233.999C103.527 237.393 105.841 240.258 108.932 242.022Z" fill="#A24B27"/>
</g>
<g style="mix-blend-mode:multiply" opacity="0.55">
<path d="M100.762 240.126C103.272 241.797 107.198 244.753 109.821 242.346C107.34 242.165 104.986 241.176 103.12 239.529C101.949 238.332 101.262 236.743 101.193 235.069C99.8783 236.144 98.4364 237.052 96.8997 237.774C98.2182 238.591 99.5153 239.3 100.762 240.126Z" fill="#8C3A12"/>
</g>
<g style="mix-blend-mode:multiply" opacity="0.55">
<path d="M120.616 237.232C121.434 237.459 122.238 237.737 123.021 238.064C124.553 239.066 126.162 239.945 127.832 240.694C129.387 240.981 130.993 240.799 132.445 240.172C132.079 239.571 131.759 238.944 131.489 238.294C131.303 237.746 131.151 237.187 131.034 236.62C129.834 237.14 128.566 237.488 127.269 237.654C125.104 237.836 122.497 236.241 120.616 237.232Z" fill="#8C3A12"/>
</g>
<g style="mix-blend-mode:multiply" opacity="0.55">
<path d="M124.321 255.513C121.888 254.203 120.544 251.24 117.145 252.847C115.794 253.588 114.258 253.924 112.721 253.814L111.874 253.707C113.809 256.587 118.343 255.44 121.367 255.964C122.979 256.477 124.671 256.691 126.36 256.597C125.656 256.284 124.974 255.922 124.321 255.513Z" fill="#8C3A12"/>
</g>
<g style="mix-blend-mode:multiply" opacity="0.55">
<path d="M127.696 247.035L127.384 247.136C128.589 247.816 129.717 248.624 130.748 249.547C132.848 251.305 135.486 252.291 138.224 252.339C138.414 251.412 138.392 250.455 138.158 249.538C137.818 248.278 137.276 247.082 136.553 245.997C135.505 246.853 134.211 247.354 132.86 247.426C131.162 247.527 129.327 246.627 127.696 247.035Z" fill="#8C3A12"/>
</g>
<path d="M138.015 263.274C135.823 265.192 132.882 265.539 129.433 262.836C125.983 260.133 122.621 262.833 119.103 261.228C115.778 259.753 113.901 256.142 110.141 256.579C108.898 256.733 107.635 256.575 106.467 256.121C105.299 255.666 104.262 254.929 103.449 253.974C101.785 252.007 98.7099 253.69 96.5377 253.098C95.2764 252.767 94.0642 252.271 92.9326 251.623C89.143 249.386 88.7426 246.173 89.505 242.651C88.6368 243.544 87.9936 244.631 87.6285 245.821C87.2899 247.521 87.428 249.282 88.0276 250.908C88.6271 252.534 89.6647 253.962 91.0254 255.035C93.7751 257.165 96.904 258.754 100.246 259.716C109.2 263.149 118.43 265.812 127.836 267.675C129.874 268.148 131.992 268.152 134.032 267.687C135.065 267.443 136 266.89 136.711 266.102C137.423 265.314 137.878 264.327 138.015 263.274Z" fill="#792C12"/>
<path d="M129.834 265.486C128.783 266.161 127.913 266.789 126.743 266.324C125.392 265.79 124.303 264.751 123.704 263.427C122.382 264.437 121.8 265.434 120.051 264.545C118.81 263.934 117.722 263.052 116.867 261.964C115.732 262.47 115.39 263.094 114.116 262.616C112.498 262.031 111.133 260.902 110.255 259.422C107.2 260.528 104.255 259.943 103.177 257.365C102.752 257.591 102.287 257.728 101.808 257.77C101.329 257.812 100.847 257.757 100.39 257.609C98.6519 256.958 97.1808 255.745 96.2092 254.163C93.0155 254.567 91.2419 254.57 89.2715 252.248L89.4007 284.058C97.0637 289.755 106.177 293.175 115.696 293.925L133.101 267.411C132.457 267.321 131.836 267.105 131.276 266.774C130.715 266.444 130.225 266.006 129.834 265.486Z" fill="#BE4C1B"/>
<path d="M94.4584 255.786C91.5601 264.634 90.5593 273.994 91.5212 283.255C91.5212 283.255 98.3299 265.411 94.4584 255.786Z" fill="#8F3300"/>
<path d="M102.089 259.3C102.089 259.3 94.9831 271.872 96.3231 286.095C96.3231 286.095 104.675 268.815 102.089 259.3Z" fill="#8F3300"/>
<path d="M109.454 261.727C104.598 269.661 101.966 278.756 101.833 288.058C101.833 288.058 110.654 270.82 109.454 261.727Z" fill="#8F3300"/>
<path d="M116.109 264.344C116.109 264.344 107.272 276.17 106.46 289.224C106.46 289.224 115.963 273.811 116.109 264.344Z" fill="#8F3300"/>
<path d="M122.296 266.92C116.506 273.526 112.427 281.454 110.416 290.006C110.416 290.006 120.331 277.439 122.296 266.92Z" fill="#8F3300"/>
<path d="M128.351 268.32C122.122 274.744 117.252 282.36 114.032 290.71C114.032 290.71 126.373 277.695 128.351 268.32Z" fill="#8F3300"/>
<g style="mix-blend-mode:multiply" opacity="0.5">
<path d="M108.07 279.293C104.17 276.263 101.316 272.086 99.9104 267.35C99.0743 264.943 98.2944 262.508 97.6248 260.034C97.245 258.598 97.0122 257.111 96.7448 255.619C93.7823 255.999 92.1318 256.001 90.2972 253.853L90.4153 283.396C97.539 288.685 106.008 291.858 114.852 292.553L120.683 283.666C116.176 283.301 111.836 281.796 108.07 279.293Z" fill="#9E5838"/>
</g>
<g style="mix-blend-mode:screen" opacity="0.32">
<path d="M133.065 244.15C132.918 243.879 132.675 243.672 132.383 243.571L127.004 241.133C126.23 240.733 125.404 240.445 124.549 240.278C124.123 240.189 123.683 240.191 123.257 240.282C122.832 240.373 122.43 240.552 122.077 240.807C121.729 241.071 121.479 241.442 121.365 241.863C121.252 242.284 121.281 242.731 121.448 243.134C121.65 243.461 121.933 243.73 122.27 243.914C122.606 244.099 122.985 244.192 123.369 244.186C124.141 244.162 124.904 244.022 125.634 243.77C126.365 243.52 127.144 243.445 127.909 243.549C129.434 243.848 130.654 245.443 132.197 245.181C132.707 245.035 133.232 244.628 133.065 244.15Z" fill="#B27B60"/>
</g>
<g style="mix-blend-mode:screen" opacity="0.32">
<path d="M107.564 232.17L105.512 233.403C105.03 233.62 104.631 233.989 104.378 234.454C103.988 235.318 104.729 236.255 105.606 236.682C107.203 236.996 108.857 236.84 110.368 236.232C112.068 235.863 113.832 235.9 115.516 236.34C116.07 236.527 116.641 236.659 117.221 236.732C117.521 236.757 117.823 236.714 118.104 236.607C118.385 236.5 118.638 236.33 118.845 236.112C119.048 235.782 119.144 235.398 119.121 235.011C119.098 234.625 118.956 234.255 118.715 233.952C118.215 233.365 117.59 232.896 116.888 232.579C115.807 231.967 114.662 231.474 113.475 231.11C112.284 230.748 111.015 230.727 109.813 231.05C109.017 231.322 108.261 231.699 107.564 232.17Z" fill="#B27B60"/>
</g>
<g style="mix-blend-mode:screen" opacity="0.32">
<path d="M128.234 255.675C127.561 255.431 126.866 255.255 126.158 255.149C124.518 254.744 123.052 253.819 121.981 252.511C123.871 252.873 125.809 252.904 127.71 252.605C129.622 252.298 131.581 252.671 133.247 253.658C133.679 253.947 134.041 254.329 134.306 254.776C134.572 255.223 134.734 255.724 134.78 256.242C134.808 256.762 134.659 257.277 134.356 257.701C134.054 258.125 133.616 258.435 133.115 258.577C132.627 258.617 132.137 258.544 131.682 258.364C131.227 258.185 130.819 257.904 130.49 257.542C129.828 256.818 129.068 256.19 128.234 255.675Z" fill="#B27B60"/>
</g>
<g style="mix-blend-mode:screen" opacity="0.32">
<path d="M111.689 245.34C111.601 245.65 111.59 245.976 111.657 246.291C111.724 246.606 111.867 246.899 112.074 247.145C112.51 247.642 113.068 248.015 113.693 248.229C116.307 249.057 119.088 249.216 121.78 248.692C122.348 248.641 123.061 248.415 123.08 247.855C123.061 247.685 123.005 247.52 122.914 247.375C122.823 247.229 122.7 247.107 122.554 247.016C120.295 245.111 117.443 244.053 114.489 244.026C113.944 243.991 113.397 244.065 112.881 244.244C112.617 244.334 112.374 244.477 112.169 244.666C111.964 244.855 111.8 245.084 111.689 245.34Z" fill="#B27B60"/>
</g>
<g style="mix-blend-mode:screen" opacity="0.32">
<path d="M101.025 244.147C100.198 243.906 99.3982 243.581 98.6378 243.177C97.7851 242.523 96.8497 241.985 95.8561 241.577C95.3147 241.438 94.7455 241.453 94.2119 241.619C93.6784 241.786 93.2016 242.097 92.8348 242.519C92.4681 242.941 92.2258 243.457 92.135 244.008C92.0443 244.56 92.1087 245.126 92.321 245.643C92.5859 246.189 92.9665 246.671 93.4362 247.055C93.9059 247.439 94.4536 247.717 95.0412 247.868C96.2277 248.167 97.4461 248.321 98.6697 248.327C99.8964 248.295 101.117 248.509 102.259 248.958C103.14 249.351 103.884 249.99 104.782 250.384C105.209 250.617 105.691 250.728 106.177 250.706C106.662 250.684 107.132 250.529 107.537 250.259C107.827 249.979 108.032 249.621 108.125 249.228C108.218 248.835 108.197 248.424 108.063 248.042C107.781 247.28 107.241 246.639 106.537 246.233C105.836 245.84 105.092 245.528 104.32 245.302L101.025 244.147Z" fill="#B27B60"/>
</g>
<path d="M127.277 234.545L127.18 234.2C127.171 233.983 127.112 233.772 127.008 233.582C126.905 233.393 126.759 233.229 126.582 233.105C126.224 232.861 125.822 232.691 125.399 232.604C124.671 232.446 123.922 232.41 123.182 232.498C122.575 232.58 121.894 232.827 121.751 233.406C121.722 233.565 121.728 233.729 121.769 233.886C121.809 234.043 121.884 234.189 121.987 234.314C122.194 234.563 122.449 234.768 122.735 234.918C123.498 235.333 124.341 235.578 125.208 235.636C125.748 235.723 126.301 235.605 126.759 235.305C127.203 234.993 127.572 234.987 127.277 234.545Z" fill="#652700"/>
<path d="M105.936 231.999C106.061 232.227 106.24 232.42 106.458 232.561C106.676 232.702 106.926 232.786 107.185 232.807C107.706 232.953 108.253 232.986 108.788 232.905C109.056 232.866 109.313 232.77 109.54 232.623C109.768 232.476 109.961 232.282 110.107 232.053C110.248 231.825 110.313 231.558 110.294 231.291C110.274 231.023 110.17 230.769 109.997 230.564C109.996 230.502 109.972 230.442 109.929 230.397C109.885 230.353 109.827 230.326 109.764 230.324L109.303 229.949C108.764 229.765 108.182 229.75 107.635 229.907C107.088 230.064 106.602 230.384 106.242 230.826C106.103 230.983 106.002 231.172 105.949 231.376C105.896 231.579 105.891 231.793 105.936 231.999Z" fill="#B27B60"/>
<path d="M128.409 251.517C128.27 250.98 128.005 250.485 127.636 250.072C127.267 249.658 126.805 249.339 126.288 249.14C125.935 249.007 125.556 248.959 125.182 249C124.993 249.023 124.811 249.083 124.645 249.177C124.48 249.27 124.334 249.395 124.217 249.545C124.061 249.822 123.991 250.138 124.017 250.455C124.042 250.771 124.162 251.073 124.361 251.32C124.793 251.824 125.351 252.204 125.977 252.421C126.264 252.584 126.586 252.678 126.916 252.696C127.246 252.713 127.575 252.653 127.878 252.521C128.475 252.245 128.555 252.168 128.409 251.517Z" fill="#652700"/>
<path d="M122.837 240.763C122.648 240.371 122.337 240.052 121.951 239.851C121.566 239.65 121.126 239.579 120.696 239.649C119.841 239.803 119.039 240.173 118.366 240.723C118.148 240.85 117.961 241.022 117.817 241.229C117.672 241.435 117.574 241.67 117.53 241.917C117.539 242.533 118.171 242.947 118.763 243.127C119.818 243.44 120.942 243.436 121.995 243.115C122.598 242.928 123.245 242.536 123.341 241.916C123.437 241.296 123.074 241.39 122.837 240.763Z" fill="#652700"/>
<path d="M95.7163 243.509C96.4238 243.251 97.0902 242.891 97.6949 242.442C97.8508 242.365 97.9887 242.256 98.0995 242.121C98.2103 241.987 98.2915 241.831 98.3379 241.663C98.3468 241.564 98.3329 241.465 98.2971 241.372C98.2614 241.28 98.2048 241.197 98.1318 241.13C98.0587 241.063 97.9712 241.013 97.876 240.986C97.7808 240.958 97.6806 240.953 97.583 240.97L97.3004 240.706L97.3202 240.55L97.1992 240.535C96.8615 240.237 96.4279 240.07 95.9773 240.064C95.5381 240.075 95.1028 240.15 94.6851 240.287C94.3459 240.339 94.0218 240.463 93.7345 240.651C93.4473 240.838 93.2035 241.086 93.0197 241.375C92.9063 241.708 92.9064 242.068 93.02 242.401C93.1335 242.733 93.3542 243.018 93.6472 243.212C93.9522 243.403 94.2939 243.528 94.6503 243.579C95.0066 243.631 95.3698 243.607 95.7163 243.509Z" fill="#652700"/>
<path d="M98.1004 251.435C98.2266 251.845 98.4551 252.216 98.7645 252.514C99.074 252.811 99.454 253.025 99.8688 253.134C100.702 253.33 101.563 253.379 102.413 253.281C102.681 253.28 102.945 253.224 103.189 253.116C103.313 253.066 103.421 252.982 103.5 252.874C103.579 252.766 103.626 252.638 103.635 252.505C103.635 252.379 103.606 252.254 103.55 252.14C103.495 252.027 103.414 251.927 103.315 251.85C103.105 251.7 102.872 251.6 102.665 251.433C102.458 251.267 102.116 250.503 101.806 250.042C101.546 249.665 101.171 249.382 100.737 249.235C100.303 249.088 99.8338 249.086 99.3983 249.228C98.9525 249.377 98.5756 249.683 98.3372 250.088C98.0987 250.494 98.0146 250.972 98.1004 251.435Z" fill="#652700"/>
<path d="M113.209 252.05C113.648 252.009 114.079 251.91 114.492 251.755C114.752 251.648 115.016 251.506 115.068 251.231C115.12 250.957 114.762 250.595 114.454 250.398L112.911 249.553C112.558 249.319 112.172 249.14 111.767 249.021C111.56 248.958 111.343 248.939 111.129 248.963C110.914 248.987 110.707 249.055 110.52 249.162C110.26 249.349 110.072 249.62 109.988 249.929C109.904 250.238 109.929 250.567 110.059 250.86C110.176 251.145 110.355 251.4 110.585 251.605C110.814 251.811 111.087 251.962 111.383 252.046C111.985 252.171 112.606 252.172 113.209 252.05Z" fill="#652700"/>
<path d="M119.472 259.009C119.651 258.69 119.708 258.317 119.634 257.959C119.56 257.601 119.36 257.282 119.069 257.061C118.766 256.854 118.419 256.723 118.056 256.677C117.692 256.631 117.323 256.671 116.978 256.796C116.297 257.068 115.693 257.504 115.22 258.066C115.122 258.144 115.043 258.241 114.986 258.352C114.93 258.463 114.898 258.585 114.892 258.71C114.919 258.855 114.984 258.99 115.081 259.102C115.178 259.213 115.304 259.296 115.444 259.342C116.319 259.786 117.32 259.913 118.278 259.701C118.514 259.673 118.741 259.597 118.946 259.478C119.151 259.359 119.33 259.199 119.472 259.009Z" fill="#652700"/>
<path d="M132.071 262.099C132.382 262.278 132.727 262.388 133.084 262.42C133.462 262.433 133.829 262.295 134.105 262.037C134.381 261.779 134.544 261.422 134.558 261.044C134.534 260.75 134.451 260.464 134.311 260.205C134.172 259.945 133.98 259.717 133.748 259.536C133.194 259.04 132.528 258.684 131.808 258.5C131.296 258.342 130.747 258.352 130.241 258.529C129.995 258.622 129.782 258.787 129.632 259.004C129.483 259.22 129.403 259.477 129.403 259.741C129.457 259.996 129.563 260.237 129.714 260.45C129.865 260.663 130.059 260.842 130.282 260.976C130.847 261.399 131.445 261.775 132.071 262.099Z" fill="#652700"/>
<path d="M111.616 238.849C111.471 238.499 111.254 238.184 110.978 237.925C110.452 237.587 109.838 237.411 109.212 237.419C108.587 237.427 107.978 237.619 107.461 237.971C107.257 238.095 107.087 238.267 106.966 238.473C106.845 238.678 106.777 238.91 106.767 239.148C106.792 239.328 106.858 239.501 106.961 239.651C107.064 239.801 107.2 239.926 107.36 240.014C107.66 240.133 107.981 240.191 108.304 240.186C108.892 240.253 109.488 240.228 110.069 240.111C110.422 240.06 110.761 239.935 111.063 239.745C111.213 239.649 111.342 239.523 111.442 239.376C111.542 239.229 111.611 239.063 111.646 238.888C111.787 238.607 111.978 238.895 111.616 238.849Z" fill="#652700"/>
<path d="M106.17 232.643C106.836 233.059 107.598 233.295 108.383 233.328C108.775 233.342 109.165 233.255 109.514 233.074C109.863 232.894 110.159 232.626 110.374 232.298C110.538 231.994 110.613 231.651 110.592 231.307C110.57 230.962 110.453 230.631 110.253 230.35L110.125 230.246C109.804 230.044 109.438 229.924 109.06 229.894C108.681 229.864 108.301 229.927 107.952 230.076C107.25 230.385 106.603 230.807 106.038 231.327C105.822 231.51 105.584 231.726 105.601 232.009C105.617 232.292 105.926 232.489 106.17 232.643Z" fill="#652700"/>
<path d="M129.908 367.366C123.936 372.782 113.568 372.311 108.264 366.462C102.959 360.612 101.464 354.012 107.436 348.596C113.408 343.18 118.937 344.48 124.242 350.33C129.546 356.179 135.88 361.951 129.908 367.366Z" fill="#FBD246"/>
<path d="M199.105 165.296C194.798 169.202 188.628 170.305 186.215 167.644C183.802 164.982 183.777 161.384 188.084 157.478C192.391 153.572 195.543 153.588 197.956 156.249C200.369 158.91 203.412 161.39 199.105 165.296Z" fill="#D56C48"/>
<path d="M159.422 266.566C160.357 269.583 159.484 272.875 157.62 273.453C155.755 274.03 153.977 273.217 153.042 270.199C152.107 267.182 152.838 265.633 154.702 265.055C156.567 264.477 158.486 263.548 159.422 266.566Z" fill="#D56C48"/>
<circle cx="169.5" cy="208.5" r="3.5" fill="#A73D22"/>
<path d="M118.68 199.995C117.036 201.745 113.198 199.631 111.208 197.641C109.218 195.652 106.7 191.733 109.6 188.834C112.499 185.934 116.38 189.947 118.37 191.937C120.36 193.926 120.324 198.245 118.68 199.995Z" fill="#E3AB5C"/>
<path d="M13.2471 158.114C12.5953 149.88 19.5164 141.764 27.6314 141.122C35.7464 140.479 42.0727 143.397 42.7245 151.631C43.3763 159.866 38.8299 163.538 30.7148 164.18C22.5998 164.822 13.8988 166.349 13.2471 158.114Z" fill="#F89945"/>
<path d="M274.475 41.3631C275.252 44.2606 273.316 47.616 270.46 48.3811C267.605 49.1463 265.153 48.522 264.377 45.6244C263.6 42.7268 264.981 41.1153 267.837 40.3502C270.693 39.585 273.699 38.4655 274.475 41.3631Z" fill="#FFCC00"/>
</g>
<defs>
<clipPath id="clip0">
<rect y="-58" width="375" height="812" rx="20" fill="white"/>
</clipPath>
</defs>
</svg>
