<svg width="22" height="22" viewBox="0 0 22 22" fill="none" xmlns="http://www.w3.org/2000/svg">
<path d="M16.0417 11C16.0417 11.506 15.6311 11.9167 15.1251 11.9167C14.6191 11.9167 14.2084 11.506 14.2084 11C14.2084 10.494 14.6191 10.0833 15.1251 10.0833C15.6311 10.0833 16.0417 10.4931 16.0417 11ZM11.0001 10.0833C10.4941 10.0833 10.0834 10.494 10.0834 11C10.0834 11.506 10.4941 11.9167 11.0001 11.9167C11.5061 11.9167 11.9167 11.506 11.9167 11C11.9167 10.4931 11.5061 10.0833 11.0001 10.0833ZM6.87508 10.0833C6.36908 10.0833 5.95842 10.494 5.95842 11C5.95842 11.506 6.36908 11.9167 6.87508 11.9167C7.38108 11.9167 7.79175 11.506 7.79175 11C7.79175 10.4931 7.38108 10.0833 6.87508 10.0833ZM19.7084 11C19.7084 15.8015 15.8016 19.7083 11.0001 19.7083C6.19858 19.7083 2.29175 15.8015 2.29175 11C2.29175 6.19849 6.19858 2.29166 11.0001 2.29166C15.8016 2.29166 19.7084 6.19757 19.7084 11ZM18.7917 11C18.7917 6.70357 15.2965 3.20832 11.0001 3.20832C6.70367 3.20832 3.20841 6.70357 3.20841 11C3.20841 15.2964 6.70367 18.7917 11.0001 18.7917C15.2965 18.7917 18.7917 15.2964 18.7917 11Z" fill="#FF7643"/>
</svg>
