<svg width="16" height="17" viewBox="0 0 16 17" fill="none" xmlns="http://www.w3.org/2000/svg">
<path d="M15.9989 8.3441C15.9989 7.67295 15.9445 7.18319 15.8266 6.67529H8.16272V9.70453H12.6612C12.5706 10.4573 12.0808 11.5911 10.9924 12.3529L10.9772 12.4543L13.4004 14.3315L13.5682 14.3482C15.1101 12.9243 15.9989 10.8292 15.9989 8.3441Z" fill="#4285F4"/>
<path d="M8.16271 16.3254C10.3666 16.3254 12.2168 15.5998 13.5682 14.3482L10.9924 12.3528C10.3032 12.8335 9.37802 13.1691 8.16271 13.1691C6.00414 13.1691 4.17208 11.7452 3.519 9.7771L3.42327 9.78523L0.903617 11.7352L0.870667 11.8268C2.21297 14.4933 4.97016 16.3254 8.16271 16.3254Z" fill="#34A853"/>
<path d="M3.519 9.7771C3.34668 9.26921 3.24695 8.72499 3.24695 8.16269C3.24695 7.60034 3.34668 7.05618 3.50994 6.54828L3.50537 6.44011L0.954141 4.4588L0.870669 4.49851C0.317442 5.60502 0 6.84759 0 8.16269C0 9.47779 0.317442 10.7203 0.870669 11.8268L3.519 9.7771Z" fill="#FBBC05"/>
<path d="M8.16271 3.15623C9.69547 3.15623 10.7294 3.81831 11.3189 4.3716L13.6226 2.12231C12.2078 0.807206 10.3666 0 8.16271 0C4.97016 0 2.21297 1.83206 0.870667 4.49853L3.50993 6.54831C4.17208 4.58019 6.00414 3.15623 8.16271 3.15623Z" fill="#EB4335"/>
</svg>
