<svg width="163" height="46" viewBox="0 0 163 46" fill="none" xmlns="http://www.w3.org/2000/svg">
<path d="M15.232 15.552L16.32 15.168L14.144 44.992H2.048L0 15.168C2.432 16.1493 5.01333 16.64 7.744 16.64C10.5173 16.64 13.0133 16.2773 15.232 15.552ZM8.128 13.824C5.99467 13.824 4.20267 13.184 2.752 11.904C1.30133 10.624 0.576 8.96 0.576 6.912C0.576 4.82133 1.28 3.15733 2.688 1.92C4.13867 0.639999 5.93067 0 8.064 0C10.24 0 12.0533 0.639999 13.504 1.92C14.9547 3.2 15.68 4.864 15.68 6.912C15.68 8.96 14.9547 10.624 13.504 11.904C12.0533 13.184 10.2613 13.824 8.128 13.824Z" fill="#FF7643"/>
<path d="M48.3105 20.8V26.752L37.5585 29.44L36.0225 44.992H23.5425L19.7025 6.208H49.1425L51.1265 14.144L39.0305 14.912L38.3905 20.8H48.3105Z" fill="#FF7643"/>
<path d="M58.1455 41.856C55.0735 39.296 53.5375 35.2427 53.5375 29.696C53.5375 24.1493 55.0735 20.1173 58.1455 17.6C61.2602 15.04 65.3988 13.76 70.5615 13.76C75.7242 13.76 79.8415 15.04 82.9135 17.6C86.0282 20.1173 87.5855 24.1493 87.5855 29.696C87.5855 35.2427 86.0282 39.296 82.9135 41.856C79.8415 44.3733 75.7242 45.632 70.5615 45.632C65.3988 45.632 61.2602 44.3733 58.1455 41.856ZM67.8735 22.464C67.3615 23.9147 67.1055 26.3253 67.1055 29.696C67.1055 33.0667 67.3615 35.4987 67.8735 36.992C68.3855 38.4427 69.2815 39.168 70.5615 39.168C71.8415 39.168 72.7375 38.4427 73.2495 36.992C73.7615 35.4987 74.0175 33.0667 74.0175 29.696C74.0175 26.3253 73.7615 23.9147 73.2495 22.464C72.7375 20.9707 71.8415 20.224 70.5615 20.224C69.2815 20.224 68.3855 20.9707 67.8735 22.464Z" fill="#FF7643"/>
<path d="M95.2305 41.856C92.1585 39.296 90.6225 35.2427 90.6225 29.696C90.6225 24.1493 92.1585 20.1173 95.2305 17.6C98.3452 15.04 102.484 13.76 107.646 13.76C112.809 13.76 116.927 15.04 119.999 17.6C123.113 20.1173 124.671 24.1493 124.671 29.696C124.671 35.2427 123.113 39.296 119.999 41.856C116.927 44.3733 112.809 45.632 107.646 45.632C102.484 45.632 98.3452 44.3733 95.2305 41.856ZM104.958 22.464C104.446 23.9147 104.19 26.3253 104.19 29.696C104.19 33.0667 104.446 35.4987 104.958 36.992C105.47 38.4427 106.367 39.168 107.646 39.168C108.926 39.168 109.823 38.4427 110.335 36.992C110.847 35.4987 111.103 33.0667 111.103 29.696C111.103 26.3253 110.847 23.9147 110.335 22.464C109.823 20.9707 108.926 20.224 107.646 20.224C106.367 20.224 105.47 20.9707 104.958 22.464Z" fill="#FF7643"/>
<path d="M127.708 29.12C127.708 26.176 128.113 23.6373 128.923 21.504C129.777 19.3707 130.886 17.7707 132.251 16.704C134.769 14.7413 137.563 13.76 140.635 13.76C142.171 13.76 143.579 14.08 144.859 14.72C146.182 15.3173 147.099 15.936 147.611 16.576L148.38 17.472L147.867 3.456H162.46L160.732 44.992H151.132L150.044 40.832C147.484 43.9893 144.326 45.568 140.572 45.568C136.859 45.6107 133.788 44.224 131.355 41.408C128.923 38.592 127.708 34.496 127.708 29.12ZM144.732 22.336C142.214 22.336 140.956 24.896 140.956 30.016C140.956 30.9547 141.019 31.8507 141.147 32.704C141.275 33.5573 141.66 34.4533 142.299 35.392C142.939 36.3307 143.878 36.8 145.115 36.8C146.353 36.8 147.292 36.1173 147.932 34.752C148.614 33.344 148.956 31.7653 148.956 30.016C148.956 24.896 147.548 22.336 144.732 22.336Z" fill="#FF7643"/>
</svg>
