<svg width="40" height="40" viewBox="0 0 40 40" fill="none" xmlns="http://www.w3.org/2000/svg">
<path d="M19.9998 36.6667C21.8332 36.6667 23.3332 35.1667 23.3332 33.3334H16.6665C16.6665 35.1667 18.1665 36.6667 19.9998 36.6667ZM29.9998 26.6667V18.3334C29.9998 13.2167 27.2832 8.93341 22.4998 7.80008V6.66675C22.4998 5.28341 21.3832 4.16675 19.9998 4.16675C18.6165 4.16675 17.4998 5.28341 17.4998 6.66675V7.80008C12.7332 8.93341 9.99984 13.2001 9.99984 18.3334V26.6667L6.6665 30.0001V31.6667H33.3332V30.0001L29.9998 26.6667ZM26.6665 28.3334H13.3332V18.3334C13.3332 14.2001 15.8498 10.8334 19.9998 10.8334C24.1498 10.8334 26.6665 14.2001 26.6665 18.3334V28.3334Z" fill="#FF7643"/>
</svg>
