<svg width="24" height="24" viewBox="0 0 24 24" fill="none" xmlns="http://www.w3.org/2000/svg">
<path d="M11.1094 0.0282064C11.0203 0.0375814 10.7438 0.0703939 10.5 0.0985189C6.79219 0.520394 3.36563 2.84539 1.48125 6.21571C0.796876 7.44383 0.300001 8.97196 0.0890629 10.5001C0.00468787 11.086 0.00468787 12.9141 0.0890629 13.5001C0.581251 17.072 2.48438 20.1048 5.46094 22.0595C8.31563 23.9345 11.9156 24.4829 15.2578 23.5454C19.6125 22.3266 22.9734 18.6563 23.7844 14.2313C24.5156 10.2704 23.3016 6.34696 20.4797 3.52039C18.6094 1.65477 16.3594 0.525081 13.6875 0.117269C13.2188 0.0469564 11.475 -0.0139811 11.1094 0.0282064ZM12.9609 1.45321C15.2953 1.66883 17.5406 2.68602 19.2797 4.31258C20.7 5.64383 21.8203 7.57039 22.2797 9.47352C22.5094 10.4157 22.5656 10.922 22.5656 12.0001C22.5656 13.0782 22.5094 13.5845 22.2797 14.5266C21.9141 16.0501 21.1266 17.5876 20.0719 18.8438C18.6844 20.5032 16.6406 21.7688 14.5266 22.2798C13.5844 22.5095 13.0781 22.5657 12 22.5657C10.9172 22.5657 10.4156 22.5095 9.46875 22.2798C7.6125 21.8298 5.67188 20.7141 4.37344 19.3454C2.23594 17.0954 1.17656 14.072 1.45313 11.0391C1.70625 8.30633 3.07031 5.68133 5.15625 3.92352C7.33125 2.09539 10.1672 1.19539 12.9609 1.45321Z" fill="#FF7643"/>
<path d="M11.8125 3.85329C11.7234 3.87673 11.5969 3.94235 11.5359 3.9986C11.475 4.05485 10.9594 5.03923 10.3969 6.18766C9.82968 7.3361 9.36562 8.2736 9.36093 8.27829C9.35624 8.28297 8.37187 8.4236 7.17187 8.59704C5.97187 8.77047 4.90312 8.93454 4.79062 8.96266C4.55156 9.0236 4.33125 9.25329 4.28437 9.49703C4.22343 9.82516 4.3125 9.96578 5.00156 10.6408C5.35781 10.9877 6.11718 11.733 6.68906 12.2955L7.72968 13.3127L7.33125 15.6142C6.89062 18.1736 6.89062 18.1502 7.19062 18.4127C7.28437 18.4923 7.43437 18.5673 7.54218 18.5861C7.78593 18.6283 7.77656 18.6283 10.1625 17.372L12 16.4064L13.9359 17.4189C14.9953 17.9814 15.9562 18.4783 16.0687 18.5252C16.3312 18.6423 16.5891 18.6048 16.8094 18.4127C17.1094 18.1502 17.1094 18.1736 16.6687 15.6142L16.2703 13.3127L17.2875 12.3189C17.8453 11.7705 18.6047 11.0252 18.975 10.6642C19.6875 9.96578 19.7766 9.82516 19.7156 9.49703C19.6734 9.27204 19.4531 9.02829 19.2328 8.96735C19.1344 8.93922 18.0609 8.77047 16.8422 8.59704L14.6344 8.27829L13.6125 6.20641C13.0312 5.01579 12.5437 4.07829 12.4734 4.01735C12.3656 3.91423 12.2672 3.86735 12.0469 3.82048C12.0094 3.8111 11.9016 3.82517 11.8125 3.85329ZM12.8203 7.76735C13.5141 9.17829 13.6406 9.40329 13.7812 9.49703C13.9219 9.5861 14.2078 9.64235 15.6328 9.84391C16.5609 9.97516 17.3578 10.097 17.4047 10.1158C17.475 10.1439 17.2594 10.3783 16.2 11.4095C15.15 12.4314 14.8969 12.6986 14.8547 12.8486C14.8031 13.008 14.8359 13.2377 15.1031 14.7986C15.2719 15.7736 15.4031 16.5752 15.3984 16.5845C15.3937 16.5892 14.6625 16.2142 13.7766 15.7502C12.5766 15.122 12.1219 14.9064 12 14.9064C11.8781 14.9064 11.4187 15.1267 10.2234 15.7502C9.33749 16.2189 8.60624 16.5892 8.60156 16.5845C8.59687 16.5752 8.72812 15.7736 8.89687 14.7986C9.16406 13.2377 9.19687 13.008 9.14531 12.8486C9.10312 12.6986 8.84999 12.4314 7.8 11.4095C6.74531 10.383 6.525 10.1439 6.59531 10.1158C6.64218 10.1017 7.43906 9.97516 8.36718 9.84391C9.79687 9.64235 10.0781 9.5861 10.2187 9.49703C10.3594 9.40329 10.4859 9.1736 11.1797 7.76735C11.6203 6.87204 11.9859 6.14548 12 6.14548C12.0141 6.14548 12.3844 6.87204 12.8203 7.76735Z" fill="#FF7643"/>
</svg>
