<svg width="16" height="14" viewBox="0 0 16 14" fill="none" xmlns="http://www.w3.org/2000/svg">
<path d="M15.9822 1.5867C15.3953 1.84714 14.7649 2.0232 14.1021 2.10234C14.7785 1.69727 15.2967 1.05538 15.5414 0.291424C14.8988 0.673076 14.1956 0.941758 13.4622 1.0858C12.8654 0.449657 12.0144 0.0524902 11.0729 0.0524902C9.26562 0.0524902 7.79995 1.51757 7.79995 3.32586C7.79995 3.58208 7.82881 3.83204 7.88429 4.07203C5.16374 3.9353 2.75179 2.63213 1.13735 0.651959C0.855446 1.13557 0.694086 1.69786 0.694086 2.29779C0.694086 3.43331 1.27205 4.43519 2.15025 5.02206C1.63037 5.00595 1.1219 4.86563 0.667341 4.61281V4.65418C0.667341 6.24031 1.79551 7.56287 3.29308 7.86367C3.01798 7.93904 2.72927 7.97842 2.43059 7.97842C2.21942 7.97842 2.01454 7.95844 1.81439 7.92079C2.23095 9.22084 3.43986 10.1671 4.87186 10.1939C3.75155 11.0721 2.33992 11.5956 0.80673 11.5956C0.542656 11.5956 0.281667 11.5798 0.0254517 11.549C1.47431 12.478 3.19459 13.0203 5.04323 13.0203C11.0639 13.0203 14.3567 8.03242 14.3567 3.70685C14.3567 3.56484 14.3536 3.42389 14.3467 3.28344C14.9883 2.81942 15.5421 2.24487 15.9822 1.5867Z" fill="#2DAAE1"/>
</svg>
